{"glyphs":{"0":{"ha":929,"x_min":75,"x_max":853,"o":"m 464 -14 q 292 15 364 -14 q 174 94 221 43 q 105 212 128 144 q 78 356 82 279 q 76 440 76 393 q 76 533 75 486 q 78 619 76 581 q 105 763 81 696 q 176 879 129 829 q 295 958 224 929 q 464 986 367 986 q 632 958 561 986 q 750 879 703 929 q 822 763 797 829 q 850 619 846 696 q 852 533 851 581 q 852 440 853 486 q 850 356 851 393 q 822 212 846 279 q 752 94 799 144 q 634 15 706 43 q 464 -14 563 -14 m 464 167 q 582 219 544 167 q 621 363 619 272 q 624 446 624 403 q 624 532 624 489 q 621 613 624 575 q 582 753 619 699 q 464 807 544 807 q 346 753 383 807 q 306 613 308 699 q 305 532 306 575 q 305 446 304 489 q 306 363 306 403 q 347 219 308 272 q 464 167 385 167 z "},"1":{"ha":667,"x_min":24,"x_max":572,"o":"m 385 0 q 360 10 371 0 q 350 35 350 19 l 350 725 l 150 569 q 124 563 138 561 q 101 578 111 565 l 32 669 q 26 696 24 682 q 40 718 28 710 l 357 963 q 373 970 365 968 q 390 972 381 972 l 538 972 q 563 963 553 972 q 572 938 572 953 l 572 35 q 563 10 572 19 q 538 0 553 0 l 385 0 z "},"2":{"ha":881,"x_min":60,"x_max":817,"o":"m 94 0 q 69 10 79 0 q 60 35 60 19 l 60 118 q 66 149 60 129 q 94 186 72 168 l 276 365 q 442 498 378 443 q 536 597 506 553 q 567 683 567 642 q 537 772 567 738 q 442 807 507 807 q 367 788 397 807 q 320 739 336 769 q 297 674 304 708 q 281 649 293 656 q 253 642 268 642 l 106 642 q 83 650 92 642 q 75 671 75 658 q 102 792 76 735 q 175 893 128 849 q 289 963 222 938 q 440 989 356 989 q 636 951 557 989 q 756 846 715 913 q 796 692 796 779 q 769 568 796 625 q 691 459 742 511 q 568 351 640 407 l 406 188 l 782 188 q 807 178 797 188 q 817 153 817 168 l 817 35 q 807 10 817 19 q 782 0 797 0 l 94 0 z "},"3":{"ha":896,"x_min":49,"x_max":836,"o":"m 442 -14 q 265 11 339 -14 q 144 75 192 36 q 74 160 97 114 q 49 250 50 207 q 57 271 49 263 q 78 279 65 279 l 232 279 q 257 273 247 279 q 274 251 267 267 q 310 200 286 219 q 369 173 335 181 q 442 165 403 165 q 564 201 519 165 q 608 303 608 238 q 567 399 608 369 q 449 428 525 428 l 300 428 q 276 438 286 428 q 267 461 267 447 l 267 529 q 273 557 267 546 q 286 575 279 568 l 525 792 l 133 792 q 108 801 118 792 q 99 826 99 811 l 99 938 q 108 963 99 953 q 133 972 118 972 l 751 972 q 776 963 767 972 q 786 938 786 953 l 786 836 q 780 812 786 822 q 765 794 774 801 l 540 574 l 554 571 q 700 531 636 563 q 800 440 764 499 q 836 290 836 381 q 785 128 836 196 q 644 23 733 60 q 442 -14 556 -14 z "},"4":{"ha":926,"x_min":40,"x_max":883,"o":"m 544 0 q 521 10 531 0 q 511 35 511 19 l 511 201 l 74 201 q 50 211 60 201 q 40 236 40 221 l 40 349 q 44 371 40 360 q 56 392 49 382 l 463 949 q 514 972 481 972 l 690 972 q 715 963 706 972 q 725 938 725 953 l 725 388 l 849 388 q 874 378 864 388 q 883 353 883 368 l 883 236 q 874 211 883 221 q 849 201 864 201 l 725 201 l 725 35 q 715 10 725 19 q 690 0 706 0 l 544 0 m 257 379 l 515 379 l 515 744 l 257 379 z "},"5":{"ha":879,"x_min":50,"x_max":826,"o":"m 435 -15 q 225 25 310 -15 q 97 131 140 65 q 50 269 53 196 q 58 290 50 282 q 79 299 67 299 l 236 299 q 265 292 254 299 q 279 271 275 285 q 316 210 293 235 q 369 176 339 186 q 436 165 400 165 q 517 183 481 165 q 576 238 554 201 q 599 326 599 274 q 578 407 599 372 q 520 461 557 442 q 436 481 483 481 q 376 472 399 481 q 338 451 353 463 q 310 431 322 440 q 283 422 297 422 l 128 422 q 106 431 115 422 q 97 453 97 440 l 146 932 q 160 962 149 951 q 189 972 172 972 l 728 972 q 753 963 743 972 q 763 938 763 953 l 763 826 q 753 801 763 811 q 728 792 743 792 l 326 792 l 307 589 q 375 622 333 608 q 489 636 417 636 q 616 615 556 636 q 724 551 676 593 q 799 452 772 510 q 826 321 826 394 q 778 145 826 221 q 643 27 731 69 q 435 -15 556 -15 z "},"6":{"ha":888,"x_min":51,"x_max":844,"o":"m 451 -14 q 240 31 331 -14 q 101 153 150 75 q 51 331 51 232 q 64 414 51 372 q 94 492 76 456 q 131 558 113 529 q 163 606 150 588 l 413 944 q 430 962 418 951 q 461 972 442 972 l 618 972 q 639 963 631 972 q 647 942 647 954 q 645 931 647 936 q 640 924 643 926 l 450 661 q 475 665 461 664 q 500 667 489 667 q 628 640 567 665 q 739 570 690 614 q 816 467 788 526 q 844 333 844 407 q 797 161 844 240 q 660 34 749 82 q 451 -14 572 -14 m 449 167 q 533 185 494 167 q 596 241 572 204 q 619 331 619 278 q 596 422 619 385 q 533 477 572 458 q 449 496 494 496 q 365 477 404 496 q 302 422 325 458 q 279 331 279 385 q 303 241 279 278 q 365 185 326 204 q 449 167 404 167 z "},"7":{"ha":775,"x_min":39,"x_max":739,"o":"m 199 0 q 178 9 186 0 q 169 31 169 18 q 172 43 169 36 l 500 785 l 74 785 q 49 794 60 785 q 39 819 39 804 l 39 938 q 49 963 39 953 q 74 972 60 972 l 704 972 q 729 963 719 972 q 739 938 739 953 l 739 833 q 735 799 739 813 q 725 771 731 785 l 399 33 q 383 13 393 25 q 351 0 372 0 l 199 0 z "},"8":{"ha":925,"x_min":67,"x_max":860,"o":"m 463 -14 q 291 9 365 -14 q 167 73 217 32 q 92 169 117 114 q 67 289 67 224 q 105 426 67 368 q 204 517 143 485 q 128 598 156 549 q 101 713 101 647 q 142 852 101 790 q 262 950 182 914 q 463 986 342 986 q 662 951 582 986 q 781 854 742 915 q 821 714 821 793 q 795 599 821 649 q 719 517 769 549 q 822 426 783 486 q 860 288 860 367 q 815 133 860 201 q 681 26 769 65 q 463 -14 592 -14 m 463 147 q 551 164 511 147 q 614 213 590 181 q 638 288 638 244 q 614 363 638 332 q 551 411 590 394 q 463 428 511 428 q 374 411 414 428 q 310 363 333 394 q 288 288 288 332 q 310 213 288 244 q 374 164 333 181 q 463 147 414 147 m 463 581 q 540 597 506 582 q 596 640 575 613 q 617 703 617 667 q 597 767 617 740 q 542 810 576 794 q 463 825 507 825 q 383 810 418 825 q 328 767 349 794 q 308 703 308 740 q 328 638 308 665 q 383 596 349 611 q 463 581 418 581 z "},"9":{"ha":874,"x_min":43,"x_max":822,"o":"m 249 0 q 228 9 236 0 q 219 31 219 18 q 222 42 219 38 q 225 49 224 46 l 425 324 q 376 318 401 318 q 250 346 310 321 q 143 414 190 371 q 69 515 96 457 q 43 644 43 574 q 67 769 43 708 q 140 879 92 831 q 261 957 189 928 q 429 986 333 986 q 599 960 525 986 q 722 887 672 933 q 797 780 772 840 q 822 651 822 719 q 801 538 822 590 q 749 439 779 485 q 688 350 718 393 l 454 28 q 438 10 449 21 q 406 0 428 0 l 249 0 m 431 483 q 515 503 478 483 q 573 558 551 522 q 594 644 594 594 q 573 731 594 696 q 514 786 551 767 q 431 806 476 806 q 349 786 386 806 q 290 731 313 767 q 268 644 268 696 q 290 558 268 594 q 349 503 313 522 q 431 483 386 483 z "}," ":{"ha":307,"x_min":0,"x_max":0,"o":""},"A":{"ha":978,"x_min":17,"x_max":963,"o":"m 46 0 q 25 9 33 0 q 17 29 17 18 q 18 42 17 36 l 349 935 q 365 961 353 950 q 400 972 378 972 l 578 972 q 613 961 600 972 q 631 935 625 950 l 960 42 q 963 29 963 36 q 953 9 963 18 q 932 0 944 0 l 786 0 q 757 10 767 0 q 744 28 747 19 l 685 183 l 293 183 l 235 28 q 222 10 231 19 q 192 0 213 0 l 46 0 m 346 363 l 632 363 l 489 761 l 346 363 z "},"B":{"ha":965,"x_min":103,"x_max":904,"o":"m 136 0 q 113 10 122 0 q 103 35 103 19 l 103 938 q 113 963 103 953 q 136 972 122 972 l 550 972 q 740 939 665 972 q 849 844 814 906 q 883 701 883 783 q 865 611 883 650 q 819 547 846 572 q 767 510 792 522 q 863 427 821 485 q 904 290 904 369 q 865 138 904 203 q 749 36 825 72 q 563 0 672 0 l 136 0 m 324 164 l 536 164 q 639 202 604 164 q 674 292 674 240 q 638 383 674 346 q 536 419 603 419 l 324 419 l 324 164 m 324 579 l 524 579 q 622 612 589 579 q 654 696 654 644 q 622 778 654 747 q 524 808 589 808 l 324 808 l 324 579 z "},"C":{"ha":963,"x_min":69,"x_max":911,"o":"m 489 -14 q 268 30 360 -14 q 126 158 176 74 q 71 363 76 242 q 69 485 69 419 q 71 610 69 550 q 127 813 76 729 q 269 942 178 897 q 489 986 361 986 q 659 963 583 986 q 790 894 735 939 q 877 790 846 850 q 910 657 908 731 q 902 636 911 644 q 881 628 893 628 l 721 628 q 694 635 704 628 q 679 663 685 643 q 610 776 658 746 q 489 806 561 806 q 354 758 404 806 q 300 603 304 711 q 300 369 296 489 q 354 214 304 261 q 489 167 404 167 q 610 197 561 167 q 679 310 660 228 q 694 337 685 329 q 721 344 704 344 l 881 344 q 902 336 893 344 q 910 315 911 328 q 877 182 908 242 q 790 78 846 122 q 659 10 735 33 q 489 -14 583 -14 z "},"D":{"ha":985,"x_min":103,"x_max":915,"o":"m 136 0 q 113 10 122 0 q 103 35 103 19 l 103 938 q 113 963 103 953 q 136 972 122 972 l 486 972 q 718 928 625 972 q 860 801 811 885 q 913 593 910 717 q 915 486 915 532 q 913 381 915 440 q 861 167 908 251 q 723 41 814 82 q 493 0 632 0 l 136 0 m 324 181 l 486 181 q 599 201 556 181 q 665 266 643 221 q 689 383 688 311 q 691 456 690 424 q 691 519 692 488 q 689 590 690 551 q 635 743 686 694 q 479 792 585 792 l 324 792 l 324 181 z "},"E":{"ha":876,"x_min":103,"x_max":813,"o":"m 136 0 q 113 10 122 0 q 103 35 103 19 l 103 938 q 113 963 103 953 q 136 972 122 972 l 767 972 q 792 963 782 972 q 801 938 801 953 l 801 826 q 792 801 801 811 q 767 792 782 792 l 317 792 l 317 575 l 736 575 q 761 565 751 575 q 771 540 771 556 l 771 438 q 761 413 771 424 q 736 403 751 403 l 317 403 l 317 181 l 778 181 q 803 171 793 181 q 813 146 813 161 l 813 35 q 803 10 813 19 q 778 0 793 0 l 136 0 z "},"F":{"ha":846,"x_min":103,"x_max":792,"o":"m 136 0 q 113 10 122 0 q 103 35 103 19 l 103 938 q 113 963 103 953 q 136 972 122 972 l 757 972 q 782 963 772 972 q 792 938 792 953 l 792 818 q 782 794 792 804 q 757 785 772 785 l 321 785 l 321 550 l 729 550 q 754 540 744 550 q 764 515 764 531 l 764 397 q 754 374 764 383 q 729 364 744 364 l 321 364 l 321 35 q 311 10 321 19 q 286 0 301 0 l 136 0 z "},"G":{"ha":986,"x_min":71,"x_max":921,"o":"m 493 -14 q 270 30 363 -14 q 127 158 178 74 q 72 361 76 242 q 71 489 71 421 q 72 618 71 557 q 127 817 76 735 q 272 942 178 899 q 493 986 365 986 q 674 960 596 986 q 805 891 751 933 q 885 799 858 849 q 914 701 913 749 q 906 681 914 689 q 883 672 897 672 l 711 672 q 690 678 697 672 q 676 694 682 683 q 645 744 667 718 q 588 788 624 771 q 493 806 551 806 q 355 760 406 806 q 300 611 304 714 q 300 368 296 492 q 357 214 304 261 q 496 167 410 167 q 598 187 553 167 q 669 249 643 207 q 696 358 696 292 l 696 393 l 544 393 q 521 403 531 393 q 511 428 511 414 l 511 517 q 521 542 511 532 q 544 551 531 551 l 886 551 q 911 542 901 551 q 921 517 921 532 l 921 365 q 868 161 921 246 q 719 31 815 76 q 493 -14 622 -14 z "},"H":{"ha":1024,"x_min":103,"x_max":921,"o":"m 136 0 q 113 10 122 0 q 103 35 103 19 l 103 938 q 113 963 103 953 q 136 972 122 972 l 289 972 q 314 963 304 972 q 324 938 324 953 l 324 590 l 700 590 l 700 938 q 710 963 700 953 q 733 972 719 972 l 886 972 q 911 963 901 972 q 921 938 921 953 l 921 35 q 911 10 921 19 q 886 0 901 0 l 733 0 q 710 10 719 0 q 700 35 700 19 l 700 393 l 324 393 l 324 35 q 314 10 324 19 q 289 0 304 0 l 136 0 z "},"I":{"ha":432,"x_min":103,"x_max":329,"o":"m 136 0 q 113 10 122 0 q 103 35 103 19 l 103 938 q 113 963 103 953 q 136 972 122 972 l 296 972 q 319 963 310 972 q 329 938 329 953 l 329 35 q 319 10 329 19 q 296 0 310 0 l 136 0 z "},"J":{"ha":918,"x_min":38,"x_max":824,"o":"m 428 -14 q 281 6 350 -14 q 157 65 211 25 q 71 163 103 104 q 38 299 39 221 q 46 320 38 311 q 67 329 54 329 l 226 329 q 256 320 246 329 q 271 292 265 311 q 301 220 279 249 q 358 179 324 192 q 433 167 392 167 q 554 217 513 167 q 596 363 596 268 l 596 786 l 135 786 q 111 796 121 786 q 101 821 101 806 l 101 938 q 111 963 101 953 q 135 972 121 972 l 789 972 q 814 963 804 972 q 824 938 824 953 l 824 357 q 774 155 824 238 q 635 29 724 72 q 428 -14 546 -14 z "},"K":{"ha":899,"x_min":103,"x_max":885,"o":"m 136 0 q 113 10 122 0 q 103 35 103 19 l 103 938 q 113 963 103 953 q 136 972 122 972 l 286 972 q 311 963 301 972 q 321 938 321 953 l 321 621 l 606 946 q 624 963 611 954 q 660 972 638 972 l 829 972 q 849 963 840 972 q 858 943 858 954 q 853 926 858 933 l 496 507 l 879 46 q 885 29 885 40 q 876 9 885 18 q 856 0 867 0 l 681 0 q 643 11 656 0 q 626 26 631 22 l 321 382 l 321 35 q 311 10 321 19 q 286 0 301 0 l 136 0 z "},"L":{"ha":817,"x_min":103,"x_max":792,"o":"m 136 0 q 113 10 122 0 q 103 35 103 19 l 103 938 q 113 963 103 953 q 136 972 122 972 l 293 972 q 317 963 307 972 q 326 938 326 953 l 326 188 l 757 188 q 782 178 772 188 q 792 153 792 168 l 792 35 q 782 10 792 19 q 757 0 772 0 l 136 0 z "},"M":{"ha":1138,"x_min":103,"x_max":1035,"o":"m 138 0 q 113 10 122 0 q 103 35 103 19 l 103 938 q 113 963 103 953 q 138 972 122 972 l 268 972 q 299 961 289 972 q 313 944 310 950 l 569 475 l 826 944 q 840 961 829 950 q 871 972 850 972 l 1000 972 q 1025 963 1015 972 q 1035 938 1035 953 l 1035 35 q 1025 10 1035 19 q 1000 0 1015 0 l 858 0 q 835 10 844 0 q 825 35 825 19 l 825 594 l 649 265 q 632 243 643 253 q 601 233 621 233 l 536 233 q 507 243 518 233 q 489 265 496 253 l 314 594 l 314 35 q 304 10 314 19 q 279 0 294 0 l 138 0 z "},"N":{"ha":990,"x_min":103,"x_max":888,"o":"m 136 0 q 113 10 122 0 q 103 35 103 19 l 103 938 q 113 963 103 953 q 136 972 122 972 l 264 972 q 294 963 285 972 q 307 947 304 953 l 676 369 l 676 938 q 686 963 676 953 q 711 972 696 972 l 853 972 q 878 963 868 972 q 888 938 888 953 l 888 35 q 878 10 888 21 q 853 0 868 0 l 725 0 q 694 10 704 0 q 682 25 685 21 l 314 585 l 314 35 q 304 10 314 19 q 279 0 294 0 l 136 0 z "},"O":{"ha":976,"x_min":71,"x_max":908,"o":"m 489 -14 q 271 28 363 -14 q 128 153 179 69 q 72 365 76 238 q 71 484 71 425 q 72 604 71 543 q 128 815 76 729 q 273 943 181 900 q 489 986 365 986 q 703 943 611 986 q 849 815 796 900 q 906 604 901 729 q 908 484 908 543 q 906 365 908 425 q 849 153 901 238 q 706 28 797 69 q 489 -14 614 -14 m 489 167 q 622 215 569 167 q 676 372 674 264 q 679 487 679 433 q 676 600 679 540 q 650 718 675 672 q 584 785 625 764 q 489 806 543 806 q 394 785 436 806 q 328 718 353 764 q 300 600 303 672 q 299 487 299 540 q 300 372 299 433 q 356 215 304 264 q 489 167 407 167 z "},"P":{"ha":928,"x_min":103,"x_max":888,"o":"m 136 0 q 113 10 122 0 q 103 35 103 19 l 103 938 q 113 963 103 953 q 136 972 122 972 l 517 972 q 713 938 629 972 q 842 833 796 903 q 888 657 888 763 q 842 484 888 553 q 713 382 796 415 q 517 349 629 349 l 331 349 l 331 35 q 321 10 331 19 q 296 0 311 0 l 136 0 m 328 521 l 510 521 q 619 556 581 521 q 658 658 658 590 q 623 760 658 721 q 510 799 588 799 l 328 799 l 328 521 z "},"Q":{"ha":976,"x_min":69,"x_max":908,"o":"m 725 -90 q 692 -78 704 -90 q 674 -58 681 -67 l 624 8 q 488 -14 564 -14 q 269 28 361 -14 q 127 153 178 69 q 71 365 76 238 q 69 484 69 425 q 71 604 69 543 q 128 815 76 729 q 273 943 181 900 q 488 986 365 986 q 702 943 610 986 q 848 815 794 900 q 904 604 901 729 q 907 484 907 543 q 904 365 907 425 q 804 94 897 188 l 903 -47 q 906 -53 904 -49 q 907 -61 907 -57 q 900 -81 908 -72 q 879 -90 892 -90 l 725 -90 m 488 167 q 621 215 569 167 q 676 372 672 264 q 679 487 679 433 q 676 600 679 540 q 649 718 674 672 q 583 785 625 764 q 488 806 542 806 q 393 785 435 806 q 327 718 351 764 q 300 600 303 672 q 299 487 299 540 q 300 372 299 433 q 356 215 304 264 q 488 167 407 167 z "},"R":{"ha":947,"x_min":103,"x_max":901,"o":"m 136 0 q 113 10 122 0 q 103 35 103 19 l 103 938 q 113 963 103 953 q 136 972 122 972 l 506 972 q 779 892 679 972 q 879 663 879 813 q 831 493 879 561 q 700 392 782 425 l 897 44 q 901 29 901 36 q 892 9 901 18 q 872 0 883 0 l 717 0 q 679 13 692 0 q 661 38 667 26 l 492 356 l 324 356 l 324 35 q 314 10 324 19 q 289 0 304 0 l 136 0 m 324 532 l 503 532 q 615 567 578 532 q 651 664 651 601 q 615 763 651 726 q 503 799 579 799 l 324 799 l 324 532 z "},"S":{"ha":906,"x_min":46,"x_max":860,"o":"m 453 -14 q 230 25 319 -14 q 94 126 140 64 q 46 260 49 189 q 54 281 46 272 q 75 289 63 289 l 225 289 q 253 282 243 289 q 271 264 263 275 q 302 217 281 239 q 360 181 324 194 q 453 167 397 167 q 588 196 543 167 q 633 275 633 225 q 609 332 633 310 q 533 372 585 354 q 394 410 481 390 q 217 469 290 433 q 108 560 144 504 q 71 700 71 617 q 117 848 71 783 q 246 949 163 913 q 444 986 329 986 q 609 961 538 986 q 728 896 681 936 q 801 810 776 856 q 828 721 826 764 q 820 699 828 708 q 799 690 813 690 l 643 690 q 618 696 629 690 q 599 715 607 701 q 551 779 592 753 q 444 806 510 806 q 337 781 376 806 q 297 706 297 757 q 318 649 297 672 q 386 609 339 626 q 514 572 433 592 q 711 512 635 547 q 824 422 788 476 q 860 283 860 367 q 808 124 860 190 q 665 22 757 57 q 453 -14 574 -14 z "},"T":{"ha":857,"x_min":31,"x_max":826,"o":"m 351 0 q 326 10 336 0 q 317 35 317 19 l 317 778 l 64 778 q 40 788 50 778 q 31 813 31 797 l 31 938 q 40 963 31 953 q 64 972 50 972 l 792 972 q 817 963 807 972 q 826 938 826 953 l 826 813 q 817 788 826 797 q 792 778 807 778 l 540 778 l 540 35 q 531 10 540 19 q 506 0 521 0 l 351 0 z "},"U":{"ha":999,"x_min":94,"x_max":904,"o":"m 500 -14 q 286 27 378 -14 q 144 153 194 68 q 94 371 94 239 l 94 938 q 104 963 94 953 q 128 972 114 972 l 281 972 q 306 963 296 972 q 315 938 315 953 l 315 372 q 364 221 315 271 q 500 171 413 171 q 635 221 586 171 q 683 372 683 271 l 683 938 q 694 963 683 953 q 718 972 704 972 l 871 972 q 894 963 885 972 q 904 938 904 953 l 904 371 q 855 153 904 239 q 715 27 806 68 q 500 -14 624 -14 z "},"V":{"ha":949,"x_min":36,"x_max":914,"o":"m 383 0 q 347 12 361 0 q 328 40 333 24 l 38 931 q 36 943 36 938 q 44 963 36 954 q 65 972 53 972 l 213 972 q 245 960 233 972 q 260 939 257 949 l 475 260 l 690 939 q 704 960 693 949 q 738 972 715 972 l 885 972 q 905 963 896 972 q 914 943 914 954 q 911 931 914 938 l 621 40 q 602 12 615 24 q 565 0 589 0 l 383 0 z "},"W":{"ha":1143,"x_min":50,"x_max":1093,"o":"m 261 0 q 226 13 239 0 q 208 43 213 25 l 51 933 q 50 939 50 936 q 50 943 50 942 q 58 963 50 954 q 79 972 67 972 l 226 972 q 267 943 263 972 l 369 357 l 482 721 q 496 744 486 732 q 528 757 506 757 l 615 757 q 647 744 638 757 q 661 721 657 732 l 774 358 l 876 943 q 917 972 881 972 l 1064 972 q 1085 963 1076 972 q 1093 943 1093 954 q 1093 939 1093 942 q 1092 933 1093 936 l 935 43 q 919 13 932 25 q 882 0 906 0 l 769 0 q 735 12 747 0 q 719 36 724 24 l 572 467 l 424 36 q 408 12 419 24 q 374 0 396 0 l 261 0 z "},"X":{"ha":939,"x_min":21,"x_max":919,"o":"m 50 0 q 29 9 38 0 q 21 29 21 18 q 22 38 21 33 q 25 46 24 42 l 332 496 l 46 926 q 42 943 42 935 q 50 963 42 954 q 71 972 58 972 l 242 972 q 272 963 261 972 q 288 944 282 953 l 474 668 l 660 944 q 676 963 665 953 q 706 972 688 972 l 868 972 q 889 963 881 972 q 897 943 897 954 q 893 926 897 933 l 606 497 l 915 46 q 919 38 918 42 q 919 29 919 33 q 910 9 919 18 q 890 0 901 0 l 713 0 q 683 10 694 0 q 668 26 672 19 l 465 317 l 265 26 q 249 10 260 19 q 221 0 239 0 l 50 0 z "},"Y":{"ha":933,"x_min":26,"x_max":907,"o":"m 390 0 q 365 10 375 0 q 356 35 356 19 l 356 340 l 31 928 q 28 935 29 932 q 26 943 26 939 q 35 963 26 954 q 56 972 44 972 l 204 972 q 233 963 222 972 q 249 944 244 953 l 467 563 l 685 944 q 700 963 689 953 q 731 972 711 972 l 878 972 q 899 963 890 972 q 907 943 907 954 q 906 935 907 939 q 903 928 906 932 l 578 340 l 578 35 q 568 10 578 19 q 543 0 558 0 l 390 0 z "},"Z":{"ha":886,"x_min":53,"x_max":833,"o":"m 88 0 q 63 10 72 0 q 53 35 53 21 l 53 151 q 61 183 53 171 q 74 201 69 196 l 540 786 l 100 786 q 76 796 86 786 q 67 821 67 806 l 67 938 q 76 963 67 953 q 100 972 86 972 l 783 972 q 808 963 799 972 q 818 938 818 953 l 818 822 q 813 795 818 807 q 800 775 807 783 l 346 188 l 799 188 q 824 178 814 188 q 833 153 833 168 l 833 35 q 824 10 833 19 q 799 0 814 0 l 88 0 z "},"a":{"ha":806,"x_min":40,"x_max":725,"o":"m 300 -14 q 168 15 226 -14 q 75 92 110 43 q 40 200 40 140 q 120 356 40 299 q 331 433 200 413 l 513 460 l 513 485 q 488 568 513 539 q 400 597 463 597 q 327 579 354 597 q 285 532 300 561 q 251 514 274 514 l 119 514 q 96 523 104 514 q 89 544 88 532 q 107 600 89 568 q 163 663 125 632 q 259 715 200 694 q 401 736 318 736 q 551 715 489 736 q 652 657 614 694 q 708 570 690 619 q 725 464 725 521 l 725 35 q 715 10 725 19 q 692 0 706 0 l 554 0 q 531 10 540 0 q 521 35 521 19 l 521 86 q 472 37 503 60 q 399 0 442 14 q 300 -14 357 -14 m 356 131 q 438 150 401 131 q 494 210 474 169 q 515 311 515 250 l 515 335 l 386 314 q 278 276 313 301 q 243 215 243 251 q 259 170 243 189 q 301 141 275 151 q 356 131 326 131 z "},"b":{"ha":864,"x_min":88,"x_max":806,"o":"m 508 -14 q 376 13 429 -14 q 289 82 322 40 l 289 35 q 279 10 289 19 q 254 0 269 0 l 122 0 q 97 10 107 0 q 88 35 88 19 l 88 951 q 97 976 88 967 q 122 986 107 986 l 265 986 q 290 976 281 986 q 300 951 300 967 l 300 650 q 385 712 333 688 q 508 736 436 736 q 633 712 579 736 q 724 644 686 688 q 781 540 761 600 q 804 408 801 481 q 806 362 806 383 q 804 314 806 340 q 781 180 801 240 q 723 76 760 119 q 633 9 686 32 q 508 -14 579 -14 m 444 153 q 528 176 497 153 q 572 236 558 199 q 588 318 585 274 q 588 404 590 361 q 572 486 585 449 q 528 547 558 524 q 444 569 497 569 q 364 547 396 569 q 317 491 332 525 q 300 418 301 457 q 299 367 299 393 q 300 314 299 340 q 316 236 301 272 q 362 176 331 200 q 444 153 393 153 z "},"c":{"ha":806,"x_min":58,"x_max":760,"o":"m 410 -14 q 230 24 307 -14 q 108 133 153 61 q 60 304 64 204 q 58 360 58 326 q 60 417 58 394 q 108 590 64 518 q 229 699 151 661 q 410 736 307 736 q 567 710 501 736 q 674 645 632 685 q 736 564 715 606 q 758 490 757 522 q 749 465 760 475 q 724 456 738 456 l 575 456 q 552 463 560 456 q 538 485 544 469 q 489 554 519 533 q 413 575 458 575 q 315 535 350 575 q 276 410 279 494 q 276 311 274 356 q 315 186 279 225 q 413 147 350 147 q 490 168 461 147 q 538 238 519 189 q 552 260 544 253 q 575 267 560 267 l 724 267 q 749 257 738 267 q 758 232 760 247 q 744 176 757 208 q 706 111 732 144 q 640 49 681 78 q 542 3 600 21 q 410 -14 485 -14 z "},"d":{"ha":864,"x_min":58,"x_max":776,"o":"m 356 -14 q 232 9 286 -14 q 140 76 178 32 q 83 180 103 119 q 60 314 64 240 q 58 362 58 340 q 60 408 58 383 q 83 540 63 481 q 140 644 103 600 q 231 712 176 688 q 356 736 286 736 q 479 712 428 736 q 564 650 531 688 l 564 951 q 574 976 564 967 q 599 986 583 986 l 742 986 q 767 976 757 986 q 776 951 776 967 l 776 35 q 767 10 776 19 q 742 0 757 0 l 608 0 q 585 10 594 0 q 575 35 575 19 l 575 82 q 488 13 540 40 q 356 -14 435 -14 m 419 153 q 502 176 471 153 q 548 236 533 200 q 564 314 563 272 q 567 367 567 340 q 564 418 567 393 q 547 491 563 457 q 500 547 531 525 q 419 569 469 569 q 336 547 367 569 q 292 486 306 524 q 276 404 279 449 q 276 318 274 361 q 292 236 279 274 q 336 176 306 199 q 419 153 367 153 z "},"e":{"ha":814,"x_min":57,"x_max":761,"o":"m 410 -14 q 156 75 250 -14 q 57 333 63 164 q 57 363 57 344 q 57 392 57 382 q 106 577 63 500 q 226 695 149 654 q 408 736 304 736 q 604 688 526 736 q 722 558 682 640 q 761 368 761 475 l 761 336 q 751 312 761 322 q 726 301 742 301 l 274 301 q 274 298 274 301 q 274 292 274 294 q 290 210 275 247 q 335 151 306 174 q 408 129 365 129 q 464 140 442 129 q 501 163 486 150 q 522 186 515 176 q 542 205 535 201 q 565 208 550 208 l 713 208 q 734 200 725 208 q 742 179 743 192 q 719 123 740 156 q 656 59 697 90 q 552 7 614 28 q 410 -14 490 -14 m 274 429 l 544 429 l 544 433 q 528 519 544 482 q 482 576 513 556 q 408 597 451 597 q 335 576 365 597 q 290 519 306 556 q 274 433 274 482 l 274 429 z "},"f":{"ha":594,"x_min":24,"x_max":590,"o":"m 201 0 q 176 10 186 0 q 167 35 167 19 l 167 558 l 58 558 q 33 568 43 558 q 24 592 24 578 l 24 688 q 33 713 24 703 q 58 722 43 722 l 167 722 l 167 772 q 200 918 167 861 q 298 1001 233 975 q 454 1028 363 1028 l 557 1028 q 581 1018 571 1028 q 590 993 590 1008 l 590 897 q 581 874 590 883 q 557 864 571 864 l 464 864 q 392 838 413 864 q 372 765 372 813 l 372 722 l 543 722 q 567 713 557 722 q 576 688 576 703 l 576 592 q 567 568 576 578 q 543 558 557 558 l 372 558 l 372 35 q 363 10 372 19 q 338 0 353 0 l 201 0 z "},"g":{"ha":868,"x_min":58,"x_max":781,"o":"m 426 -306 q 256 -278 324 -306 q 148 -213 188 -251 q 92 -137 108 -175 q 74 -78 75 -100 q 83 -53 72 -64 q 108 -43 94 -43 l 257 -43 q 279 -49 271 -43 q 293 -72 288 -56 q 314 -108 301 -89 q 351 -139 326 -126 q 419 -151 376 -151 q 500 -137 468 -151 q 548 -90 532 -124 q 564 0 564 -57 l 564 93 q 480 33 531 57 q 356 10 429 10 q 228 33 283 10 q 138 98 174 56 q 82 200 101 140 q 60 335 63 260 q 60 408 58 372 q 82 540 63 481 q 138 644 101 600 q 228 712 174 688 q 356 736 283 736 q 486 707 432 736 q 575 635 540 678 l 575 688 q 585 712 575 701 q 608 722 594 722 l 744 722 q 769 712 760 722 q 779 688 779 701 l 781 19 q 740 -157 781 -85 q 622 -267 700 -229 q 426 -306 543 -306 m 419 174 q 501 196 469 174 q 547 253 532 218 q 564 328 563 289 q 565 372 565 343 q 564 415 565 400 q 547 489 563 454 q 501 547 532 524 q 419 569 469 569 q 336 547 367 569 q 292 486 306 524 q 276 404 279 449 q 276 339 274 371 q 292 256 279 293 q 336 196 306 218 q 419 174 367 174 z "},"h":{"ha":888,"x_min":88,"x_max":808,"o":"m 122 0 q 97 10 107 0 q 88 35 88 19 l 88 951 q 97 976 88 967 q 122 986 107 986 l 272 986 q 297 976 288 986 q 307 951 307 967 l 307 639 q 398 710 343 683 q 529 736 453 736 q 674 699 611 736 q 773 592 738 663 q 808 422 808 522 l 808 35 q 799 10 808 19 q 774 0 789 0 l 622 0 q 599 10 608 0 q 589 35 589 19 l 589 414 q 553 528 589 488 q 450 569 517 569 q 346 528 385 569 q 307 414 307 488 l 307 35 q 297 10 307 19 q 272 0 288 0 l 122 0 z "},"i":{"ha":382,"x_min":83,"x_max":299,"o":"m 121 0 q 97 10 107 0 q 86 35 86 19 l 86 688 q 97 713 86 703 q 121 722 107 722 l 261 722 q 285 713 275 722 q 294 688 294 703 l 294 35 q 285 10 294 19 q 261 0 275 0 l 121 0 m 117 833 q 93 843 103 833 q 83 868 83 853 l 83 981 q 93 1005 83 994 q 117 1015 103 1015 l 264 1015 q 288 1005 278 1015 q 299 981 299 994 l 299 868 q 288 843 299 853 q 264 833 278 833 l 117 833 z "},"j":{"ha":404,"x_min":-68,"x_max":321,"o":"m -33 -264 q -58 -254 -49 -264 q -68 -229 -68 -244 l -68 -133 q -58 -110 -68 -119 q -33 -100 -49 -100 l 11 -100 q 69 -85 49 -100 q 96 -46 89 -71 q 103 10 103 -21 l 103 688 q 113 713 103 703 q 136 722 122 722 l 282 722 q 307 713 297 722 q 317 688 317 703 l 317 6 q 284 -140 317 -79 q 188 -232 251 -200 q 32 -264 125 -264 l -33 -264 m 132 833 q 108 843 118 833 q 99 868 99 853 l 99 981 q 108 1005 99 994 q 132 1015 118 1015 l 286 1015 q 310 1005 300 1015 q 321 981 321 994 l 321 868 q 310 843 321 853 q 286 833 300 833 l 132 833 z "},"k":{"ha":788,"x_min":88,"x_max":776,"o":"m 122 0 q 97 10 107 0 q 88 35 88 19 l 88 951 q 97 976 88 967 q 122 986 107 986 l 258 986 q 283 976 272 986 q 293 951 293 967 l 293 482 l 506 699 q 526 715 517 708 q 554 722 535 722 l 713 722 q 734 713 725 722 q 743 692 743 704 q 740 679 743 686 q 731 668 738 672 l 463 399 l 765 53 q 776 31 776 42 q 768 9 776 18 q 746 0 760 0 l 585 0 q 555 7 564 0 q 535 24 546 14 l 293 296 l 293 35 q 283 10 293 19 q 258 0 272 0 l 122 0 z "},"l":{"ha":383,"x_min":88,"x_max":296,"o":"m 122 0 q 97 10 107 0 q 88 35 88 19 l 88 951 q 97 976 88 967 q 122 986 107 986 l 261 986 q 286 976 276 986 q 296 951 296 967 l 296 35 q 286 10 296 19 q 261 0 276 0 l 122 0 z "},"m":{"ha":1263,"x_min":86,"x_max":1183,"o":"m 121 0 q 97 10 107 0 q 86 35 86 19 l 86 688 q 97 713 86 703 q 121 722 107 722 l 250 722 q 275 713 265 722 q 285 688 285 703 l 285 640 q 363 707 314 679 q 481 736 413 735 q 701 614 640 739 q 793 702 733 668 q 925 736 853 736 q 1056 703 997 736 q 1149 603 1114 671 q 1183 431 1183 536 l 1183 35 q 1173 10 1183 19 q 1149 0 1163 0 l 1011 0 q 986 10 996 0 q 976 35 976 19 l 976 419 q 960 508 976 476 q 917 555 944 540 q 857 569 890 569 q 801 555 828 569 q 756 508 774 540 q 739 419 739 476 l 739 35 q 729 10 739 19 q 706 0 719 0 l 568 0 q 543 10 553 0 q 533 35 533 19 l 533 419 q 517 508 533 476 q 473 555 500 540 q 414 569 446 569 q 358 555 385 569 q 313 508 331 540 q 296 421 296 476 l 296 35 q 286 10 296 19 q 261 0 276 0 l 121 0 z "},"n":{"ha":879,"x_min":86,"x_max":800,"o":"m 121 0 q 97 10 107 0 q 86 35 86 19 l 86 688 q 97 713 86 703 q 121 722 107 722 l 257 722 q 282 713 272 722 q 292 688 292 703 l 292 633 q 385 707 328 678 q 524 736 443 736 q 668 699 606 736 q 765 592 731 663 q 800 422 800 522 l 800 35 q 790 10 800 19 q 765 0 781 0 l 618 0 q 593 10 603 0 q 583 35 583 19 l 583 414 q 548 528 583 488 q 444 569 513 569 q 341 528 379 569 q 303 414 303 488 l 303 35 q 293 10 303 19 q 268 0 283 0 l 121 0 z "},"o":{"ha":835,"x_min":60,"x_max":776,"o":"m 418 -14 q 225 24 303 -14 q 106 133 147 63 q 61 299 65 204 q 60 362 60 326 q 61 424 60 397 q 108 590 65 519 q 229 698 151 660 q 418 736 307 736 q 606 698 528 736 q 726 590 683 660 q 775 424 769 519 q 776 362 776 397 q 775 299 776 326 q 728 133 769 204 q 610 24 688 63 q 418 -14 532 -14 m 418 140 q 520 182 486 140 q 558 306 554 224 q 560 361 560 326 q 558 417 560 396 q 520 540 554 497 q 418 582 486 582 q 315 540 350 582 q 276 417 281 497 q 275 361 275 396 q 276 306 275 326 q 315 182 281 224 q 418 140 350 140 z "},"p":{"ha":864,"x_min":88,"x_max":806,"o":"m 122 -264 q 97 -254 107 -264 q 88 -229 88 -244 l 88 688 q 97 713 88 703 q 122 722 107 722 l 254 722 q 279 713 269 722 q 289 688 289 703 l 289 635 q 376 708 322 679 q 508 736 429 736 q 633 713 579 736 q 723 648 686 690 q 781 546 760 606 q 804 411 801 486 q 806 361 806 385 q 804 310 806 338 q 781 179 801 239 q 724 76 761 119 q 633 10 686 33 q 508 -14 579 -14 q 385 12 436 -14 q 300 82 333 38 l 300 -229 q 290 -254 300 -244 q 265 -264 281 -264 l 122 -264 m 444 153 q 528 176 497 153 q 572 236 558 199 q 588 318 585 274 q 588 404 590 361 q 572 486 585 449 q 528 547 558 524 q 444 569 497 569 q 362 546 393 569 q 316 486 331 522 q 300 408 301 450 q 299 357 299 383 q 300 304 299 331 q 317 231 301 265 q 364 175 332 197 q 444 153 396 153 z "},"q":{"ha":864,"x_min":60,"x_max":776,"o":"m 599 -264 q 575 -254 585 -264 q 565 -229 565 -244 l 565 82 q 480 12 532 38 q 357 -14 428 -14 q 232 10 286 -14 q 140 76 178 33 q 83 179 103 119 q 61 310 64 239 q 60 361 60 338 q 61 411 60 385 q 84 546 64 486 q 141 648 104 606 q 232 713 178 690 q 357 736 286 736 q 489 708 435 736 q 575 635 543 679 l 575 688 q 585 713 575 703 q 610 722 594 722 l 743 722 q 767 713 757 722 q 776 688 776 703 l 776 -229 q 767 -254 776 -244 q 743 -264 757 -264 l 599 -264 m 419 153 q 501 175 469 153 q 548 231 532 197 q 565 304 564 265 q 567 357 567 331 q 565 408 567 383 q 549 486 564 450 q 503 546 533 522 q 419 569 472 569 q 338 547 368 569 q 294 486 307 524 q 278 404 281 449 q 278 318 274 361 q 294 236 281 274 q 338 176 307 199 q 419 153 368 153 z "},"r":{"ha":606,"x_min":86,"x_max":589,"o":"m 121 0 q 97 10 107 0 q 86 35 86 19 l 86 688 q 97 712 86 701 q 121 722 107 722 l 257 722 q 282 712 272 722 q 292 688 292 701 l 292 632 q 378 699 326 675 q 494 722 429 722 l 554 722 q 579 713 569 722 q 589 688 589 703 l 589 567 q 579 543 589 553 q 554 533 569 533 l 433 533 q 337 499 371 533 q 303 403 303 464 l 303 35 q 292 10 303 19 q 268 0 282 0 l 121 0 z "},"s":{"ha":754,"x_min":46,"x_max":707,"o":"m 372 -14 q 224 6 286 -14 q 124 56 163 26 q 67 115 86 85 q 47 165 49 144 q 57 190 46 181 q 79 200 68 200 l 214 200 q 223 199 219 200 q 232 192 226 197 q 269 163 250 179 q 314 136 288 147 q 378 125 340 125 q 455 144 424 125 q 486 197 486 163 q 472 239 486 222 q 418 269 458 256 q 299 300 378 283 q 171 344 224 317 q 92 415 118 372 q 65 517 65 457 q 99 621 65 571 q 200 703 133 671 q 367 736 267 736 q 501 717 443 736 q 597 670 558 699 q 656 612 636 642 q 678 560 676 582 q 669 535 679 544 q 647 525 660 525 l 524 525 q 511 528 517 525 q 501 535 506 531 q 467 560 485 544 q 426 586 450 575 q 365 597 403 597 q 297 577 321 597 q 272 526 272 557 q 285 490 272 507 q 335 460 297 474 q 454 431 374 446 q 604 381 549 414 q 683 303 660 347 q 707 210 707 260 q 669 94 707 144 q 556 15 631 43 q 372 -14 481 -14 z "},"t":{"ha":622,"x_min":21,"x_max":590,"o":"m 435 0 q 288 28 349 0 q 196 117 228 57 q 164 267 164 176 l 164 558 l 56 558 q 31 568 40 558 q 21 592 21 578 l 21 688 q 31 713 21 703 q 56 722 40 722 l 164 722 l 164 951 q 174 976 164 967 q 199 986 185 986 l 336 986 q 360 976 350 986 q 369 951 369 967 l 369 722 l 543 722 q 568 713 558 722 q 578 688 578 703 l 578 592 q 568 568 578 578 q 543 558 558 558 l 369 558 l 369 283 q 389 201 369 231 q 454 171 408 171 l 556 171 q 581 161 571 171 q 590 138 590 151 l 590 35 q 581 10 590 19 q 556 0 571 0 l 435 0 z "},"u":{"ha":876,"x_min":79,"x_max":789,"o":"m 353 -14 q 210 23 272 -14 q 114 130 149 60 q 79 300 79 200 l 79 688 q 90 713 79 703 q 114 722 100 722 l 263 722 q 286 713 276 722 q 296 688 296 703 l 296 308 q 432 153 296 153 q 535 194 497 153 q 574 308 574 235 l 574 688 q 583 713 574 703 q 608 722 593 722 l 756 722 q 779 713 769 722 q 789 688 789 703 l 789 35 q 779 10 789 19 q 756 0 769 0 l 618 0 q 594 10 604 0 q 585 35 585 19 l 585 89 q 492 13 549 39 q 353 -14 435 -14 z "},"v":{"ha":811,"x_min":31,"x_max":781,"o":"m 343 0 q 312 10 322 0 q 294 35 301 21 l 33 679 q 31 692 31 685 q 40 713 31 704 q 61 722 49 722 l 196 722 q 223 713 214 722 q 235 694 232 703 l 406 238 l 576 694 q 589 713 581 703 q 615 722 597 722 l 750 722 q 772 713 763 722 q 781 692 781 704 q 779 679 781 685 l 518 35 q 501 10 513 21 q 468 0 490 0 l 343 0 z "},"w":{"ha":1151,"x_min":39,"x_max":1113,"o":"m 286 0 q 256 10 267 0 q 240 35 246 19 l 42 678 q 39 692 39 685 q 48 713 39 704 q 69 722 57 722 l 193 722 q 219 713 210 722 q 232 694 229 703 l 358 267 l 493 692 q 506 712 496 701 q 536 722 517 722 l 615 722 q 645 712 635 722 q 658 692 656 701 l 793 267 l 919 694 q 931 713 921 703 q 958 722 940 722 l 1082 722 q 1103 713 1094 722 q 1113 692 1113 704 q 1110 678 1113 685 l 911 35 q 896 10 906 19 q 865 0 886 0 l 758 0 q 728 10 739 0 q 711 35 717 19 l 576 444 l 440 35 q 424 10 435 19 q 393 0 414 0 l 286 0 z "},"x":{"ha":800,"x_min":26,"x_max":772,"o":"m 57 0 q 35 9 44 0 q 26 31 26 18 q 28 41 26 35 q 35 53 31 47 l 269 371 l 54 669 q 48 681 50 675 q 46 692 46 686 q 55 713 46 704 q 76 722 64 722 l 221 722 q 247 714 239 722 q 261 699 256 706 l 403 506 l 546 697 q 560 713 551 704 q 586 722 568 722 l 725 722 q 747 713 738 722 q 756 692 756 704 q 753 681 756 686 q 747 669 751 675 l 528 369 l 764 53 q 771 42 769 47 q 772 31 772 36 q 763 9 772 18 q 742 0 754 0 l 590 0 q 565 8 574 0 q 551 22 557 15 l 399 228 l 243 22 q 229 8 238 17 q 204 0 221 0 l 57 0 z "},"y":{"ha":814,"x_min":33,"x_max":789,"o":"m 219 -264 q 199 -256 208 -264 q 190 -235 190 -247 q 192 -227 190 -232 q 196 -215 193 -222 l 304 44 l 38 674 q 33 692 33 685 q 43 713 35 704 q 64 722 51 722 l 200 722 q 225 713 217 722 q 238 694 233 704 l 410 265 l 586 694 q 600 714 592 706 q 626 722 608 722 l 758 722 q 780 713 771 722 q 789 693 789 704 q 785 674 789 686 l 392 -236 q 377 -256 386 -247 q 350 -264 368 -264 l 219 -264 z "},"z":{"ha":753,"x_min":54,"x_max":706,"o":"m 88 0 q 64 10 74 0 q 54 35 54 19 l 54 128 q 60 153 54 142 q 75 174 67 165 l 415 560 l 100 560 q 75 569 85 560 q 65 594 65 579 l 65 688 q 75 713 65 703 q 100 722 85 722 l 643 722 q 667 713 657 722 q 676 688 676 703 l 676 586 q 671 565 676 575 q 657 544 665 554 l 325 163 l 671 163 q 696 153 686 163 q 706 128 706 143 l 706 35 q 696 10 706 19 q 671 0 686 0 l 88 0 z "},"!":{"ha":388,"x_min":85,"x_max":303,"o":"m 126 288 q 101 298 111 288 q 92 322 92 308 l 92 938 q 101 963 92 953 q 126 972 111 972 l 263 972 q 286 963 276 972 q 296 938 296 953 l 296 322 q 286 298 296 308 q 263 288 276 288 l 126 288 m 118 0 q 94 10 104 0 q 85 35 85 19 l 85 185 q 94 209 85 199 q 118 219 104 219 l 268 219 q 293 209 283 219 q 303 185 303 199 l 303 35 q 293 10 303 19 q 268 0 283 0 l 118 0 z "},"¡":{"ha":378,"x_min":81,"x_max":299,"o":"m 258 432 q 282 422 272 432 q 292 397 292 411 l 292 -218 q 282 -243 292 -233 q 258 -253 272 -253 l 122 -253 q 97 -243 107 -253 q 88 -218 88 -233 l 88 397 q 97 422 88 411 q 122 432 107 432 l 258 432 m 265 719 q 289 710 279 719 q 299 685 299 700 l 299 535 q 289 510 299 521 q 265 500 279 500 l 115 500 q 90 510 100 500 q 81 535 81 521 l 81 685 q 90 710 81 700 q 115 719 100 719 l 265 719 z "},"?":{"ha":806,"x_min":40,"x_max":764,"o":"m 328 278 q 308 285 317 278 q 300 306 300 293 q 300 324 300 315 q 300 343 300 333 q 331 435 307 394 q 388 511 356 476 q 453 576 421 546 q 506 636 485 606 q 531 697 528 667 q 517 757 535 732 q 470 794 500 782 q 407 807 440 807 q 310 778 347 807 q 258 688 272 749 q 244 663 254 672 q 217 654 235 654 l 72 654 q 50 665 60 654 q 40 690 40 675 q 67 799 42 746 q 140 894 92 851 q 258 961 189 936 q 419 986 328 986 q 586 961 519 986 q 692 897 653 936 q 747 812 731 857 q 763 726 764 767 q 740 634 760 675 q 692 558 721 593 q 632 491 663 524 q 576 426 601 458 q 542 356 551 393 q 537 334 539 344 q 533 313 535 324 q 517 287 526 296 q 493 278 508 278 l 328 278 m 328 0 q 303 10 313 0 q 293 35 293 19 l 293 174 q 303 198 293 188 q 328 208 313 208 l 483 208 q 508 198 499 208 q 518 174 518 188 l 518 35 q 508 10 518 19 q 483 0 499 0 l 328 0 z "},"¿":{"ha":799,"x_min":38,"x_max":761,"o":"m 474 443 q 494 435 486 443 q 503 415 503 428 q 503 397 503 406 q 501 378 503 388 q 470 285 494 326 q 414 210 446 244 q 350 144 382 175 q 296 85 318 114 q 271 24 274 56 q 285 -36 268 -11 q 332 -74 303 -61 q 394 -86 361 -86 q 492 -56 456 -86 q 543 33 529 -26 q 559 58 549 50 q 585 67 569 67 l 729 67 q 752 56 743 67 q 761 31 761 46 q 735 -78 760 -25 q 662 -173 710 -131 q 544 -240 614 -215 q 382 -265 474 -265 q 215 -240 282 -265 q 110 -176 149 -215 q 54 -91 71 -136 q 40 -6 38 -46 q 61 87 42 46 q 110 163 81 128 q 169 230 139 197 q 225 295 200 263 q 261 365 250 328 q 265 387 263 376 q 268 408 267 397 q 285 434 276 425 q 310 443 293 443 l 474 443 m 475 721 q 499 711 489 721 q 508 686 508 701 l 508 547 q 499 522 508 532 q 475 513 489 513 l 318 513 q 294 522 304 513 q 283 547 283 532 l 283 686 q 294 711 283 701 q 318 721 304 721 l 475 721 z "},",":{"ha":376,"x_min":51,"x_max":310,"o":"m 78 -104 q 58 -95 65 -104 q 53 -74 51 -86 l 92 179 q 106 212 94 197 q 139 226 117 226 l 285 226 q 303 218 296 226 q 310 200 310 210 q 307 182 310 190 l 210 -67 q 194 -92 204 -81 q 161 -104 183 -104 l 78 -104 z "},".":{"ha":383,"x_min":79,"x_max":306,"o":"m 114 0 q 89 10 99 0 q 79 35 79 19 l 79 192 q 89 216 79 206 q 114 226 99 226 l 271 226 q 295 216 285 226 q 306 192 306 206 l 306 35 q 295 10 306 19 q 271 0 285 0 l 114 0 z "},":":{"ha":393,"x_min":83,"x_max":310,"o":"m 118 486 q 93 496 103 486 q 83 521 83 506 l 83 669 q 93 694 83 685 q 118 704 103 704 l 275 704 q 299 694 289 704 q 310 669 310 685 l 310 521 q 299 496 310 506 q 275 486 289 486 l 118 486 m 118 0 q 93 10 103 0 q 83 35 83 19 l 83 183 q 93 208 83 199 q 118 218 103 218 l 275 218 q 299 208 289 218 q 310 183 310 199 l 310 35 q 299 10 310 19 q 275 0 289 0 l 118 0 z "},";":{"ha":407,"x_min":63,"x_max":328,"o":"m 89 -104 q 69 -95 76 -104 q 64 -74 63 -86 l 103 179 q 117 212 106 197 q 150 226 128 226 l 296 226 q 314 218 307 226 q 321 200 321 210 q 318 182 321 190 l 221 -67 q 205 -92 215 -81 q 172 -104 194 -104 l 89 -104 m 136 486 q 111 496 121 486 q 101 521 101 506 l 101 669 q 111 694 101 685 q 136 704 121 704 l 293 704 q 317 694 307 704 q 328 669 328 685 l 328 521 q 317 496 328 506 q 293 486 307 486 l 136 486 z "},"…":{"ha":985,"x_min":79,"x_max":907,"o":"m 113 0 q 89 10 99 0 q 79 35 79 19 l 79 176 q 89 201 79 192 q 113 211 99 211 l 256 211 q 280 201 269 211 q 290 176 290 192 l 290 35 q 280 10 290 19 q 256 0 269 0 l 113 0 m 421 0 q 397 10 407 0 q 388 35 388 19 l 388 176 q 397 201 388 192 q 421 211 407 211 l 564 211 q 589 201 579 211 q 599 176 599 192 l 599 35 q 589 10 599 19 q 564 0 579 0 l 421 0 m 731 0 q 706 10 715 0 q 696 35 696 19 l 696 176 q 706 201 696 192 q 731 211 715 211 l 872 211 q 897 201 888 211 q 907 176 907 192 l 907 35 q 897 10 907 19 q 872 0 888 0 l 731 0 z "},"·":{"ha":458,"x_min":61,"x_max":397,"o":"m 229 285 q 145 308 183 285 q 84 369 107 331 q 61 453 61 407 q 84 537 61 499 q 145 597 107 575 q 229 619 183 619 q 314 597 276 619 q 374 537 351 575 q 397 453 397 499 q 374 369 397 407 q 314 308 351 331 q 229 285 276 285 z "},"-":{"ha":665,"x_min":83,"x_max":582,"o":"m 117 326 q 93 336 103 326 q 83 361 83 346 l 83 472 q 93 497 83 488 q 117 507 103 507 l 549 507 q 572 497 563 507 q 582 472 582 488 l 582 361 q 572 336 582 346 q 549 326 563 326 l 117 326 z "},"'":{"ha":328,"x_min":60,"x_max":268,"o":"m 128 633 q 102 644 110 633 q 92 669 94 656 l 63 947 q 69 976 60 965 q 94 986 79 986 l 233 986 q 259 976 250 986 q 265 947 268 965 l 236 669 q 227 644 235 656 q 200 633 219 633 l 128 633 z "},"\"":{"ha":600,"x_min":60,"x_max":540,"o":"m 400 633 q 374 644 382 633 q 364 669 367 656 l 335 947 q 341 976 332 965 q 367 986 350 986 l 506 986 q 531 976 522 986 q 538 947 540 965 l 508 669 q 499 644 507 656 q 472 633 492 633 l 400 633 m 128 633 q 102 644 110 633 q 92 669 94 656 l 63 947 q 69 976 60 965 q 94 986 79 986 l 233 986 q 259 976 250 986 q 265 947 268 965 l 236 669 q 227 644 235 656 q 200 633 219 633 l 128 633 z "},"‘":{"ha":363,"x_min":50,"x_max":311,"o":"m 76 656 q 58 664 65 656 q 50 682 50 672 q 54 700 50 692 l 151 949 q 167 974 157 963 q 199 986 178 986 l 283 986 q 303 978 294 986 q 308 954 311 969 l 269 703 q 255 670 267 685 q 221 656 243 656 l 76 656 z "},"’":{"ha":354,"x_min":61,"x_max":321,"o":"m 89 656 q 69 664 76 656 q 63 688 61 672 l 103 940 q 117 972 106 958 q 150 986 128 986 l 294 986 q 313 978 306 986 q 321 960 321 969 q 317 943 321 950 l 221 693 q 205 667 215 679 q 172 656 194 656 l 89 656 z "},"‚":{"ha":376,"x_min":50,"x_max":310,"o":"m 76 -104 q 57 -96 64 -104 q 51 -72 50 -87 l 92 179 q 106 212 94 197 q 139 226 117 226 l 283 226 q 302 218 294 226 q 310 200 310 210 q 306 182 310 190 l 210 -67 q 193 -92 204 -81 q 161 -104 182 -104 l 76 -104 z "},"“":{"ha":647,"x_min":50,"x_max":596,"o":"m 361 656 q 342 664 350 656 q 335 682 335 672 q 339 700 335 692 l 436 949 q 452 974 442 963 q 485 986 463 986 l 568 986 q 588 977 579 986 q 593 954 596 968 l 554 703 q 540 670 551 685 q 506 656 529 656 l 361 656 m 76 656 q 58 664 65 656 q 50 682 50 672 q 54 700 50 692 l 151 949 q 167 974 157 963 q 199 986 178 986 l 283 986 q 303 977 294 986 q 308 954 311 968 l 269 703 q 255 670 267 685 q 221 656 243 656 l 76 656 z "},"”":{"ha":639,"x_min":61,"x_max":606,"o":"m 374 656 q 354 665 361 656 q 349 688 347 674 l 388 940 q 401 972 390 958 q 435 986 413 986 l 579 986 q 598 978 590 986 q 606 960 606 969 q 603 943 606 950 l 506 693 q 490 667 500 679 q 457 656 479 656 l 374 656 m 89 656 q 69 665 76 656 q 63 688 61 674 l 103 940 q 117 972 106 958 q 150 986 128 986 l 294 986 q 313 978 306 986 q 321 960 321 969 q 317 943 321 950 l 221 693 q 205 667 215 679 q 172 656 194 656 l 89 656 z "},"„":{"ha":661,"x_min":50,"x_max":594,"o":"m 363 -104 q 343 -95 350 -104 q 338 -74 336 -86 l 376 179 q 390 212 379 197 q 424 226 401 226 l 568 226 q 587 218 579 226 q 594 200 594 210 q 592 182 594 190 l 494 -67 q 478 -92 489 -81 q 446 -104 468 -104 l 363 -104 m 76 -104 q 58 -95 65 -104 q 51 -72 50 -86 l 92 179 q 106 212 94 197 q 139 226 117 226 l 283 226 q 302 218 294 226 q 310 200 310 210 q 306 182 310 190 l 210 -67 q 193 -92 204 -81 q 161 -104 182 -104 l 76 -104 z "},"(":{"ha":518,"x_min":64,"x_max":485,"o":"m 451 -221 q 285 -184 357 -221 q 163 -69 213 -147 q 89 133 114 10 q 64 429 64 257 q 89 726 64 603 q 163 926 114 849 q 285 1041 213 1004 q 451 1078 357 1078 q 475 1067 465 1078 q 485 1043 485 1057 l 485 943 q 475 919 485 929 q 453 910 465 910 q 358 876 396 907 q 297 785 319 844 q 264 636 274 725 q 254 429 254 547 q 264 222 254 311 q 297 72 274 132 q 358 -19 319 13 q 453 -53 396 -50 q 475 -62 465 -53 q 485 -86 485 -72 l 485 -186 q 475 -210 485 -200 q 451 -221 465 -221 z "},")":{"ha":518,"x_min":32,"x_max":454,"o":"m 67 -221 q 42 -210 53 -221 q 32 -186 32 -200 l 32 -86 q 42 -62 32 -72 q 65 -53 53 -53 q 160 -19 122 -50 q 221 72 199 13 q 253 222 243 132 q 263 429 263 311 q 253 636 263 547 q 221 785 243 725 q 160 876 199 844 q 65 910 122 907 q 42 919 53 910 q 32 943 32 929 l 32 1043 q 42 1067 32 1057 q 67 1078 53 1078 q 233 1041 161 1078 q 355 926 306 1004 q 429 726 404 849 q 454 429 454 603 q 429 133 454 257 q 355 -69 404 10 q 233 -184 306 -147 q 67 -221 161 -221 z "},"[":{"ha":513,"x_min":89,"x_max":476,"o":"m 124 -221 q 99 -211 108 -221 q 89 -186 89 -201 l 89 1043 q 99 1068 89 1058 q 124 1078 108 1078 l 442 1078 q 467 1068 457 1078 q 476 1043 476 1058 l 476 942 q 467 918 476 928 q 442 908 457 908 l 281 908 l 281 -37 l 442 -37 q 467 -47 457 -37 q 476 -72 476 -57 l 476 -186 q 467 -211 476 -201 q 442 -221 457 -221 l 124 -221 z "},"]":{"ha":513,"x_min":36,"x_max":422,"o":"m 71 -221 q 46 -211 56 -221 q 36 -186 36 -201 l 36 -72 q 46 -47 36 -57 q 71 -37 56 -37 l 231 -37 l 231 908 l 71 908 q 46 918 56 908 q 36 942 36 928 l 36 1043 q 46 1068 36 1058 q 71 1078 56 1078 l 389 1078 q 413 1068 403 1078 q 422 1043 422 1058 l 422 -186 q 413 -211 422 -201 q 389 -221 403 -221 l 71 -221 z "},"{":{"ha":571,"x_min":21,"x_max":536,"o":"m 499 -219 q 353 -194 418 -219 q 242 -119 288 -169 q 174 7 197 -68 q 150 182 150 82 q 131 283 150 243 q 74 344 113 324 l 57 351 q 21 407 21 372 l 21 451 q 57 507 21 486 l 74 514 q 132 576 114 536 q 150 676 150 615 q 174 851 150 776 q 242 976 197 926 q 352 1051 288 1026 q 497 1078 417 1076 l 506 1078 q 528 1069 519 1078 q 536 1047 536 1060 l 536 940 q 528 918 536 926 q 508 910 519 910 l 503 910 q 407 879 442 906 q 356 798 372 853 q 340 654 340 743 q 313 510 340 568 q 238 429 285 451 q 292 383 269 415 q 328 304 315 350 q 340 204 340 258 q 356 61 340 117 q 406 -20 371 6 q 501 -51 442 -46 l 508 -51 q 528 -61 519 -53 q 536 -82 536 -69 l 536 -189 q 528 -211 536 -203 q 506 -219 519 -219 l 499 -219 z "},"}":{"ha":571,"x_min":35,"x_max":550,"o":"m 72 1078 q 219 1051 154 1076 q 328 976 283 1026 q 397 851 374 926 q 421 676 421 776 q 440 574 421 614 q 497 513 458 535 l 514 506 q 550 451 550 486 l 550 406 q 514 351 550 371 l 497 343 q 439 282 457 322 q 421 182 421 242 q 397 6 421 81 q 328 -118 374 -68 q 219 -194 283 -168 q 74 -219 154 -219 l 65 -219 q 43 -211 51 -219 q 35 -189 35 -203 l 35 -82 q 43 -61 35 -69 q 63 -51 51 -53 l 68 -51 q 165 -21 129 -47 q 215 60 200 6 q 231 203 231 115 q 258 348 231 290 q 333 429 286 406 q 279 476 303 444 q 243 553 256 508 q 231 654 231 599 q 215 797 231 743 q 165 878 200 851 q 69 908 131 906 l 63 910 q 43 918 51 910 q 35 940 35 926 l 35 1047 q 43 1069 35 1060 q 65 1078 51 1078 l 72 1078 z "},"&":{"ha":1014,"x_min":65,"x_max":985,"o":"m 411 -14 q 229 20 307 -14 q 108 118 151 54 q 65 268 65 182 q 90 376 65 329 q 157 462 114 424 q 256 532 200 500 q 174 643 199 593 q 150 746 150 693 q 183 864 150 810 q 282 952 217 918 q 442 986 347 986 q 593 953 531 986 q 689 867 656 921 q 722 749 722 813 q 697 647 722 692 q 627 565 672 601 q 525 496 582 529 l 707 315 q 742 379 721 338 q 779 486 763 421 q 808 508 783 508 l 929 508 q 949 501 942 508 q 957 481 957 493 q 945 419 957 454 q 914 344 933 383 q 872 268 894 306 q 824 199 849 231 l 975 46 q 985 25 985 35 q 978 7 985 14 q 958 0 971 0 l 799 0 q 776 5 785 0 q 761 14 768 10 l 692 81 q 567 10 636 33 q 411 -14 499 -14 m 411 146 q 498 161 457 146 q 574 208 539 176 l 369 410 q 295 353 326 386 q 264 275 264 321 q 285 206 264 235 q 340 161 307 176 q 411 146 374 146 m 417 613 q 481 649 451 631 q 526 691 510 668 q 543 743 543 714 q 515 811 543 786 q 442 836 486 836 q 371 811 401 836 q 340 743 340 786 q 347 705 340 724 q 372 664 354 686 q 417 613 389 642 z "},"Á":{"ha":978,"x_min":17,"x_max":963,"o":"m 46 0 q 25 9 33 0 q 17 29 17 18 q 18 42 17 36 l 349 935 q 365 961 353 950 q 400 972 378 972 l 578 972 q 613 961 600 972 q 631 935 625 950 l 960 42 q 963 29 963 36 q 953 9 963 18 q 932 0 944 0 l 786 0 q 757 10 767 0 q 744 28 747 19 l 685 183 l 293 183 l 235 28 q 222 10 231 19 q 192 0 213 0 l 46 0 m 346 363 l 632 363 l 489 761 l 346 363 m 414 1042 q 392 1064 392 1042 q 399 1082 392 1075 l 517 1225 q 540 1247 529 1242 q 568 1251 550 1251 l 739 1251 q 765 1224 765 1251 q 758 1207 765 1214 l 579 1061 q 558 1047 568 1051 q 529 1042 547 1042 l 414 1042 z "},"Ă":{"ha":978,"x_min":17,"x_max":963,"o":"m 46 0 q 25 9 33 0 q 17 29 17 18 q 18 42 17 36 l 349 935 q 365 961 353 950 q 400 972 378 972 l 578 972 q 613 961 600 972 q 631 935 625 950 l 960 42 q 963 29 963 36 q 953 9 963 18 q 932 0 944 0 l 786 0 q 757 10 767 0 q 744 28 747 19 l 685 183 l 293 183 l 235 28 q 222 10 231 19 q 192 0 213 0 l 46 0 m 346 363 l 632 363 l 489 761 l 346 363 m 490 1032 q 372 1058 417 1032 q 306 1126 326 1083 q 286 1221 286 1169 q 293 1240 286 1232 q 313 1247 300 1247 l 393 1247 q 413 1240 406 1247 q 419 1221 419 1232 q 433 1163 419 1189 q 490 1138 447 1138 q 546 1163 532 1138 q 560 1221 560 1189 q 567 1240 560 1232 q 586 1247 574 1247 l 668 1247 q 688 1240 681 1247 q 694 1221 694 1232 q 674 1126 694 1169 q 608 1058 653 1083 q 490 1032 564 1032 z "},"Â":{"ha":978,"x_min":17,"x_max":963,"o":"m 46 0 q 25 9 33 0 q 17 29 17 18 q 18 42 17 36 l 349 935 q 365 961 353 950 q 400 972 378 972 l 578 972 q 613 961 600 972 q 631 935 625 950 l 960 42 q 963 29 963 36 q 953 9 963 18 q 932 0 944 0 l 786 0 q 757 10 767 0 q 744 28 747 19 l 685 183 l 293 183 l 235 28 q 222 10 231 19 q 192 0 213 0 l 46 0 m 346 363 l 632 363 l 489 761 l 346 363 m 263 1042 q 242 1061 242 1042 q 253 1083 242 1072 l 392 1228 q 417 1247 407 1243 q 440 1251 428 1251 l 540 1251 q 563 1247 553 1251 q 588 1228 574 1243 l 726 1083 q 738 1061 738 1072 q 717 1042 738 1042 l 656 1042 q 631 1044 643 1042 q 610 1051 619 1046 l 490 1122 l 369 1051 q 348 1044 360 1046 q 325 1042 336 1042 l 263 1042 z "},"Ä":{"ha":978,"x_min":17,"x_max":963,"o":"m 46 0 q 25 9 33 0 q 17 29 17 18 q 18 42 17 36 l 349 935 q 365 961 353 950 q 400 972 378 972 l 578 972 q 613 961 600 972 q 631 935 625 950 l 960 42 q 963 29 963 36 q 953 9 963 18 q 932 0 944 0 l 786 0 q 757 10 767 0 q 744 28 747 19 l 685 183 l 293 183 l 235 28 q 222 10 231 19 q 192 0 213 0 l 46 0 m 346 363 l 632 363 l 489 761 l 346 363 m 590 1042 q 567 1050 575 1042 q 558 1074 558 1058 l 558 1188 q 567 1210 558 1201 q 590 1219 575 1219 l 704 1219 q 727 1210 718 1219 q 736 1188 736 1201 l 736 1074 q 727 1050 736 1058 q 704 1042 718 1042 l 590 1042 m 274 1042 q 251 1050 260 1042 q 243 1074 243 1058 l 243 1188 q 251 1210 243 1201 q 274 1219 260 1219 l 389 1219 q 412 1210 403 1219 q 421 1188 421 1201 l 421 1074 q 412 1050 421 1058 q 389 1042 403 1042 l 274 1042 z "},"À":{"ha":978,"x_min":17,"x_max":963,"o":"m 46 0 q 25 9 33 0 q 17 29 17 18 q 18 42 17 36 l 349 935 q 365 961 353 950 q 400 972 378 972 l 578 972 q 613 961 600 972 q 631 935 625 950 l 960 42 q 963 29 963 36 q 953 9 963 18 q 932 0 944 0 l 786 0 q 757 10 767 0 q 744 28 747 19 l 685 183 l 293 183 l 235 28 q 222 10 231 19 q 192 0 213 0 l 46 0 m 346 363 l 632 363 l 489 761 l 346 363 m 454 1042 q 426 1047 436 1042 q 404 1061 415 1051 l 225 1207 q 218 1224 218 1214 q 244 1251 218 1251 l 415 1251 q 444 1247 433 1251 q 467 1225 454 1242 l 585 1082 q 592 1064 592 1075 q 569 1042 592 1042 l 454 1042 z "},"Ā":{"ha":978,"x_min":17,"x_max":963,"o":"m 46 0 q 25 9 33 0 q 17 29 17 18 q 18 42 17 36 l 349 935 q 365 961 353 950 q 400 972 378 972 l 578 972 q 613 961 600 972 q 631 935 625 950 l 960 42 q 963 29 963 36 q 953 9 963 18 q 932 0 944 0 l 786 0 q 757 10 767 0 q 744 28 747 19 l 685 183 l 293 183 l 235 28 q 222 10 231 19 q 192 0 213 0 l 46 0 m 346 363 l 632 363 l 489 761 l 346 363 m 286 1042 q 264 1050 272 1042 q 256 1074 256 1058 l 256 1163 q 264 1185 256 1176 q 286 1193 272 1193 l 690 1193 q 713 1185 704 1193 q 722 1163 722 1176 l 722 1074 q 713 1050 722 1058 q 690 1042 704 1042 l 286 1042 z "},"Ą":{"ha":978,"x_min":17,"x_max":963,"o":"m 890 -306 q 772 -278 819 -306 q 701 -201 725 -250 q 678 -90 678 -153 q 699 -8 678 -42 q 753 38 719 25 q 738 47 743 40 q 731 60 733 54 l 685 183 l 293 183 l 235 28 q 222 10 231 19 q 192 0 213 0 l 46 0 q 25 9 33 0 q 17 29 17 18 q 18 42 17 36 l 349 935 q 365 961 353 950 q 400 972 378 972 l 578 972 q 613 961 600 972 q 631 935 625 950 l 960 42 q 963 29 963 36 q 953 9 963 18 q 932 0 944 0 l 890 0 q 830 -28 851 -1 q 808 -90 808 -54 q 831 -153 808 -128 q 896 -179 853 -179 l 913 -179 q 937 -190 926 -179 q 947 -214 947 -200 l 947 -271 q 937 -296 947 -286 q 913 -306 926 -306 l 890 -306 m 346 363 l 632 363 l 489 761 l 346 363 z "},"Å":{"ha":978,"x_min":17,"x_max":963,"o":"m 46 0 q 25 9 33 0 q 17 29 17 18 q 18 42 17 36 l 349 935 q 365 961 353 950 q 400 972 378 972 l 578 972 q 613 961 600 972 q 631 935 625 950 l 960 42 q 963 29 963 36 q 953 9 963 18 q 932 0 944 0 l 786 0 q 757 10 767 0 q 744 28 747 19 l 685 183 l 293 183 l 235 28 q 222 10 231 19 q 192 0 213 0 l 46 0 m 346 363 l 632 363 l 489 761 l 346 363 m 489 1028 q 401 1061 438 1028 q 364 1146 364 1094 q 401 1231 364 1197 q 489 1265 438 1265 q 577 1231 540 1265 q 614 1146 614 1197 q 577 1061 614 1094 q 489 1028 540 1028 m 489 1104 q 519 1116 507 1104 q 531 1146 531 1128 q 519 1176 531 1164 q 489 1188 507 1188 q 459 1176 471 1188 q 447 1146 447 1164 q 459 1116 447 1128 q 489 1104 471 1104 z "},"Ã":{"ha":978,"x_min":17,"x_max":963,"o":"m 46 0 q 25 9 33 0 q 17 29 17 18 q 18 42 17 36 l 349 935 q 365 961 353 950 q 400 972 378 972 l 578 972 q 613 961 600 972 q 631 935 625 950 l 960 42 q 963 29 963 36 q 953 9 963 18 q 932 0 944 0 l 786 0 q 757 10 767 0 q 744 28 747 19 l 685 183 l 293 183 l 235 28 q 222 10 231 19 q 192 0 213 0 l 46 0 m 346 363 l 632 363 l 489 761 l 346 363 m 571 1035 q 509 1047 533 1035 q 465 1072 485 1060 q 421 1083 444 1083 q 394 1074 403 1083 q 379 1053 386 1064 q 357 1042 372 1042 l 283 1042 q 267 1049 274 1042 q 260 1065 260 1057 q 267 1115 260 1088 q 293 1169 275 1143 q 339 1213 311 1196 q 407 1231 367 1231 q 469 1218 444 1231 q 513 1194 493 1206 q 557 1182 533 1182 q 584 1192 576 1182 q 599 1213 592 1203 q 621 1224 606 1224 l 694 1224 q 712 1217 706 1224 q 718 1200 718 1210 q 710 1150 718 1178 q 684 1096 701 1122 q 638 1052 667 1069 q 571 1035 610 1035 z "},"Æ":{"ha":1339,"x_min":6,"x_max":1275,"o":"m 36 0 q 15 9 24 0 q 6 29 6 18 q 10 43 6 36 q 38 123 24 82 q 73 215 53 164 q 122 331 93 265 q 192 481 151 396 q 288 679 232 567 q 415 936 343 792 q 434 962 422 951 q 465 972 446 972 l 1229 972 q 1254 963 1244 972 q 1264 938 1264 953 l 1264 826 q 1254 801 1264 811 q 1229 792 1244 792 l 801 792 l 801 575 l 1199 575 q 1224 565 1214 575 q 1233 540 1233 556 l 1233 438 q 1224 413 1233 424 q 1199 403 1214 403 l 801 403 l 801 181 l 1240 181 q 1265 171 1256 181 q 1275 146 1275 161 l 1275 35 q 1265 10 1275 19 q 1240 0 1256 0 l 621 0 q 597 10 607 0 q 588 35 588 19 l 588 183 l 304 183 q 265 109 279 138 q 242 65 250 81 q 231 42 235 50 q 226 28 228 33 q 212 9 221 18 q 183 0 203 0 l 36 0 m 364 363 l 588 363 l 588 788 l 564 788 l 364 363 z "},"Ǽ":{"ha":1339,"x_min":6,"x_max":1275,"o":"m 36 0 q 15 9 24 0 q 6 29 6 18 q 10 43 6 36 q 38 123 24 82 q 73 215 53 164 q 122 331 93 265 q 192 481 151 396 q 288 679 232 567 q 415 936 343 792 q 434 962 422 951 q 465 972 446 972 l 1229 972 q 1254 963 1244 972 q 1264 938 1264 953 l 1264 826 q 1254 801 1264 811 q 1229 792 1244 792 l 801 792 l 801 575 l 1199 575 q 1224 565 1214 575 q 1233 540 1233 556 l 1233 438 q 1224 413 1233 424 q 1199 403 1214 403 l 801 403 l 801 181 l 1240 181 q 1265 171 1256 181 q 1275 146 1275 161 l 1275 35 q 1265 10 1275 19 q 1240 0 1256 0 l 621 0 q 597 10 607 0 q 588 35 588 19 l 588 183 l 304 183 q 265 109 279 138 q 242 65 250 81 q 231 42 235 50 q 226 28 228 33 q 212 9 221 18 q 183 0 203 0 l 36 0 m 364 363 l 588 363 l 588 788 l 564 788 l 364 363 m 594 1042 q 572 1064 572 1042 q 579 1082 572 1075 l 697 1225 q 720 1247 710 1242 q 749 1251 731 1251 l 919 1251 q 946 1224 946 1251 q 939 1207 946 1214 l 760 1061 q 738 1047 749 1051 q 710 1042 728 1042 l 594 1042 z "},"Ć":{"ha":963,"x_min":69,"x_max":911,"o":"m 489 -14 q 268 30 360 -14 q 126 158 176 74 q 71 363 76 242 q 69 485 69 419 q 71 610 69 550 q 127 813 76 729 q 269 942 178 897 q 489 986 361 986 q 659 963 583 986 q 790 894 735 939 q 877 790 846 850 q 910 657 908 731 q 902 636 911 644 q 881 628 893 628 l 721 628 q 694 635 704 628 q 679 663 685 643 q 610 776 658 746 q 489 806 561 806 q 354 758 404 806 q 300 603 304 711 q 300 369 296 489 q 354 214 304 261 q 489 167 404 167 q 610 197 561 167 q 679 310 660 228 q 694 337 685 329 q 721 344 704 344 l 881 344 q 902 336 893 344 q 910 315 911 328 q 877 182 908 242 q 790 78 846 122 q 659 10 735 33 q 489 -14 583 -14 m 407 1042 q 385 1064 385 1042 q 392 1082 385 1075 l 510 1225 q 533 1247 522 1242 q 561 1251 543 1251 l 732 1251 q 758 1224 758 1251 q 751 1207 758 1214 l 572 1061 q 551 1047 561 1051 q 522 1042 540 1042 l 407 1042 z "},"Č":{"ha":963,"x_min":69,"x_max":911,"o":"m 489 -14 q 268 30 360 -14 q 126 158 176 74 q 71 363 76 242 q 69 485 69 419 q 71 610 69 550 q 127 813 76 729 q 269 942 178 897 q 489 986 361 986 q 659 963 583 986 q 790 894 735 939 q 877 790 846 850 q 910 657 908 731 q 902 636 911 644 q 881 628 893 628 l 721 628 q 694 635 704 628 q 679 663 685 643 q 610 776 658 746 q 489 806 561 806 q 354 758 404 806 q 300 603 304 711 q 300 369 296 489 q 354 214 304 261 q 489 167 404 167 q 610 197 561 167 q 679 310 660 228 q 694 337 685 329 q 721 344 704 344 l 881 344 q 902 336 893 344 q 910 315 911 328 q 877 182 908 242 q 790 78 846 122 q 659 10 735 33 q 489 -14 583 -14 m 433 1042 q 410 1047 421 1042 q 385 1065 400 1051 l 246 1210 q 235 1232 235 1221 q 256 1251 235 1251 l 318 1251 q 341 1249 329 1251 q 363 1242 353 1247 l 483 1171 l 603 1242 q 624 1249 613 1247 q 649 1251 636 1251 l 710 1251 q 731 1232 731 1251 q 719 1210 731 1221 l 581 1065 q 556 1047 567 1051 q 533 1042 546 1042 l 433 1042 z "},"Ç":{"ha":963,"x_min":69,"x_max":911,"o":"m 483 -306 q 415 -293 446 -306 q 372 -264 385 -281 q 372 -235 360 -247 l 397 -212 q 419 -206 410 -201 q 442 -219 428 -211 q 483 -228 456 -228 q 518 -215 504 -228 q 532 -183 532 -203 q 519 -153 532 -165 q 483 -140 506 -140 q 451 -145 465 -140 q 426 -151 438 -150 q 404 -143 414 -153 l 378 -117 q 371 -98 369 -108 q 381 -72 372 -87 l 408 -8 q 229 51 303 4 q 116 176 156 97 q 71 363 76 254 q 69 485 69 419 q 71 610 69 550 q 127 813 76 729 q 269 942 178 897 q 489 986 361 986 q 659 963 583 986 q 790 894 735 939 q 877 790 846 850 q 910 657 908 731 q 902 636 911 644 q 881 628 893 628 l 721 628 q 694 635 704 628 q 679 663 685 643 q 610 776 658 746 q 489 806 561 806 q 354 758 404 806 q 300 603 304 711 q 300 369 296 489 q 354 214 304 261 q 489 167 404 167 q 610 197 561 167 q 679 310 660 228 q 694 337 685 329 q 721 344 704 344 l 881 344 q 902 336 893 344 q 910 315 911 328 q 877 182 908 242 q 790 78 846 122 q 659 10 735 33 q 489 -14 583 -14 l 461 -71 q 484 -65 469 -67 q 508 -62 499 -62 q 587 -96 557 -62 q 617 -182 617 -129 q 582 -270 617 -235 q 483 -306 547 -306 z "},"Ĉ":{"ha":963,"x_min":69,"x_max":911,"o":"m 489 -14 q 268 30 360 -14 q 126 158 176 74 q 71 363 76 242 q 69 485 69 419 q 71 610 69 550 q 127 813 76 729 q 269 942 178 897 q 489 986 361 986 q 659 963 583 986 q 790 894 735 939 q 877 790 846 850 q 910 657 908 731 q 902 636 911 644 q 881 628 893 628 l 721 628 q 694 635 704 628 q 679 663 685 643 q 610 776 658 746 q 489 806 561 806 q 354 758 404 806 q 300 603 304 711 q 300 369 296 489 q 354 214 304 261 q 489 167 404 167 q 610 197 561 167 q 679 310 660 228 q 694 337 685 329 q 721 344 704 344 l 881 344 q 902 336 893 344 q 910 315 911 328 q 877 182 908 242 q 790 78 846 122 q 659 10 735 33 q 489 -14 583 -14 m 256 1042 q 235 1061 235 1042 q 246 1083 235 1072 l 385 1228 q 410 1247 400 1243 q 433 1251 421 1251 l 533 1251 q 556 1247 546 1251 q 581 1228 567 1243 l 719 1083 q 731 1061 731 1072 q 710 1042 731 1042 l 649 1042 q 624 1044 636 1042 q 603 1051 613 1046 l 483 1122 l 363 1051 q 341 1044 353 1046 q 318 1042 329 1042 l 256 1042 z "},"Ċ":{"ha":963,"x_min":69,"x_max":911,"o":"m 489 -14 q 268 30 360 -14 q 126 158 176 74 q 71 363 76 242 q 69 485 69 419 q 71 610 69 550 q 127 813 76 729 q 269 942 178 897 q 489 986 361 986 q 659 963 583 986 q 790 894 735 939 q 877 790 846 850 q 910 657 908 731 q 902 636 911 644 q 881 628 893 628 l 721 628 q 694 635 704 628 q 679 663 685 643 q 610 776 658 746 q 489 806 561 806 q 354 758 404 806 q 300 603 304 711 q 300 369 296 489 q 354 214 304 261 q 489 167 404 167 q 610 197 561 167 q 679 310 660 228 q 694 337 685 329 q 721 344 704 344 l 881 344 q 902 336 893 344 q 910 315 911 328 q 877 182 908 242 q 790 78 846 122 q 659 10 735 33 q 489 -14 583 -14 m 417 1042 q 394 1050 403 1042 q 386 1074 386 1058 l 386 1203 q 394 1226 386 1217 q 417 1235 403 1235 l 547 1235 q 570 1226 561 1235 q 579 1203 579 1217 l 579 1074 q 570 1050 579 1058 q 547 1042 561 1042 l 417 1042 z "},"Ð":{"ha":1008,"x_min":19,"x_max":935,"o":"m 158 0 q 133 10 143 0 q 124 35 124 19 l 124 413 l 54 413 q 30 422 40 413 q 19 447 19 432 l 19 531 q 30 554 19 544 q 54 564 40 564 l 124 564 l 124 938 q 133 963 124 953 q 158 972 143 972 l 507 972 q 740 928 646 972 q 884 801 835 885 q 935 593 933 717 q 935 488 935 538 q 935 381 935 438 q 885 167 933 251 q 744 41 838 82 q 511 0 650 0 l 158 0 m 346 181 l 507 181 q 621 201 578 181 q 685 266 664 221 q 706 383 706 311 q 707 453 707 421 q 707 519 707 486 q 706 590 707 553 q 657 743 704 694 q 504 792 610 792 l 346 792 l 346 564 l 486 564 q 511 554 501 564 q 521 531 521 544 l 521 447 q 511 422 521 432 q 486 413 501 413 l 346 413 l 346 181 z "},"Ď":{"ha":985,"x_min":103,"x_max":915,"o":"m 136 0 q 113 10 122 0 q 103 35 103 19 l 103 938 q 113 963 103 953 q 136 972 122 972 l 486 972 q 718 928 625 972 q 860 801 811 885 q 913 593 910 717 q 915 486 915 532 q 913 381 915 440 q 861 167 908 251 q 723 41 814 82 q 493 0 632 0 l 136 0 m 324 181 l 486 181 q 599 201 556 181 q 665 266 643 221 q 689 383 688 311 q 691 456 690 424 q 691 519 692 488 q 689 590 690 551 q 635 743 686 694 q 479 792 585 792 l 324 792 l 324 181 m 433 1042 q 410 1047 421 1042 q 385 1065 400 1051 l 246 1210 q 235 1232 235 1221 q 256 1251 235 1251 l 318 1251 q 341 1249 329 1251 q 363 1242 353 1247 l 483 1171 l 603 1242 q 624 1249 613 1247 q 649 1251 636 1251 l 710 1251 q 731 1232 731 1251 q 719 1210 731 1221 l 581 1065 q 556 1047 567 1051 q 533 1042 546 1042 l 433 1042 z "},"Đ":{"ha":1007,"x_min":19,"x_max":936,"o":"m 158 0 q 133 10 143 0 q 124 35 124 19 l 124 414 l 54 414 q 30 424 40 414 q 19 447 19 433 l 19 531 q 30 556 19 546 q 54 565 40 565 l 124 565 l 124 938 q 133 963 124 953 q 158 972 143 972 l 507 972 q 740 928 646 972 q 882 801 833 885 q 933 593 931 717 q 936 486 936 532 q 933 381 936 440 q 882 167 929 251 q 742 41 835 82 q 511 0 650 0 l 158 0 m 346 181 l 507 181 q 621 201 578 181 q 686 266 664 221 q 710 383 708 311 q 712 456 711 424 q 712 519 713 488 q 710 590 711 551 q 658 743 707 694 q 504 792 610 792 l 346 792 l 346 565 l 486 565 q 511 556 501 565 q 521 531 521 546 l 521 447 q 511 424 521 433 q 486 414 501 414 l 346 414 l 346 181 z "},"É":{"ha":876,"x_min":103,"x_max":813,"o":"m 136 0 q 113 10 122 0 q 103 35 103 19 l 103 938 q 113 963 103 953 q 136 972 122 972 l 767 972 q 792 963 782 972 q 801 938 801 953 l 801 826 q 792 801 801 811 q 767 792 782 792 l 317 792 l 317 575 l 736 575 q 761 565 751 575 q 771 540 771 556 l 771 438 q 761 413 771 424 q 736 403 751 403 l 317 403 l 317 181 l 778 181 q 803 171 793 181 q 813 146 813 161 l 813 35 q 803 10 813 19 q 778 0 793 0 l 136 0 m 364 1042 q 342 1064 342 1042 q 349 1082 342 1075 l 467 1225 q 490 1247 479 1242 q 518 1251 500 1251 l 689 1251 q 715 1224 715 1251 q 708 1207 715 1214 l 529 1061 q 508 1047 518 1051 q 479 1042 497 1042 l 364 1042 z "},"Ĕ":{"ha":876,"x_min":103,"x_max":813,"o":"m 136 0 q 113 10 122 0 q 103 35 103 19 l 103 938 q 113 963 103 953 q 136 972 122 972 l 767 972 q 792 963 782 972 q 801 938 801 953 l 801 826 q 792 801 801 811 q 767 792 782 792 l 317 792 l 317 575 l 736 575 q 761 565 751 575 q 771 540 771 556 l 771 438 q 761 413 771 424 q 736 403 751 403 l 317 403 l 317 181 l 778 181 q 803 171 793 181 q 813 146 813 161 l 813 35 q 803 10 813 19 q 778 0 793 0 l 136 0 m 439 1032 q 320 1058 365 1032 q 255 1126 275 1083 q 235 1221 235 1169 q 242 1240 235 1232 q 261 1247 249 1247 l 342 1247 q 361 1240 354 1247 q 368 1221 368 1232 q 382 1163 368 1189 q 439 1138 396 1138 q 494 1163 481 1138 q 508 1221 508 1189 q 515 1240 508 1232 q 535 1247 522 1247 l 617 1247 q 636 1240 629 1247 q 643 1221 643 1232 q 622 1126 643 1169 q 557 1058 601 1083 q 439 1032 513 1032 z "},"Ě":{"ha":876,"x_min":103,"x_max":813,"o":"m 136 0 q 113 10 122 0 q 103 35 103 19 l 103 938 q 113 963 103 953 q 136 972 122 972 l 767 972 q 792 963 782 972 q 801 938 801 953 l 801 826 q 792 801 801 811 q 767 792 782 792 l 317 792 l 317 575 l 736 575 q 761 565 751 575 q 771 540 771 556 l 771 438 q 761 413 771 424 q 736 403 751 403 l 317 403 l 317 181 l 778 181 q 803 171 793 181 q 813 146 813 161 l 813 35 q 803 10 813 19 q 778 0 793 0 l 136 0 m 389 1042 q 366 1047 376 1042 q 340 1065 356 1051 l 201 1210 q 190 1232 190 1221 q 211 1251 190 1251 l 274 1251 q 297 1249 285 1251 q 318 1242 308 1247 l 439 1171 l 558 1242 q 580 1249 568 1247 q 604 1251 592 1251 l 665 1251 q 686 1232 686 1251 q 675 1210 686 1221 l 536 1065 q 512 1047 522 1051 q 489 1042 501 1042 l 389 1042 z "},"Ê":{"ha":876,"x_min":103,"x_max":813,"o":"m 136 0 q 113 10 122 0 q 103 35 103 19 l 103 938 q 113 963 103 953 q 136 972 122 972 l 767 972 q 792 963 782 972 q 801 938 801 953 l 801 826 q 792 801 801 811 q 767 792 782 792 l 317 792 l 317 575 l 736 575 q 761 565 751 575 q 771 540 771 556 l 771 438 q 761 413 771 424 q 736 403 751 403 l 317 403 l 317 181 l 778 181 q 803 171 793 181 q 813 146 813 161 l 813 35 q 803 10 813 19 q 778 0 793 0 l 136 0 m 211 1042 q 190 1061 190 1042 q 201 1083 190 1072 l 340 1228 q 366 1247 356 1243 q 389 1251 376 1251 l 489 1251 q 512 1247 501 1251 q 536 1228 522 1243 l 675 1083 q 686 1061 686 1072 q 665 1042 686 1042 l 604 1042 q 580 1044 592 1042 q 558 1051 568 1046 l 439 1122 l 318 1051 q 297 1044 308 1046 q 274 1042 285 1042 l 211 1042 z "},"Ë":{"ha":876,"x_min":103,"x_max":813,"o":"m 136 0 q 113 10 122 0 q 103 35 103 19 l 103 938 q 113 963 103 953 q 136 972 122 972 l 767 972 q 792 963 782 972 q 801 938 801 953 l 801 826 q 792 801 801 811 q 767 792 782 792 l 317 792 l 317 575 l 736 575 q 761 565 751 575 q 771 540 771 556 l 771 438 q 761 413 771 424 q 736 403 751 403 l 317 403 l 317 181 l 778 181 q 803 171 793 181 q 813 146 813 161 l 813 35 q 803 10 813 19 q 778 0 793 0 l 136 0 m 539 1042 q 515 1050 524 1042 q 507 1074 507 1058 l 507 1188 q 515 1210 507 1201 q 539 1219 524 1219 l 653 1219 q 676 1210 667 1219 q 685 1188 685 1201 l 685 1074 q 676 1050 685 1058 q 653 1042 667 1042 l 539 1042 m 222 1042 q 200 1050 208 1042 q 192 1074 192 1058 l 192 1188 q 200 1210 192 1201 q 222 1219 208 1219 l 338 1219 q 360 1210 351 1219 q 369 1188 369 1201 l 369 1074 q 360 1050 369 1058 q 338 1042 351 1042 l 222 1042 z "},"Ė":{"ha":876,"x_min":103,"x_max":813,"o":"m 136 0 q 113 10 122 0 q 103 35 103 19 l 103 938 q 113 963 103 953 q 136 972 122 972 l 767 972 q 792 963 782 972 q 801 938 801 953 l 801 826 q 792 801 801 811 q 767 792 782 792 l 317 792 l 317 575 l 736 575 q 761 565 751 575 q 771 540 771 556 l 771 438 q 761 413 771 424 q 736 403 751 403 l 317 403 l 317 181 l 778 181 q 803 171 793 181 q 813 146 813 161 l 813 35 q 803 10 813 19 q 778 0 793 0 l 136 0 m 372 1042 q 350 1050 358 1042 q 342 1074 342 1058 l 342 1203 q 350 1226 342 1217 q 372 1235 358 1235 l 503 1235 q 526 1226 517 1235 q 535 1203 535 1217 l 535 1074 q 526 1050 535 1058 q 503 1042 517 1042 l 372 1042 z "},"È":{"ha":876,"x_min":103,"x_max":813,"o":"m 136 0 q 113 10 122 0 q 103 35 103 19 l 103 938 q 113 963 103 953 q 136 972 122 972 l 767 972 q 792 963 782 972 q 801 938 801 953 l 801 826 q 792 801 801 811 q 767 792 782 792 l 317 792 l 317 575 l 736 575 q 761 565 751 575 q 771 540 771 556 l 771 438 q 761 413 771 424 q 736 403 751 403 l 317 403 l 317 181 l 778 181 q 803 171 793 181 q 813 146 813 161 l 813 35 q 803 10 813 19 q 778 0 793 0 l 136 0 m 403 1042 q 374 1047 385 1042 q 353 1061 364 1051 l 174 1207 q 167 1224 167 1214 q 193 1251 167 1251 l 364 1251 q 392 1247 382 1251 q 415 1225 403 1242 l 533 1082 q 540 1064 540 1075 q 518 1042 540 1042 l 403 1042 z "},"Ē":{"ha":876,"x_min":103,"x_max":813,"o":"m 136 0 q 113 10 122 0 q 103 35 103 19 l 103 938 q 113 963 103 953 q 136 972 122 972 l 767 972 q 792 963 782 972 q 801 938 801 953 l 801 826 q 792 801 801 811 q 767 792 782 792 l 317 792 l 317 575 l 736 575 q 761 565 751 575 q 771 540 771 556 l 771 438 q 761 413 771 424 q 736 403 751 403 l 317 403 l 317 181 l 778 181 q 803 171 793 181 q 813 146 813 161 l 813 35 q 803 10 813 19 q 778 0 793 0 l 136 0 m 236 1042 q 214 1050 222 1042 q 206 1074 206 1058 l 206 1163 q 214 1185 206 1176 q 236 1193 222 1193 l 640 1193 q 663 1185 654 1193 q 672 1163 672 1176 l 672 1074 q 663 1050 672 1058 q 640 1042 654 1042 l 236 1042 z "},"Ę":{"ha":876,"x_min":103,"x_max":813,"o":"m 756 -306 q 638 -278 686 -306 q 567 -201 590 -250 q 543 -90 543 -153 q 548 -42 543 -64 q 561 0 553 -19 l 136 0 q 113 10 122 0 q 103 35 103 19 l 103 938 q 113 963 103 953 q 136 972 122 972 l 767 972 q 792 963 782 972 q 801 938 801 953 l 801 826 q 792 801 801 811 q 767 792 782 792 l 317 792 l 317 575 l 736 575 q 761 565 751 575 q 771 540 771 556 l 771 438 q 761 413 771 424 q 736 403 751 403 l 317 403 l 317 181 l 778 181 q 803 171 793 181 q 813 146 813 161 l 813 35 q 803 10 813 19 q 778 0 793 0 l 757 0 q 694 -28 715 -1 q 674 -90 674 -54 q 696 -153 674 -128 q 761 -179 718 -179 l 778 -179 q 803 -190 793 -179 q 813 -214 813 -200 l 813 -271 q 803 -296 813 -286 q 778 -306 793 -306 l 756 -306 z "},"Ğ":{"ha":986,"x_min":71,"x_max":921,"o":"m 493 -14 q 270 30 363 -14 q 127 158 178 74 q 72 361 76 242 q 71 489 71 421 q 72 618 71 557 q 127 817 76 735 q 272 942 178 899 q 493 986 365 986 q 674 960 596 986 q 805 891 751 933 q 885 799 858 849 q 914 701 913 749 q 906 681 914 689 q 883 672 897 672 l 711 672 q 690 678 697 672 q 676 694 682 683 q 645 744 667 718 q 588 788 624 771 q 493 806 551 806 q 355 760 406 806 q 300 611 304 714 q 300 368 296 492 q 357 214 304 261 q 496 167 410 167 q 598 187 553 167 q 669 249 643 207 q 696 358 696 292 l 696 393 l 544 393 q 521 403 531 393 q 511 428 511 414 l 511 517 q 521 542 511 532 q 544 551 531 551 l 886 551 q 911 542 901 551 q 921 517 921 532 l 921 365 q 868 161 921 246 q 719 31 815 76 q 493 -14 622 -14 m 497 1032 q 378 1058 424 1032 q 313 1126 333 1083 q 293 1221 293 1169 q 300 1240 293 1232 q 319 1247 307 1247 l 400 1247 q 419 1240 413 1247 q 426 1221 426 1232 q 440 1163 426 1189 q 497 1138 454 1138 q 553 1163 539 1138 q 567 1221 567 1189 q 574 1240 567 1232 q 593 1247 581 1247 l 675 1247 q 694 1240 688 1247 q 701 1221 701 1232 q 681 1126 701 1169 q 615 1058 660 1083 q 497 1032 571 1032 z "},"Ĝ":{"ha":986,"x_min":71,"x_max":921,"o":"m 493 -14 q 270 30 363 -14 q 127 158 178 74 q 72 361 76 242 q 71 489 71 421 q 72 618 71 557 q 127 817 76 735 q 272 942 178 899 q 493 986 365 986 q 674 960 596 986 q 805 891 751 933 q 885 799 858 849 q 914 701 913 749 q 906 681 914 689 q 883 672 897 672 l 711 672 q 690 678 697 672 q 676 694 682 683 q 645 744 667 718 q 588 788 624 771 q 493 806 551 806 q 355 760 406 806 q 300 611 304 714 q 300 368 296 492 q 357 214 304 261 q 496 167 410 167 q 598 187 553 167 q 669 249 643 207 q 696 358 696 292 l 696 393 l 544 393 q 521 403 531 393 q 511 428 511 414 l 511 517 q 521 542 511 532 q 544 551 531 551 l 886 551 q 911 542 901 551 q 921 517 921 532 l 921 365 q 868 161 921 246 q 719 31 815 76 q 493 -14 622 -14 m 271 1042 q 250 1061 250 1042 q 261 1083 250 1072 l 400 1228 q 426 1247 415 1243 q 449 1251 436 1251 l 549 1251 q 572 1247 561 1251 q 596 1228 582 1243 l 735 1083 q 746 1061 746 1072 q 725 1042 746 1042 l 664 1042 q 640 1044 651 1042 q 618 1051 628 1046 l 499 1122 l 378 1051 q 356 1044 368 1046 q 333 1042 344 1042 l 271 1042 z "},"Ģ":{"ha":986,"x_min":71,"x_max":921,"o":"m 493 -14 q 270 30 363 -14 q 127 158 178 74 q 72 361 76 242 q 71 489 71 421 q 72 618 71 557 q 127 817 76 735 q 272 942 178 899 q 493 986 365 986 q 674 960 596 986 q 805 891 751 933 q 885 799 858 849 q 914 701 913 749 q 906 681 914 689 q 883 672 897 672 l 711 672 q 690 678 697 672 q 676 694 682 683 q 645 744 667 718 q 588 788 624 771 q 493 806 551 806 q 355 760 406 806 q 300 611 304 714 q 300 368 296 492 q 357 214 304 261 q 496 167 410 167 q 598 187 553 167 q 669 249 643 207 q 696 358 696 292 l 696 393 l 544 393 q 521 403 531 393 q 511 428 511 414 l 511 517 q 521 542 511 532 q 544 551 531 551 l 886 551 q 911 542 901 551 q 921 517 921 532 l 921 365 q 868 161 921 246 q 719 31 815 76 q 493 -14 622 -14 m 389 -321 q 371 -312 378 -321 q 364 -290 364 -303 l 390 -115 q 404 -83 393 -97 q 439 -69 415 -69 l 576 -69 q 595 -78 588 -69 q 603 -96 603 -86 q 599 -112 603 -106 l 533 -283 q 517 -309 528 -297 q 485 -321 506 -321 l 389 -321 z "},"Ġ":{"ha":986,"x_min":71,"x_max":921,"o":"m 493 -14 q 270 30 363 -14 q 127 158 178 74 q 72 361 76 242 q 71 489 71 421 q 72 618 71 557 q 127 817 76 735 q 272 942 178 899 q 493 986 365 986 q 674 960 596 986 q 805 891 751 933 q 885 799 858 849 q 914 701 913 749 q 906 681 914 689 q 883 672 897 672 l 711 672 q 690 678 697 672 q 676 694 682 683 q 645 744 667 718 q 588 788 624 771 q 493 806 551 806 q 355 760 406 806 q 300 611 304 714 q 300 368 296 492 q 357 214 304 261 q 496 167 410 167 q 598 187 553 167 q 669 249 643 207 q 696 358 696 292 l 696 393 l 544 393 q 521 403 531 393 q 511 428 511 414 l 511 517 q 521 542 511 532 q 544 551 531 551 l 886 551 q 911 542 901 551 q 921 517 921 532 l 921 365 q 868 161 921 246 q 719 31 815 76 q 493 -14 622 -14 m 432 1042 q 410 1050 418 1042 q 401 1074 401 1058 l 401 1203 q 410 1226 401 1217 q 432 1235 418 1235 l 563 1235 q 585 1226 576 1235 q 594 1203 594 1217 l 594 1074 q 585 1050 594 1058 q 563 1042 576 1042 l 432 1042 z "},"Ħ":{"ha":1024,"x_min":58,"x_max":971,"o":"m 92 718 q 68 728 78 718 q 58 753 58 738 l 58 811 q 68 835 58 825 q 92 844 78 844 l 938 844 q 961 835 951 844 q 971 811 971 825 l 971 753 q 961 728 971 738 q 938 718 951 718 l 92 718 m 136 0 q 113 10 122 0 q 103 35 103 19 l 103 938 q 113 963 103 953 q 136 972 122 972 l 289 972 q 314 963 304 972 q 324 938 324 953 l 324 590 l 700 590 l 700 938 q 710 963 700 953 q 733 972 719 972 l 886 972 q 911 963 901 972 q 921 938 921 953 l 921 35 q 911 10 921 19 q 886 0 901 0 l 733 0 q 710 10 719 0 q 700 35 700 19 l 700 393 l 324 393 l 324 35 q 314 10 324 19 q 289 0 304 0 l 136 0 z "},"Ĥ":{"ha":1024,"x_min":103,"x_max":921,"o":"m 136 0 q 113 10 122 0 q 103 35 103 19 l 103 938 q 113 963 103 953 q 136 972 122 972 l 289 972 q 314 963 304 972 q 324 938 324 953 l 324 590 l 700 590 l 700 938 q 710 963 700 953 q 733 972 719 972 l 886 972 q 911 963 901 972 q 921 938 921 953 l 921 35 q 911 10 921 19 q 886 0 901 0 l 733 0 q 710 10 719 0 q 700 35 700 19 l 700 393 l 324 393 l 324 35 q 314 10 324 19 q 289 0 304 0 l 136 0 m 285 1042 q 264 1061 264 1042 q 275 1083 264 1072 l 414 1228 q 440 1247 429 1243 q 463 1251 450 1251 l 563 1251 q 585 1247 575 1251 q 610 1228 596 1243 l 749 1083 q 760 1061 760 1072 q 739 1042 760 1042 l 678 1042 q 653 1044 665 1042 q 632 1051 642 1046 l 513 1122 l 392 1051 q 370 1044 382 1046 q 347 1042 358 1042 l 285 1042 z "},"Ĳ":{"ha":974,"x_min":103,"x_max":881,"o":"m 475 -14 q 451 -4 461 -14 q 440 21 440 6 l 440 146 q 451 171 440 161 q 475 181 461 181 q 608 233 564 181 q 651 386 651 286 l 651 938 q 662 963 651 953 q 686 972 672 972 l 844 972 q 870 963 860 972 q 881 938 881 953 l 881 357 q 832 146 881 228 q 693 25 783 64 q 475 -14 603 -14 m 136 0 q 113 10 122 0 q 103 35 103 19 l 103 938 q 113 963 103 953 q 136 972 122 972 l 296 972 q 319 963 310 972 q 329 938 329 953 l 329 35 q 319 10 329 19 q 296 0 310 0 l 136 0 z "},"Í":{"ha":432,"x_min":103,"x_max":493,"o":"m 136 0 q 113 10 122 0 q 103 35 103 19 l 103 938 q 113 963 103 953 q 136 972 122 972 l 296 972 q 319 963 310 972 q 329 938 329 953 l 329 35 q 319 10 329 19 q 296 0 310 0 l 136 0 m 142 1042 q 119 1064 119 1042 q 126 1082 119 1075 l 244 1225 q 267 1247 257 1242 q 296 1251 278 1251 l 467 1251 q 493 1224 493 1251 q 486 1207 493 1214 l 307 1061 q 285 1047 296 1051 q 257 1042 275 1042 l 142 1042 z "},"Ĭ":{"ha":432,"x_min":13,"x_max":421,"o":"m 136 0 q 113 10 122 0 q 103 35 103 19 l 103 938 q 113 963 103 953 q 136 972 122 972 l 296 972 q 319 963 310 972 q 329 938 329 953 l 329 35 q 319 10 329 19 q 296 0 310 0 l 136 0 m 217 1032 q 98 1058 143 1032 q 33 1126 53 1083 q 13 1221 13 1169 q 19 1240 13 1232 q 39 1247 26 1247 l 119 1247 q 139 1240 132 1247 q 146 1221 146 1232 q 160 1163 146 1189 q 217 1138 174 1138 q 272 1163 258 1138 q 286 1221 286 1189 q 293 1240 286 1232 q 313 1247 300 1247 l 394 1247 q 414 1240 407 1247 q 421 1221 421 1232 q 400 1126 421 1169 q 335 1058 379 1083 q 217 1032 290 1032 z "},"Î":{"ha":432,"x_min":-32,"x_max":465,"o":"m 136 0 q 113 10 122 0 q 103 35 103 19 l 103 938 q 113 963 103 953 q 136 972 122 972 l 296 972 q 319 963 310 972 q 329 938 329 953 l 329 35 q 319 10 329 19 q 296 0 310 0 l 136 0 m -11 1042 q -32 1061 -32 1042 q -21 1083 -32 1072 l 118 1228 q 144 1247 133 1243 q 167 1251 154 1251 l 267 1251 q 290 1247 279 1251 q 314 1228 300 1243 l 453 1083 q 464 1061 464 1072 q 443 1042 464 1042 l 382 1042 q 358 1044 369 1042 q 336 1051 346 1046 l 217 1122 l 96 1051 q 74 1044 86 1046 q 51 1042 63 1042 l -11 1042 z "},"Ï":{"ha":432,"x_min":-31,"x_max":463,"o":"m 136 0 q 113 10 122 0 q 103 35 103 19 l 103 938 q 113 963 103 953 q 136 972 122 972 l 296 972 q 319 963 310 972 q 329 938 329 953 l 329 35 q 319 10 329 19 q 296 0 310 0 l 136 0 m 317 1042 q 293 1050 301 1042 q 285 1074 285 1058 l 285 1188 q 293 1210 285 1201 q 317 1219 301 1219 l 431 1219 q 453 1210 444 1219 q 463 1188 463 1201 l 463 1074 q 453 1050 463 1058 q 431 1042 444 1042 l 317 1042 m 0 1042 q -22 1050 -14 1042 q -31 1074 -31 1058 l -31 1188 q -22 1210 -31 1201 q 0 1219 -14 1219 l 115 1219 q 138 1210 129 1219 q 147 1188 147 1201 l 147 1074 q 138 1050 147 1058 q 115 1042 129 1042 l 0 1042 z "},"İ":{"ha":432,"x_min":103,"x_max":329,"o":"m 136 0 q 113 10 122 0 q 103 35 103 19 l 103 938 q 113 963 103 953 q 136 972 122 972 l 296 972 q 319 963 310 972 q 329 938 329 953 l 329 35 q 319 10 329 19 q 296 0 310 0 l 136 0 m 151 1042 q 129 1050 138 1042 q 121 1074 121 1058 l 121 1203 q 129 1226 121 1217 q 151 1235 138 1235 l 282 1235 q 305 1226 296 1235 q 314 1203 314 1217 l 314 1074 q 305 1050 314 1058 q 282 1042 296 1042 l 151 1042 z "},"Ì":{"ha":432,"x_min":-56,"x_max":329,"o":"m 136 0 q 113 10 122 0 q 103 35 103 19 l 103 938 q 113 963 103 953 q 136 972 122 972 l 296 972 q 319 963 310 972 q 329 938 329 953 l 329 35 q 319 10 329 19 q 296 0 310 0 l 136 0 m 181 1042 q 152 1047 163 1042 q 131 1061 142 1051 l -49 1207 q -56 1224 -56 1214 q -29 1251 -56 1251 l 142 1251 q 170 1247 160 1251 q 193 1225 181 1242 l 311 1082 q 318 1064 318 1075 q 296 1042 318 1042 l 181 1042 z "},"Ī":{"ha":432,"x_min":-17,"x_max":449,"o":"m 136 0 q 113 10 122 0 q 103 35 103 19 l 103 938 q 113 963 103 953 q 136 972 122 972 l 296 972 q 319 963 310 972 q 329 938 329 953 l 329 35 q 319 10 329 19 q 296 0 310 0 l 136 0 m 14 1042 q -8 1050 0 1042 q -17 1074 -17 1058 l -17 1163 q -8 1185 -17 1176 q 14 1193 0 1193 l 418 1193 q 441 1185 432 1193 q 450 1163 450 1176 l 450 1074 q 441 1050 450 1058 q 418 1042 432 1042 l 14 1042 z "},"Į":{"ha":444,"x_min":74,"x_max":342,"o":"m 285 -307 q 168 -279 215 -307 q 97 -202 121 -251 q 74 -90 74 -153 q 94 -9 74 -42 q 150 38 115 24 l 135 43 q 121 52 126 44 q 115 69 115 60 l 115 938 q 125 963 115 953 q 149 972 135 972 l 308 972 q 332 963 322 972 q 342 938 342 953 l 342 35 q 332 10 342 19 q 308 0 322 0 l 290 0 q 226 -27 247 0 q 204 -90 204 -54 q 226 -155 204 -128 q 290 -182 247 -182 l 308 -182 q 332 -192 322 -182 q 342 -215 342 -201 l 342 -272 q 332 -297 342 -287 q 308 -307 322 -307 l 285 -307 z "},"Ĩ":{"ha":432,"x_min":-14,"x_max":446,"o":"m 136 0 q 113 10 122 0 q 103 35 103 19 l 103 938 q 113 963 103 953 q 136 972 122 972 l 296 972 q 319 963 310 972 q 329 938 329 953 l 329 35 q 319 10 329 19 q 296 0 310 0 l 136 0 m 297 1035 q 235 1047 260 1035 q 191 1072 211 1060 q 147 1083 171 1083 q 121 1074 129 1083 q 106 1053 113 1064 q 83 1042 99 1042 l 10 1042 q -7 1049 0 1042 q -14 1065 -14 1057 q -6 1115 -14 1088 q 19 1169 1 1143 q 65 1213 38 1196 q 133 1231 93 1231 q 195 1218 171 1231 q 240 1194 219 1206 q 283 1182 260 1182 q 310 1192 303 1182 q 325 1213 318 1203 q 347 1224 332 1224 l 421 1224 q 438 1217 432 1224 q 444 1200 444 1210 q 436 1150 444 1178 q 410 1096 428 1122 q 365 1052 393 1069 q 297 1035 336 1035 z "},"Ĵ":{"ha":918,"x_min":38,"x_max":824,"o":"m 428 -14 q 281 6 350 -14 q 157 65 211 25 q 71 163 103 104 q 38 299 39 221 q 46 320 38 311 q 67 329 54 329 l 226 329 q 256 320 246 329 q 271 292 265 311 q 301 220 279 249 q 358 179 324 192 q 433 167 392 167 q 554 217 513 167 q 596 363 596 268 l 596 786 l 135 786 q 111 796 121 786 q 101 821 101 806 l 101 938 q 111 963 101 953 q 135 972 121 972 l 789 972 q 814 963 804 972 q 824 938 824 953 l 824 357 q 774 155 824 238 q 635 29 724 72 q 428 -14 546 -14 m 242 1042 q 221 1061 221 1042 q 232 1083 221 1072 l 371 1228 q 397 1247 386 1243 q 419 1251 407 1251 l 519 1251 q 542 1247 532 1251 q 567 1228 553 1243 l 706 1083 q 717 1061 717 1072 q 696 1042 717 1042 l 635 1042 q 610 1044 622 1042 q 589 1051 599 1046 l 469 1122 l 349 1051 q 327 1044 339 1046 q 304 1042 315 1042 l 242 1042 z "},"Ķ":{"ha":899,"x_min":103,"x_max":885,"o":"m 136 0 q 113 10 122 0 q 103 35 103 19 l 103 938 q 113 963 103 953 q 136 972 122 972 l 286 972 q 311 963 301 972 q 321 938 321 953 l 321 621 l 606 946 q 624 963 611 954 q 660 972 638 972 l 829 972 q 849 963 840 972 q 858 943 858 954 q 853 926 858 933 l 496 507 l 879 46 q 885 29 885 40 q 876 9 885 18 q 856 0 867 0 l 681 0 q 643 11 656 0 q 626 26 631 22 l 321 382 l 321 35 q 311 10 321 19 q 286 0 301 0 l 136 0 m 350 -321 q 332 -312 339 -321 q 325 -290 325 -303 l 351 -115 q 365 -83 354 -97 q 400 -69 376 -69 l 538 -69 q 556 -78 549 -69 q 564 -96 564 -86 q 560 -112 564 -106 l 494 -283 q 478 -309 489 -297 q 446 -321 467 -321 l 350 -321 z "},"Ĺ":{"ha":817,"x_min":103,"x_max":792,"o":"m 136 0 q 113 10 122 0 q 103 35 103 19 l 103 938 q 113 963 103 953 q 136 972 122 972 l 293 972 q 317 963 307 972 q 326 938 326 953 l 326 188 l 757 188 q 782 178 772 188 q 792 153 792 168 l 792 35 q 782 10 792 19 q 757 0 772 0 l 136 0 m 133 1042 q 111 1064 111 1042 q 118 1082 111 1075 l 236 1225 q 259 1247 249 1242 q 288 1251 269 1251 l 458 1251 q 485 1224 485 1251 q 478 1207 485 1214 l 299 1061 q 277 1047 288 1051 q 249 1042 267 1042 l 133 1042 z "},"Ľ":{"ha":817,"x_min":103,"x_max":792,"o":"m 136 0 q 113 10 122 0 q 103 35 103 19 l 103 938 q 113 963 103 953 q 136 972 122 972 l 293 972 q 317 963 307 972 q 326 938 326 953 l 326 188 l 757 188 q 782 178 772 188 q 792 153 792 168 l 792 35 q 782 10 792 19 q 757 0 772 0 l 136 0 m 465 735 q 447 744 454 735 q 440 765 440 753 l 467 940 q 481 972 469 958 q 515 986 492 986 l 653 986 q 672 978 664 986 q 679 960 679 969 q 675 943 679 950 l 610 772 q 593 747 604 758 q 561 735 582 735 l 465 735 z "},"Ļ":{"ha":817,"x_min":103,"x_max":792,"o":"m 136 0 q 113 10 122 0 q 103 35 103 19 l 103 938 q 113 963 103 953 q 136 972 122 972 l 293 972 q 317 963 307 972 q 326 938 326 953 l 326 188 l 757 188 q 782 178 772 188 q 792 153 792 168 l 792 35 q 782 10 792 19 q 757 0 772 0 l 136 0 m 317 -321 q 299 -312 306 -321 q 292 -290 292 -303 l 318 -115 q 332 -83 321 -97 q 367 -69 343 -69 l 504 -69 q 523 -78 515 -69 q 531 -96 531 -86 q 526 -112 531 -106 l 461 -283 q 444 -309 456 -297 q 413 -321 433 -321 l 317 -321 z "},"Ŀ":{"ha":817,"x_min":103,"x_max":792,"o":"m 136 0 q 113 10 122 0 q 103 35 103 19 l 103 938 q 113 963 103 953 q 136 972 122 972 l 293 972 q 317 963 307 972 q 326 938 326 953 l 326 188 l 757 188 q 782 178 772 188 q 792 153 792 168 l 792 35 q 782 10 792 19 q 757 0 772 0 l 136 0 m 482 433 q 460 442 468 433 q 451 464 451 450 l 451 590 q 460 613 451 604 q 482 622 468 622 l 608 622 q 631 613 622 622 q 640 590 640 604 l 640 464 q 631 442 640 450 q 608 433 622 433 l 482 433 z "},"Ł":{"ha":828,"x_min":18,"x_max":803,"o":"m 147 0 q 124 10 133 0 q 114 35 114 19 l 114 357 l 63 338 q 46 333 53 333 q 26 341 33 333 q 18 361 18 349 l 18 451 q 25 477 18 468 q 49 492 32 486 l 114 517 l 114 938 q 124 963 114 953 q 147 972 133 972 l 304 972 q 328 963 318 972 q 338 938 338 953 l 338 606 l 539 683 q 556 688 550 688 q 576 681 568 688 q 583 661 583 674 l 583 571 q 576 546 583 554 q 553 531 569 538 l 338 446 l 338 188 l 769 188 q 793 178 783 188 q 803 153 803 168 l 803 35 q 793 10 803 19 q 769 0 783 0 l 147 0 z "},"Ń":{"ha":990,"x_min":103,"x_max":888,"o":"m 136 0 q 113 10 122 0 q 103 35 103 19 l 103 938 q 113 963 103 953 q 136 972 122 972 l 264 972 q 294 963 285 972 q 307 947 304 953 l 676 369 l 676 938 q 686 963 676 953 q 711 972 696 972 l 853 972 q 878 963 868 972 q 888 938 888 953 l 888 35 q 878 10 888 21 q 853 0 868 0 l 725 0 q 694 10 704 0 q 682 25 685 21 l 314 585 l 314 35 q 304 10 314 19 q 279 0 294 0 l 136 0 m 419 1042 q 397 1064 397 1042 q 404 1082 397 1075 l 522 1225 q 545 1247 535 1242 q 574 1251 556 1251 l 744 1251 q 771 1224 771 1251 q 764 1207 771 1214 l 585 1061 q 563 1047 574 1051 q 535 1042 553 1042 l 419 1042 z "},"Ň":{"ha":990,"x_min":103,"x_max":888,"o":"m 136 0 q 113 10 122 0 q 103 35 103 19 l 103 938 q 113 963 103 953 q 136 972 122 972 l 264 972 q 294 963 285 972 q 307 947 304 953 l 676 369 l 676 938 q 686 963 676 953 q 711 972 696 972 l 853 972 q 878 963 868 972 q 888 938 888 953 l 888 35 q 878 10 888 21 q 853 0 868 0 l 725 0 q 694 10 704 0 q 682 25 685 21 l 314 585 l 314 35 q 304 10 314 19 q 279 0 294 0 l 136 0 m 446 1042 q 423 1047 433 1042 q 397 1065 413 1051 l 258 1210 q 247 1232 247 1221 q 268 1251 247 1251 l 331 1251 q 353 1249 342 1251 q 375 1242 365 1247 l 496 1171 l 615 1242 q 637 1249 625 1247 q 661 1251 649 1251 l 722 1251 q 743 1232 743 1251 q 732 1210 743 1221 l 593 1065 q 569 1047 579 1051 q 546 1042 558 1042 l 446 1042 z "},"Ņ":{"ha":990,"x_min":103,"x_max":888,"o":"m 136 0 q 113 10 122 0 q 103 35 103 19 l 103 938 q 113 963 103 953 q 136 972 122 972 l 264 972 q 294 963 285 972 q 307 947 304 953 l 676 369 l 676 938 q 686 963 676 953 q 711 972 696 972 l 853 972 q 878 963 868 972 q 888 938 888 953 l 888 35 q 878 10 888 21 q 853 0 868 0 l 725 0 q 694 10 704 0 q 682 25 685 21 l 314 585 l 314 35 q 304 10 314 19 q 279 0 294 0 l 136 0 m 386 -321 q 368 -312 375 -321 q 361 -290 361 -303 l 388 -115 q 401 -83 390 -97 q 436 -69 413 -69 l 574 -69 q 592 -78 585 -69 q 600 -96 600 -86 q 596 -112 600 -106 l 531 -283 q 514 -309 525 -297 q 482 -321 503 -321 l 386 -321 z "},"Ŋ":{"ha":990,"x_min":103,"x_max":888,"o":"m 539 -312 q 514 -303 524 -312 q 504 -278 504 -293 l 504 -161 q 514 -136 504 -146 q 539 -126 524 -126 l 569 -126 q 634 -111 611 -126 q 667 -70 657 -96 q 676 -12 676 -44 l 676 32 l 314 585 l 314 35 q 304 10 314 19 q 279 0 294 0 l 136 0 q 113 10 122 0 q 103 35 103 19 l 103 938 q 113 963 103 953 q 136 972 122 972 l 264 972 q 294 963 285 972 q 307 947 304 953 l 676 369 l 676 938 q 686 963 676 953 q 711 972 696 972 l 853 972 q 878 963 868 972 q 888 938 888 953 l 888 -19 q 849 -178 888 -112 q 735 -278 810 -243 q 553 -312 660 -312 l 539 -312 z "},"Ñ":{"ha":990,"x_min":103,"x_max":888,"o":"m 136 0 q 113 10 122 0 q 103 35 103 19 l 103 938 q 113 963 103 953 q 136 972 122 972 l 264 972 q 294 963 285 972 q 307 947 304 953 l 676 369 l 676 938 q 686 963 676 953 q 711 972 696 972 l 853 972 q 878 963 868 972 q 888 938 888 953 l 888 35 q 878 10 888 21 q 853 0 868 0 l 725 0 q 694 10 704 0 q 682 25 685 21 l 314 585 l 314 35 q 304 10 314 19 q 279 0 294 0 l 136 0 m 576 1035 q 515 1047 539 1035 q 470 1072 490 1060 q 426 1083 450 1083 q 400 1074 408 1083 q 385 1053 392 1064 q 363 1042 378 1042 l 289 1042 q 272 1049 279 1042 q 265 1065 265 1057 q 273 1115 265 1088 q 299 1169 281 1143 q 344 1213 317 1196 q 413 1231 372 1231 q 474 1218 450 1231 q 519 1194 499 1206 q 563 1182 539 1182 q 590 1192 582 1182 q 604 1213 597 1203 q 626 1224 611 1224 l 700 1224 q 717 1217 711 1224 q 724 1200 724 1210 q 715 1150 724 1178 q 690 1096 707 1122 q 644 1052 672 1069 q 576 1035 615 1035 z "},"Ó":{"ha":976,"x_min":71,"x_max":908,"o":"m 489 -14 q 271 28 363 -14 q 128 153 179 69 q 72 365 76 238 q 71 484 71 425 q 72 604 71 543 q 128 815 76 729 q 273 943 181 900 q 489 986 365 986 q 703 943 611 986 q 849 815 796 900 q 906 604 901 729 q 908 484 908 543 q 906 365 908 425 q 849 153 901 238 q 706 28 797 69 q 489 -14 614 -14 m 489 167 q 622 215 569 167 q 676 372 674 264 q 679 487 679 433 q 676 600 679 540 q 650 718 675 672 q 584 785 625 764 q 489 806 543 806 q 394 785 436 806 q 328 718 353 764 q 300 600 303 672 q 299 487 299 540 q 300 372 299 433 q 356 215 304 264 q 489 167 407 167 m 414 1042 q 392 1064 392 1042 q 399 1082 392 1075 l 517 1225 q 540 1247 529 1242 q 568 1251 550 1251 l 739 1251 q 765 1224 765 1251 q 758 1207 765 1214 l 579 1061 q 558 1047 568 1051 q 529 1042 547 1042 l 414 1042 z "},"Ŏ":{"ha":976,"x_min":71,"x_max":908,"o":"m 489 -14 q 271 28 363 -14 q 128 153 179 69 q 72 365 76 238 q 71 484 71 425 q 72 604 71 543 q 128 815 76 729 q 273 943 181 900 q 489 986 365 986 q 703 943 611 986 q 849 815 796 900 q 906 604 901 729 q 908 484 908 543 q 906 365 908 425 q 849 153 901 238 q 706 28 797 69 q 489 -14 614 -14 m 489 167 q 622 215 569 167 q 676 372 674 264 q 679 487 679 433 q 676 600 679 540 q 650 718 675 672 q 584 785 625 764 q 489 806 543 806 q 394 785 436 806 q 328 718 353 764 q 300 600 303 672 q 299 487 299 540 q 300 372 299 433 q 356 215 304 264 q 489 167 407 167 m 489 1032 q 370 1058 415 1032 q 305 1126 325 1083 q 285 1221 285 1169 q 292 1240 285 1232 q 311 1247 299 1247 l 392 1247 q 411 1240 404 1247 q 418 1221 418 1232 q 432 1163 418 1189 q 489 1138 446 1138 q 544 1163 531 1138 q 558 1221 558 1189 q 565 1240 558 1232 q 585 1247 572 1247 l 667 1247 q 686 1240 679 1247 q 693 1221 693 1232 q 672 1126 693 1169 q 607 1058 651 1083 q 489 1032 563 1032 z "},"Ô":{"ha":976,"x_min":71,"x_max":908,"o":"m 489 -14 q 271 28 363 -14 q 128 153 179 69 q 72 365 76 238 q 71 484 71 425 q 72 604 71 543 q 128 815 76 729 q 273 943 181 900 q 489 986 365 986 q 703 943 611 986 q 849 815 796 900 q 906 604 901 729 q 908 484 908 543 q 906 365 908 425 q 849 153 901 238 q 706 28 797 69 q 489 -14 614 -14 m 489 167 q 622 215 569 167 q 676 372 674 264 q 679 487 679 433 q 676 600 679 540 q 650 718 675 672 q 584 785 625 764 q 489 806 543 806 q 394 785 436 806 q 328 718 353 764 q 300 600 303 672 q 299 487 299 540 q 300 372 299 433 q 356 215 304 264 q 489 167 407 167 m 261 1042 q 240 1061 240 1042 q 251 1083 240 1072 l 390 1228 q 416 1247 406 1243 q 439 1251 426 1251 l 539 1251 q 562 1247 551 1251 q 586 1228 572 1243 l 725 1083 q 736 1061 736 1072 q 715 1042 736 1042 l 654 1042 q 630 1044 642 1042 q 608 1051 618 1046 l 489 1122 l 368 1051 q 347 1044 358 1046 q 324 1042 335 1042 l 261 1042 z "},"Ö":{"ha":976,"x_min":71,"x_max":908,"o":"m 489 -14 q 271 28 363 -14 q 128 153 179 69 q 72 365 76 238 q 71 484 71 425 q 72 604 71 543 q 128 815 76 729 q 273 943 181 900 q 489 986 365 986 q 703 943 611 986 q 849 815 796 900 q 906 604 901 729 q 908 484 908 543 q 906 365 908 425 q 849 153 901 238 q 706 28 797 69 q 489 -14 614 -14 m 489 167 q 622 215 569 167 q 676 372 674 264 q 679 487 679 433 q 676 600 679 540 q 650 718 675 672 q 584 785 625 764 q 489 806 543 806 q 394 785 436 806 q 328 718 353 764 q 300 600 303 672 q 299 487 299 540 q 300 372 299 433 q 356 215 304 264 q 489 167 407 167 m 589 1042 q 565 1050 574 1042 q 557 1074 557 1058 l 557 1188 q 565 1210 557 1201 q 589 1219 574 1219 l 703 1219 q 726 1210 717 1219 q 735 1188 735 1201 l 735 1074 q 726 1050 735 1058 q 703 1042 717 1042 l 589 1042 m 272 1042 q 250 1050 258 1042 q 242 1074 242 1058 l 242 1188 q 250 1210 242 1201 q 272 1219 258 1219 l 388 1219 q 410 1210 401 1219 q 419 1188 419 1201 l 419 1074 q 410 1050 419 1058 q 388 1042 401 1042 l 272 1042 z "},"Ò":{"ha":976,"x_min":71,"x_max":908,"o":"m 489 -14 q 271 28 363 -14 q 128 153 179 69 q 72 365 76 238 q 71 484 71 425 q 72 604 71 543 q 128 815 76 729 q 273 943 181 900 q 489 986 365 986 q 703 943 611 986 q 849 815 796 900 q 906 604 901 729 q 908 484 908 543 q 906 365 908 425 q 849 153 901 238 q 706 28 797 69 q 489 -14 614 -14 m 489 167 q 622 215 569 167 q 676 372 674 264 q 679 487 679 433 q 676 600 679 540 q 650 718 675 672 q 584 785 625 764 q 489 806 543 806 q 394 785 436 806 q 328 718 353 764 q 300 600 303 672 q 299 487 299 540 q 300 372 299 433 q 356 215 304 264 q 489 167 407 167 m 453 1042 q 424 1047 435 1042 q 403 1061 414 1051 l 224 1207 q 217 1224 217 1214 q 243 1251 217 1251 l 414 1251 q 442 1247 432 1251 q 465 1225 453 1242 l 583 1082 q 590 1064 590 1075 q 568 1042 590 1042 l 453 1042 z "},"Ő":{"ha":976,"x_min":71,"x_max":908,"o":"m 489 -14 q 271 28 363 -14 q 128 153 179 69 q 72 365 76 238 q 71 484 71 425 q 72 604 71 543 q 128 815 76 729 q 273 943 181 900 q 489 986 365 986 q 703 943 611 986 q 849 815 796 900 q 906 604 901 729 q 908 484 908 543 q 906 365 908 425 q 849 153 901 238 q 706 28 797 69 q 489 -14 614 -14 m 489 167 q 622 215 569 167 q 676 372 674 264 q 679 487 679 433 q 676 600 679 540 q 650 718 675 672 q 584 785 625 764 q 489 806 543 806 q 394 785 436 806 q 328 718 353 764 q 300 600 303 672 q 299 487 299 540 q 300 372 299 433 q 356 215 304 264 q 489 167 407 167 m 582 1042 q 560 1064 560 1042 q 563 1075 560 1069 q 567 1085 565 1081 l 629 1225 q 681 1251 642 1251 l 819 1251 q 847 1225 847 1251 q 839 1207 847 1215 l 710 1061 q 665 1042 693 1042 l 582 1042 m 307 1042 q 285 1064 285 1042 q 288 1075 285 1069 q 292 1085 290 1081 l 354 1225 q 406 1251 367 1251 l 544 1251 q 572 1225 572 1251 q 564 1207 572 1215 l 435 1061 q 390 1042 418 1042 l 307 1042 z "},"Ō":{"ha":976,"x_min":71,"x_max":908,"o":"m 489 -14 q 271 28 363 -14 q 128 153 179 69 q 72 365 76 238 q 71 484 71 425 q 72 604 71 543 q 128 815 76 729 q 273 943 181 900 q 489 986 365 986 q 703 943 611 986 q 849 815 796 900 q 906 604 901 729 q 908 484 908 543 q 906 365 908 425 q 849 153 901 238 q 706 28 797 69 q 489 -14 614 -14 m 489 167 q 622 215 569 167 q 676 372 674 264 q 679 487 679 433 q 676 600 679 540 q 650 718 675 672 q 584 785 625 764 q 489 806 543 806 q 394 785 436 806 q 328 718 353 764 q 300 600 303 672 q 299 487 299 540 q 300 372 299 433 q 356 215 304 264 q 489 167 407 167 m 286 1042 q 264 1050 272 1042 q 256 1074 256 1058 l 256 1163 q 264 1185 256 1176 q 286 1193 272 1193 l 690 1193 q 713 1185 704 1193 q 722 1163 722 1176 l 722 1074 q 713 1050 722 1058 q 690 1042 704 1042 l 286 1042 z "},"Ø":{"ha":1018,"x_min":17,"x_max":1003,"o":"m 511 -14 q 249 54 351 -14 q 113 260 146 122 l 61 240 q 44 236 51 236 q 24 244 32 236 q 17 264 17 251 l 17 354 q 24 380 17 371 q 47 394 31 389 l 93 413 q 92 508 92 461 q 94 604 93 556 q 152 815 100 729 q 297 943 204 900 q 511 986 389 986 q 762 922 658 986 q 903 729 865 857 l 958 750 q 975 754 969 754 q 994 747 986 754 q 1003 728 1003 740 l 1003 638 q 996 613 1003 621 q 972 597 989 604 l 929 581 q 931 472 931 525 q 928 365 931 418 q 872 153 924 238 q 729 28 821 69 q 511 -14 638 -14 m 511 167 q 644 215 593 167 q 700 372 696 264 q 701 434 700 407 q 701 492 701 461 l 325 344 q 385 209 335 251 q 511 167 436 167 m 321 503 l 693 647 q 631 768 681 731 q 511 806 582 806 q 417 785 458 806 q 351 718 375 764 q 324 600 326 672 q 322 549 322 572 q 321 503 321 526 z "},"Ǿ":{"ha":1018,"x_min":17,"x_max":1003,"o":"m 511 -14 q 249 54 351 -14 q 113 260 146 122 l 61 240 q 44 236 51 236 q 24 244 32 236 q 17 264 17 251 l 17 354 q 24 380 17 371 q 47 394 31 389 l 93 413 q 92 508 92 461 q 94 604 93 556 q 152 815 100 729 q 297 943 204 900 q 511 986 389 986 q 762 922 658 986 q 903 729 865 857 l 958 750 q 975 754 969 754 q 994 747 986 754 q 1003 728 1003 740 l 1003 638 q 996 613 1003 621 q 972 597 989 604 l 929 581 q 931 472 931 525 q 928 365 931 418 q 872 153 924 238 q 729 28 821 69 q 511 -14 638 -14 m 511 167 q 644 215 593 167 q 700 372 696 264 q 701 434 700 407 q 701 492 701 461 l 325 344 q 385 209 335 251 q 511 167 436 167 m 321 503 l 693 647 q 631 768 681 731 q 511 806 582 806 q 417 785 458 806 q 351 718 375 764 q 324 600 326 672 q 322 549 322 572 q 321 503 321 526 m 433 1042 q 411 1064 411 1042 q 418 1082 411 1075 l 536 1225 q 559 1247 549 1242 q 588 1251 569 1251 l 758 1251 q 785 1224 785 1251 q 778 1207 785 1214 l 599 1061 q 577 1047 588 1051 q 549 1042 567 1042 l 433 1042 z "},"Õ":{"ha":976,"x_min":71,"x_max":908,"o":"m 489 -14 q 271 28 363 -14 q 128 153 179 69 q 72 365 76 238 q 71 484 71 425 q 72 604 71 543 q 128 815 76 729 q 273 943 181 900 q 489 986 365 986 q 703 943 611 986 q 849 815 796 900 q 906 604 901 729 q 908 484 908 543 q 906 365 908 425 q 849 153 901 238 q 706 28 797 69 q 489 -14 614 -14 m 489 167 q 622 215 569 167 q 676 372 674 264 q 679 487 679 433 q 676 600 679 540 q 650 718 675 672 q 584 785 625 764 q 489 806 543 806 q 394 785 436 806 q 328 718 353 764 q 300 600 303 672 q 299 487 299 540 q 300 372 299 433 q 356 215 304 264 q 489 167 407 167 m 569 1035 q 508 1047 532 1035 q 463 1072 483 1060 q 419 1083 443 1083 q 393 1074 401 1083 q 378 1053 385 1064 q 356 1042 371 1042 l 282 1042 q 265 1049 272 1042 q 258 1065 258 1057 q 266 1115 258 1088 q 292 1169 274 1143 q 338 1213 310 1196 q 406 1231 365 1231 q 467 1218 443 1231 q 512 1194 492 1206 q 556 1182 532 1182 q 583 1192 575 1182 q 597 1213 590 1203 q 619 1224 604 1224 l 693 1224 q 710 1217 704 1224 q 717 1200 717 1210 q 708 1150 717 1178 q 683 1096 700 1122 q 637 1052 665 1069 q 569 1035 608 1035 z "},"Œ":{"ha":1324,"x_min":71,"x_max":1260,"o":"m 492 0 q 263 41 354 0 q 124 167 171 82 q 72 381 76 251 q 71 486 71 440 q 72 593 71 532 q 125 801 76 717 q 267 928 174 885 q 499 972 361 972 l 1214 972 q 1239 963 1229 972 q 1249 938 1249 953 l 1249 826 q 1239 801 1249 811 q 1214 792 1229 792 l 806 792 l 806 575 l 1183 575 q 1208 565 1199 575 q 1218 540 1218 556 l 1218 438 q 1208 413 1218 424 q 1183 403 1199 403 l 806 403 l 806 181 l 1225 181 q 1250 171 1240 181 q 1260 146 1260 161 l 1260 35 q 1250 10 1260 19 q 1225 0 1240 0 l 492 0 m 499 181 l 592 181 l 592 792 l 506 792 q 349 743 400 792 q 296 590 299 694 q 295 519 296 551 q 295 456 294 488 q 296 383 296 424 q 320 266 299 311 q 385 201 342 221 q 499 181 429 181 z "},"Þ":{"ha":931,"x_min":103,"x_max":888,"o":"m 136 0 q 113 10 122 0 q 103 35 103 19 l 103 938 q 113 963 103 953 q 136 972 122 972 l 297 972 q 321 963 311 972 q 331 938 331 953 l 331 806 l 514 806 q 712 771 628 806 q 842 666 796 736 q 888 490 888 596 q 842 317 888 385 q 712 215 796 249 q 514 182 628 182 l 331 182 l 331 35 q 321 10 331 19 q 296 0 311 0 l 136 0 m 328 354 l 510 354 q 619 389 581 354 q 658 492 658 424 q 623 592 658 553 q 510 632 588 632 l 328 632 l 328 354 z "},"Ŕ":{"ha":947,"x_min":103,"x_max":901,"o":"m 136 0 q 113 10 122 0 q 103 35 103 19 l 103 938 q 113 963 103 953 q 136 972 122 972 l 506 972 q 779 892 679 972 q 879 663 879 813 q 831 493 879 561 q 700 392 782 425 l 897 44 q 901 29 901 36 q 892 9 901 18 q 872 0 883 0 l 717 0 q 679 13 692 0 q 661 38 667 26 l 492 356 l 324 356 l 324 35 q 314 10 324 19 q 289 0 304 0 l 136 0 m 324 532 l 503 532 q 615 567 578 532 q 651 664 651 601 q 615 763 651 726 q 503 799 579 799 l 324 799 l 324 532 m 371 1042 q 349 1064 349 1042 q 356 1082 349 1075 l 474 1225 q 497 1247 486 1242 q 525 1251 507 1251 l 696 1251 q 722 1224 722 1251 q 715 1207 722 1214 l 536 1061 q 515 1047 525 1051 q 486 1042 504 1042 l 371 1042 z "},"Ř":{"ha":947,"x_min":103,"x_max":901,"o":"m 136 0 q 113 10 122 0 q 103 35 103 19 l 103 938 q 113 963 103 953 q 136 972 122 972 l 506 972 q 779 892 679 972 q 879 663 879 813 q 831 493 879 561 q 700 392 782 425 l 897 44 q 901 29 901 36 q 892 9 901 18 q 872 0 883 0 l 717 0 q 679 13 692 0 q 661 38 667 26 l 492 356 l 324 356 l 324 35 q 314 10 324 19 q 289 0 304 0 l 136 0 m 324 532 l 503 532 q 615 567 578 532 q 651 664 651 601 q 615 763 651 726 q 503 799 579 799 l 324 799 l 324 532 m 397 1042 q 374 1047 385 1042 q 349 1065 364 1051 l 210 1210 q 199 1232 199 1221 q 219 1251 199 1251 l 282 1251 q 305 1249 293 1251 q 326 1242 317 1247 l 447 1171 l 567 1242 q 588 1249 576 1247 q 613 1251 600 1251 l 674 1251 q 694 1232 694 1251 q 683 1210 694 1221 l 544 1065 q 520 1047 531 1051 q 497 1042 510 1042 l 397 1042 z "},"Ŗ":{"ha":947,"x_min":103,"x_max":901,"o":"m 136 0 q 113 10 122 0 q 103 35 103 19 l 103 938 q 113 963 103 953 q 136 972 122 972 l 506 972 q 779 892 679 972 q 879 663 879 813 q 831 493 879 561 q 700 392 782 425 l 897 44 q 901 29 901 36 q 892 9 901 18 q 872 0 883 0 l 717 0 q 679 13 692 0 q 661 38 667 26 l 492 356 l 324 356 l 324 35 q 314 10 324 19 q 289 0 304 0 l 136 0 m 324 532 l 503 532 q 615 567 578 532 q 651 664 651 601 q 615 763 651 726 q 503 799 579 799 l 324 799 l 324 532 m 368 -321 q 350 -312 357 -321 q 343 -290 343 -303 l 369 -115 q 383 -83 372 -97 q 418 -69 394 -69 l 556 -69 q 574 -78 567 -69 q 582 -96 582 -86 q 578 -112 582 -106 l 513 -283 q 496 -309 507 -297 q 464 -321 485 -321 l 368 -321 z "},"Ś":{"ha":906,"x_min":46,"x_max":860,"o":"m 453 -14 q 230 25 319 -14 q 94 126 140 64 q 46 260 49 189 q 54 281 46 272 q 75 289 63 289 l 225 289 q 253 282 243 289 q 271 264 263 275 q 302 217 281 239 q 360 181 324 194 q 453 167 397 167 q 588 196 543 167 q 633 275 633 225 q 609 332 633 310 q 533 372 585 354 q 394 410 481 390 q 217 469 290 433 q 108 560 144 504 q 71 700 71 617 q 117 848 71 783 q 246 949 163 913 q 444 986 329 986 q 609 961 538 986 q 728 896 681 936 q 801 810 776 856 q 828 721 826 764 q 820 699 828 708 q 799 690 813 690 l 643 690 q 618 696 629 690 q 599 715 607 701 q 551 779 592 753 q 444 806 510 806 q 337 781 376 806 q 297 706 297 757 q 318 649 297 672 q 386 609 339 626 q 514 572 433 592 q 711 512 635 547 q 824 422 788 476 q 860 283 860 367 q 808 124 860 190 q 665 22 757 57 q 453 -14 574 -14 m 379 1042 q 357 1064 357 1042 q 364 1082 357 1075 l 482 1225 q 505 1247 494 1242 q 533 1251 515 1251 l 704 1251 q 731 1224 731 1251 q 724 1207 731 1214 l 544 1061 q 523 1047 533 1051 q 494 1042 513 1042 l 379 1042 z "},"Š":{"ha":906,"x_min":46,"x_max":860,"o":"m 453 -14 q 230 25 319 -14 q 94 126 140 64 q 46 260 49 189 q 54 281 46 272 q 75 289 63 289 l 225 289 q 253 282 243 289 q 271 264 263 275 q 302 217 281 239 q 360 181 324 194 q 453 167 397 167 q 588 196 543 167 q 633 275 633 225 q 609 332 633 310 q 533 372 585 354 q 394 410 481 390 q 217 469 290 433 q 108 560 144 504 q 71 700 71 617 q 117 848 71 783 q 246 949 163 913 q 444 986 329 986 q 609 961 538 986 q 728 896 681 936 q 801 810 776 856 q 828 721 826 764 q 820 699 828 708 q 799 690 813 690 l 643 690 q 618 696 629 690 q 599 715 607 701 q 551 779 592 753 q 444 806 510 806 q 337 781 376 806 q 297 706 297 757 q 318 649 297 672 q 386 609 339 626 q 514 572 433 592 q 711 512 635 547 q 824 422 788 476 q 860 283 860 367 q 808 124 860 190 q 665 22 757 57 q 453 -14 574 -14 m 404 1042 q 381 1047 392 1042 q 356 1065 371 1051 l 217 1210 q 206 1232 206 1221 q 226 1251 206 1251 l 289 1251 q 312 1249 300 1251 q 333 1242 324 1247 l 454 1171 l 574 1242 q 595 1249 583 1247 q 619 1251 607 1251 l 681 1251 q 701 1232 701 1251 q 690 1210 701 1221 l 551 1065 q 527 1047 538 1051 q 504 1042 517 1042 l 404 1042 z "},"Ş":{"ha":906,"x_min":46,"x_max":860,"o":"m 450 -306 q 382 -293 413 -306 q 339 -264 351 -281 q 339 -235 326 -247 l 364 -212 q 385 -206 376 -201 q 408 -219 394 -211 q 450 -228 422 -228 q 485 -215 471 -228 q 499 -183 499 -203 q 485 -153 499 -165 q 450 -140 472 -140 q 418 -145 432 -140 q 392 -151 404 -150 q 371 -143 381 -153 l 344 -117 q 338 -98 336 -108 q 347 -72 340 -87 l 375 -10 q 194 42 267 1 q 84 140 121 82 q 46 260 47 197 q 54 281 46 272 q 75 289 63 289 l 225 289 q 253 282 243 289 q 271 264 263 275 q 302 217 281 239 q 360 181 324 194 q 453 167 397 167 q 588 196 543 167 q 633 275 633 225 q 609 332 633 310 q 533 372 585 354 q 394 410 481 390 q 217 469 290 433 q 108 560 144 504 q 71 700 71 617 q 117 848 71 783 q 246 949 163 913 q 444 986 329 986 q 609 961 538 986 q 728 896 681 936 q 801 810 776 856 q 828 721 826 764 q 820 699 828 708 q 799 690 813 690 l 643 690 q 618 696 629 690 q 599 715 607 701 q 551 779 592 753 q 444 806 510 806 q 337 781 376 806 q 297 706 297 757 q 318 649 297 672 q 386 609 339 626 q 514 572 433 592 q 711 512 635 547 q 824 422 788 476 q 860 283 860 367 q 808 125 860 192 q 666 23 757 58 q 456 -14 575 -12 l 428 -71 q 451 -65 436 -67 q 475 -62 465 -62 q 553 -96 524 -62 q 583 -182 583 -129 q 549 -270 583 -235 q 450 -306 514 -306 z "},"Ŝ":{"ha":906,"x_min":46,"x_max":860,"o":"m 453 -14 q 230 25 319 -14 q 94 126 140 64 q 46 260 49 189 q 54 281 46 272 q 75 289 63 289 l 225 289 q 253 282 243 289 q 271 264 263 275 q 302 217 281 239 q 360 181 324 194 q 453 167 397 167 q 588 196 543 167 q 633 275 633 225 q 609 332 633 310 q 533 372 585 354 q 394 410 481 390 q 217 469 290 433 q 108 560 144 504 q 71 700 71 617 q 117 848 71 783 q 246 949 163 913 q 444 986 329 986 q 609 961 538 986 q 728 896 681 936 q 801 810 776 856 q 828 721 826 764 q 820 699 828 708 q 799 690 813 690 l 643 690 q 618 696 629 690 q 599 715 607 701 q 551 779 592 753 q 444 806 510 806 q 337 781 376 806 q 297 706 297 757 q 318 649 297 672 q 386 609 339 626 q 514 572 433 592 q 711 512 635 547 q 824 422 788 476 q 860 283 860 367 q 808 124 860 190 q 665 22 757 57 q 453 -14 574 -14 m 226 1042 q 206 1061 206 1042 q 217 1083 206 1072 l 356 1228 q 381 1247 371 1243 q 404 1251 392 1251 l 504 1251 q 527 1247 517 1251 q 551 1228 538 1243 l 690 1083 q 701 1061 701 1072 q 681 1042 701 1042 l 619 1042 q 595 1044 607 1042 q 574 1051 583 1046 l 454 1122 l 333 1051 q 312 1044 324 1046 q 289 1042 300 1042 l 226 1042 z "},"Ș":{"ha":906,"x_min":46,"x_max":860,"o":"m 453 -14 q 230 25 319 -14 q 94 126 140 64 q 46 260 49 189 q 54 281 46 272 q 75 289 63 289 l 225 289 q 253 282 243 289 q 271 264 263 275 q 302 217 281 239 q 360 181 324 194 q 453 167 397 167 q 588 196 543 167 q 633 275 633 225 q 609 332 633 310 q 533 372 585 354 q 394 410 481 390 q 217 469 290 433 q 108 560 144 504 q 71 700 71 617 q 117 848 71 783 q 246 949 163 913 q 444 986 329 986 q 609 961 538 986 q 728 896 681 936 q 801 810 776 856 q 828 721 826 764 q 820 699 828 708 q 799 690 813 690 l 643 690 q 618 696 629 690 q 599 715 607 701 q 551 779 592 753 q 444 806 510 806 q 337 781 376 806 q 297 706 297 757 q 318 649 297 672 q 386 609 339 626 q 514 572 433 592 q 711 512 635 547 q 824 422 788 476 q 860 283 860 367 q 808 124 860 190 q 665 22 757 57 q 453 -14 574 -14 m 340 -321 q 322 -312 329 -321 q 315 -290 315 -303 l 342 -115 q 356 -83 344 -97 q 390 -69 367 -69 l 528 -69 q 547 -78 539 -69 q 554 -96 554 -86 q 550 -112 554 -106 l 485 -283 q 468 -309 479 -297 q 436 -321 457 -321 l 340 -321 z "},"Ŧ":{"ha":869,"x_min":36,"x_max":833,"o":"m 357 0 q 332 10 342 0 q 322 35 322 19 l 322 421 l 179 421 q 154 431 164 421 q 144 454 144 440 l 144 515 q 154 540 144 531 q 179 550 164 550 l 322 550 l 322 778 l 71 778 q 46 788 56 778 q 36 813 36 797 l 36 938 q 46 963 36 953 q 71 972 56 972 l 799 972 q 824 963 814 972 q 833 938 833 953 l 833 813 q 824 788 833 797 q 799 778 814 778 l 547 778 l 547 550 l 690 550 q 715 540 706 550 q 725 515 725 531 l 725 454 q 715 431 725 440 q 690 421 706 421 l 547 421 l 547 35 q 538 10 547 19 q 513 0 528 0 l 357 0 z "},"Ť":{"ha":857,"x_min":31,"x_max":826,"o":"m 351 0 q 326 10 336 0 q 317 35 317 19 l 317 778 l 64 778 q 40 788 50 778 q 31 813 31 797 l 31 938 q 40 963 31 953 q 64 972 50 972 l 792 972 q 817 963 807 972 q 826 938 826 953 l 826 813 q 817 788 826 797 q 792 778 807 778 l 540 778 l 540 35 q 531 10 540 19 q 506 0 521 0 l 351 0 m 379 1042 q 356 1047 367 1042 q 331 1065 346 1051 l 192 1210 q 181 1232 181 1221 q 201 1251 181 1251 l 264 1251 q 287 1249 275 1251 q 308 1242 299 1247 l 429 1171 l 549 1242 q 570 1249 558 1247 q 594 1251 582 1251 l 656 1251 q 676 1232 676 1251 q 665 1210 676 1221 l 526 1065 q 502 1047 513 1051 q 479 1042 492 1042 l 379 1042 z "},"Ț":{"ha":857,"x_min":31,"x_max":826,"o":"m 351 0 q 326 10 336 0 q 317 35 317 19 l 317 778 l 64 778 q 40 788 50 778 q 31 813 31 797 l 31 938 q 40 963 31 953 q 64 972 50 972 l 792 972 q 817 963 807 972 q 826 938 826 953 l 826 813 q 817 788 826 797 q 792 778 807 778 l 540 778 l 540 35 q 531 10 540 19 q 506 0 521 0 l 351 0 m 314 -321 q 296 -312 303 -321 q 289 -290 289 -303 l 315 -115 q 329 -83 318 -97 q 364 -69 340 -69 l 501 -69 q 520 -78 513 -69 q 528 -96 528 -86 q 524 -112 528 -106 l 458 -283 q 442 -309 453 -297 q 410 -321 431 -321 l 314 -321 z "},"Ú":{"ha":999,"x_min":94,"x_max":904,"o":"m 500 -14 q 286 27 378 -14 q 144 153 194 68 q 94 371 94 239 l 94 938 q 104 963 94 953 q 128 972 114 972 l 281 972 q 306 963 296 972 q 315 938 315 953 l 315 372 q 364 221 315 271 q 500 171 413 171 q 635 221 586 171 q 683 372 683 271 l 683 938 q 694 963 683 953 q 718 972 704 972 l 871 972 q 894 963 885 972 q 904 938 904 953 l 904 371 q 855 153 904 239 q 715 27 806 68 q 500 -14 624 -14 m 425 1042 q 403 1064 403 1042 q 410 1082 403 1075 l 528 1225 q 551 1247 540 1242 q 579 1251 561 1251 l 750 1251 q 776 1224 776 1251 q 769 1207 776 1214 l 590 1061 q 569 1047 579 1051 q 540 1042 558 1042 l 425 1042 z "},"Ŭ":{"ha":999,"x_min":94,"x_max":904,"o":"m 500 -14 q 286 27 378 -14 q 144 153 194 68 q 94 371 94 239 l 94 938 q 104 963 94 953 q 128 972 114 972 l 281 972 q 306 963 296 972 q 315 938 315 953 l 315 372 q 364 221 315 271 q 500 171 413 171 q 635 221 586 171 q 683 372 683 271 l 683 938 q 694 963 683 953 q 718 972 704 972 l 871 972 q 894 963 885 972 q 904 938 904 953 l 904 371 q 855 153 904 239 q 715 27 806 68 q 500 -14 624 -14 m 500 1032 q 381 1058 426 1032 q 316 1126 336 1083 q 296 1221 296 1169 q 303 1240 296 1232 q 322 1247 310 1247 l 403 1247 q 422 1240 415 1247 q 429 1221 429 1232 q 443 1163 429 1189 q 500 1138 457 1138 q 556 1163 542 1138 q 569 1221 569 1189 q 576 1240 569 1232 q 596 1247 583 1247 l 678 1247 q 697 1240 690 1247 q 704 1221 704 1232 q 683 1126 704 1169 q 618 1058 663 1083 q 500 1032 574 1032 z "},"Û":{"ha":999,"x_min":94,"x_max":904,"o":"m 500 -14 q 286 27 378 -14 q 144 153 194 68 q 94 371 94 239 l 94 938 q 104 963 94 953 q 128 972 114 972 l 281 972 q 306 963 296 972 q 315 938 315 953 l 315 372 q 364 221 315 271 q 500 171 413 171 q 635 221 586 171 q 683 372 683 271 l 683 938 q 694 963 683 953 q 718 972 704 972 l 871 972 q 894 963 885 972 q 904 938 904 953 l 904 371 q 855 153 904 239 q 715 27 806 68 q 500 -14 624 -14 m 272 1042 q 251 1061 251 1042 q 263 1083 251 1072 l 401 1228 q 427 1247 417 1243 q 450 1251 438 1251 l 550 1251 q 573 1247 563 1251 q 597 1228 583 1243 l 736 1083 q 747 1061 747 1072 q 726 1042 747 1042 l 665 1042 q 641 1044 653 1042 q 619 1051 629 1046 l 500 1122 l 379 1051 q 358 1044 369 1046 q 335 1042 346 1042 l 272 1042 z "},"Ü":{"ha":999,"x_min":94,"x_max":904,"o":"m 500 -14 q 286 27 378 -14 q 144 153 194 68 q 94 371 94 239 l 94 938 q 104 963 94 953 q 128 972 114 972 l 281 972 q 306 963 296 972 q 315 938 315 953 l 315 372 q 364 221 315 271 q 500 171 413 171 q 635 221 586 171 q 683 372 683 271 l 683 938 q 694 963 683 953 q 718 972 704 972 l 871 972 q 894 963 885 972 q 904 938 904 953 l 904 371 q 855 153 904 239 q 715 27 806 68 q 500 -14 624 -14 m 600 1042 q 576 1050 585 1042 q 568 1074 568 1058 l 568 1188 q 576 1210 568 1201 q 600 1219 585 1219 l 714 1219 q 737 1210 728 1219 q 746 1188 746 1201 l 746 1074 q 737 1050 746 1058 q 714 1042 728 1042 l 600 1042 m 283 1042 q 261 1050 269 1042 q 253 1074 253 1058 l 253 1188 q 261 1210 253 1201 q 283 1219 269 1219 l 399 1219 q 422 1210 413 1219 q 431 1188 431 1201 l 431 1074 q 422 1050 431 1058 q 399 1042 413 1042 l 283 1042 z "},"Ù":{"ha":999,"x_min":94,"x_max":904,"o":"m 500 -14 q 286 27 378 -14 q 144 153 194 68 q 94 371 94 239 l 94 938 q 104 963 94 953 q 128 972 114 972 l 281 972 q 306 963 296 972 q 315 938 315 953 l 315 372 q 364 221 315 271 q 500 171 413 171 q 635 221 586 171 q 683 372 683 271 l 683 938 q 694 963 683 953 q 718 972 704 972 l 871 972 q 894 963 885 972 q 904 938 904 953 l 904 371 q 855 153 904 239 q 715 27 806 68 q 500 -14 624 -14 m 464 1042 q 435 1047 446 1042 q 414 1061 425 1051 l 235 1207 q 228 1224 228 1214 q 254 1251 228 1251 l 425 1251 q 453 1247 443 1251 q 476 1225 464 1242 l 594 1082 q 601 1064 601 1075 q 579 1042 601 1042 l 464 1042 z "},"Ű":{"ha":999,"x_min":94,"x_max":904,"o":"m 500 -14 q 286 27 378 -14 q 144 153 194 68 q 94 371 94 239 l 94 938 q 104 963 94 953 q 128 972 114 972 l 281 972 q 306 963 296 972 q 315 938 315 953 l 315 372 q 364 221 315 271 q 500 171 413 171 q 635 221 586 171 q 683 372 683 271 l 683 938 q 694 963 683 953 q 718 972 704 972 l 871 972 q 894 963 885 972 q 904 938 904 953 l 904 371 q 855 153 904 239 q 715 27 806 68 q 500 -14 624 -14 m 593 1042 q 571 1064 571 1042 q 574 1075 571 1069 q 578 1085 576 1081 l 640 1225 q 692 1251 653 1251 l 831 1251 q 858 1225 858 1251 q 850 1207 858 1215 l 721 1061 q 676 1042 704 1042 l 593 1042 m 318 1042 q 296 1064 296 1042 q 299 1075 296 1069 q 303 1085 301 1081 l 365 1225 q 417 1251 378 1251 l 556 1251 q 583 1225 583 1251 q 575 1207 583 1215 l 446 1061 q 401 1042 429 1042 l 318 1042 z "},"Ū":{"ha":999,"x_min":94,"x_max":904,"o":"m 500 -14 q 286 27 378 -14 q 144 153 194 68 q 94 371 94 239 l 94 938 q 104 963 94 953 q 128 972 114 972 l 281 972 q 306 963 296 972 q 315 938 315 953 l 315 372 q 364 221 315 271 q 500 171 413 171 q 635 221 586 171 q 683 372 683 271 l 683 938 q 694 963 683 953 q 718 972 704 972 l 871 972 q 894 963 885 972 q 904 938 904 953 l 904 371 q 855 153 904 239 q 715 27 806 68 q 500 -14 624 -14 m 297 1042 q 275 1050 283 1042 q 267 1074 267 1058 l 267 1163 q 275 1185 267 1176 q 297 1193 283 1193 l 701 1193 q 724 1185 715 1193 q 733 1163 733 1176 l 733 1074 q 724 1050 733 1058 q 701 1042 715 1042 l 297 1042 z "},"Ų":{"ha":999,"x_min":94,"x_max":904,"o":"m 603 -306 q 485 -278 532 -306 q 414 -201 438 -250 q 390 -90 390 -153 q 394 -43 390 -64 q 403 -6 397 -22 q 177 107 260 15 q 94 371 94 199 l 94 938 q 104 963 94 953 q 128 972 114 972 l 281 972 q 306 963 296 972 q 315 938 315 953 l 315 372 q 364 221 315 271 q 500 171 413 171 q 635 221 586 171 q 683 372 683 271 l 683 938 q 694 963 683 953 q 718 972 704 972 l 871 972 q 894 963 885 972 q 904 938 904 953 l 904 371 q 867 178 904 257 q 760 55 829 100 q 599 -7 692 10 q 540 -34 560 -14 q 521 -90 521 -54 q 543 -153 521 -128 q 608 -179 565 -179 l 625 -179 q 650 -190 640 -179 q 660 -214 660 -200 l 660 -271 q 650 -296 660 -286 q 625 -306 640 -306 l 603 -306 z "},"Ů":{"ha":999,"x_min":94,"x_max":904,"o":"m 500 -14 q 286 27 378 -14 q 144 153 194 68 q 94 371 94 239 l 94 938 q 104 963 94 953 q 128 972 114 972 l 281 972 q 306 963 296 972 q 315 938 315 953 l 315 372 q 364 221 315 271 q 500 171 413 171 q 635 221 586 171 q 683 372 683 271 l 683 938 q 694 963 683 953 q 718 972 704 972 l 871 972 q 894 963 885 972 q 904 938 904 953 l 904 371 q 855 153 904 239 q 715 27 806 68 q 500 -14 624 -14 m 500 1028 q 412 1061 449 1028 q 375 1146 375 1094 q 412 1231 375 1197 q 500 1265 449 1265 q 588 1231 551 1265 q 625 1146 625 1197 q 588 1061 625 1094 q 500 1028 551 1028 m 500 1104 q 530 1116 518 1104 q 542 1146 542 1128 q 530 1176 542 1164 q 500 1188 518 1188 q 470 1176 482 1188 q 458 1146 458 1164 q 470 1116 458 1128 q 500 1104 482 1104 z "},"Ũ":{"ha":999,"x_min":94,"x_max":904,"o":"m 500 -14 q 286 27 378 -14 q 144 153 194 68 q 94 371 94 239 l 94 938 q 104 963 94 953 q 128 972 114 972 l 281 972 q 306 963 296 972 q 315 938 315 953 l 315 372 q 364 221 315 271 q 500 171 413 171 q 635 221 586 171 q 683 372 683 271 l 683 938 q 694 963 683 953 q 718 972 704 972 l 871 972 q 894 963 885 972 q 904 938 904 953 l 904 371 q 855 153 904 239 q 715 27 806 68 q 500 -14 624 -14 m 582 1035 q 520 1047 544 1035 q 476 1072 496 1060 q 432 1083 456 1083 q 406 1074 414 1083 q 390 1053 397 1064 q 368 1042 383 1042 l 294 1042 q 278 1049 285 1042 q 271 1065 271 1057 q 278 1115 271 1088 q 304 1169 286 1143 q 350 1213 322 1196 q 418 1231 378 1231 q 480 1218 456 1231 q 524 1194 504 1206 q 568 1182 544 1182 q 595 1192 588 1182 q 610 1213 603 1203 q 632 1224 617 1224 l 706 1224 q 723 1217 717 1224 q 729 1200 729 1210 q 721 1150 729 1178 q 695 1096 713 1122 q 649 1052 678 1069 q 582 1035 621 1035 z "},"Ẃ":{"ha":1143,"x_min":50,"x_max":1093,"o":"m 261 0 q 226 13 239 0 q 208 43 213 25 l 51 933 q 50 939 50 936 q 50 943 50 942 q 58 963 50 954 q 79 972 67 972 l 226 972 q 267 943 263 972 l 369 357 l 482 721 q 496 744 486 732 q 528 757 506 757 l 615 757 q 647 744 638 757 q 661 721 657 732 l 774 358 l 876 943 q 917 972 881 972 l 1064 972 q 1085 963 1076 972 q 1093 943 1093 954 q 1093 939 1093 942 q 1092 933 1093 936 l 935 43 q 919 13 932 25 q 882 0 906 0 l 769 0 q 735 12 747 0 q 719 36 724 24 l 572 467 l 424 36 q 408 12 419 24 q 374 0 396 0 l 261 0 m 497 1042 q 475 1064 475 1042 q 482 1082 475 1075 l 600 1225 q 623 1247 613 1242 q 651 1251 633 1251 l 822 1251 q 849 1224 849 1251 q 842 1207 849 1214 l 663 1061 q 641 1047 651 1051 q 613 1042 631 1042 l 497 1042 z "},"Ŵ":{"ha":1143,"x_min":50,"x_max":1093,"o":"m 261 0 q 226 13 239 0 q 208 43 213 25 l 51 933 q 50 939 50 936 q 50 943 50 942 q 58 963 50 954 q 79 972 67 972 l 226 972 q 267 943 263 972 l 369 357 l 482 721 q 496 744 486 732 q 528 757 506 757 l 615 757 q 647 744 638 757 q 661 721 657 732 l 774 358 l 876 943 q 917 972 881 972 l 1064 972 q 1085 963 1076 972 q 1093 943 1093 954 q 1093 939 1093 942 q 1092 933 1093 936 l 935 43 q 919 13 932 25 q 882 0 906 0 l 769 0 q 735 12 747 0 q 719 36 724 24 l 572 467 l 424 36 q 408 12 419 24 q 374 0 396 0 l 261 0 m 344 1042 q 324 1061 324 1042 q 335 1083 324 1072 l 474 1228 q 499 1247 489 1243 q 522 1251 510 1251 l 622 1251 q 645 1247 635 1251 q 669 1228 656 1243 l 808 1083 q 819 1061 819 1072 q 799 1042 819 1042 l 738 1042 q 713 1044 725 1042 q 692 1051 701 1046 l 572 1122 l 451 1051 q 430 1044 442 1046 q 407 1042 418 1042 l 344 1042 z "},"Ẅ":{"ha":1143,"x_min":50,"x_max":1093,"o":"m 261 0 q 226 13 239 0 q 208 43 213 25 l 51 933 q 50 939 50 936 q 50 943 50 942 q 58 963 50 954 q 79 972 67 972 l 226 972 q 267 943 263 972 l 369 357 l 482 721 q 496 744 486 732 q 528 757 506 757 l 615 757 q 647 744 638 757 q 661 721 657 732 l 774 358 l 876 943 q 917 972 881 972 l 1064 972 q 1085 963 1076 972 q 1093 943 1093 954 q 1093 939 1093 942 q 1092 933 1093 936 l 935 43 q 919 13 932 25 q 882 0 906 0 l 769 0 q 735 12 747 0 q 719 36 724 24 l 572 467 l 424 36 q 408 12 419 24 q 374 0 396 0 l 261 0 m 672 1042 q 649 1050 657 1042 q 640 1074 640 1058 l 640 1188 q 649 1210 640 1201 q 672 1219 657 1219 l 786 1219 q 809 1210 800 1219 q 818 1188 818 1201 l 818 1074 q 809 1050 818 1058 q 786 1042 800 1042 l 672 1042 m 356 1042 q 333 1050 342 1042 q 325 1074 325 1058 l 325 1188 q 333 1210 325 1201 q 356 1219 342 1219 l 471 1219 q 494 1210 485 1219 q 503 1188 503 1201 l 503 1074 q 494 1050 503 1058 q 471 1042 485 1042 l 356 1042 z "},"Ẁ":{"ha":1143,"x_min":50,"x_max":1093,"o":"m 261 0 q 226 13 239 0 q 208 43 213 25 l 51 933 q 50 939 50 936 q 50 943 50 942 q 58 963 50 954 q 79 972 67 972 l 226 972 q 267 943 263 972 l 369 357 l 482 721 q 496 744 486 732 q 528 757 506 757 l 615 757 q 647 744 638 757 q 661 721 657 732 l 774 358 l 876 943 q 917 972 881 972 l 1064 972 q 1085 963 1076 972 q 1093 943 1093 954 q 1093 939 1093 942 q 1092 933 1093 936 l 935 43 q 919 13 932 25 q 882 0 906 0 l 769 0 q 735 12 747 0 q 719 36 724 24 l 572 467 l 424 36 q 408 12 419 24 q 374 0 396 0 l 261 0 m 536 1042 q 508 1047 518 1042 q 486 1061 497 1051 l 307 1207 q 300 1224 300 1214 q 326 1251 300 1251 l 497 1251 q 526 1247 515 1251 q 549 1225 536 1242 l 667 1082 q 674 1064 674 1075 q 651 1042 674 1042 l 536 1042 z "},"Ý":{"ha":933,"x_min":26,"x_max":907,"o":"m 390 0 q 365 10 375 0 q 356 35 356 19 l 356 340 l 31 928 q 28 935 29 932 q 26 943 26 939 q 35 963 26 954 q 56 972 44 972 l 204 972 q 233 963 222 972 q 249 944 244 953 l 467 563 l 685 944 q 700 963 689 953 q 731 972 711 972 l 878 972 q 899 963 890 972 q 907 943 907 954 q 906 935 907 939 q 903 928 906 932 l 578 340 l 578 35 q 568 10 578 19 q 543 0 558 0 l 390 0 m 392 1042 q 369 1064 369 1042 q 376 1082 369 1075 l 494 1225 q 517 1247 507 1242 q 546 1251 528 1251 l 717 1251 q 743 1224 743 1251 q 736 1207 743 1214 l 557 1061 q 535 1047 546 1051 q 507 1042 525 1042 l 392 1042 z "},"Ŷ":{"ha":933,"x_min":26,"x_max":907,"o":"m 390 0 q 365 10 375 0 q 356 35 356 19 l 356 340 l 31 928 q 28 935 29 932 q 26 943 26 939 q 35 963 26 954 q 56 972 44 972 l 204 972 q 233 963 222 972 q 249 944 244 953 l 467 563 l 685 944 q 700 963 689 953 q 731 972 711 972 l 878 972 q 899 963 890 972 q 907 943 907 954 q 906 935 907 939 q 903 928 906 932 l 578 340 l 578 35 q 568 10 578 19 q 543 0 558 0 l 390 0 m 240 1042 q 219 1061 219 1042 q 231 1083 219 1072 l 369 1228 q 395 1247 385 1243 q 418 1251 406 1251 l 518 1251 q 541 1247 531 1251 q 565 1228 551 1243 l 704 1083 q 715 1061 715 1072 q 694 1042 715 1042 l 633 1042 q 609 1044 621 1042 q 588 1051 597 1046 l 468 1122 l 347 1051 q 326 1044 338 1046 q 303 1042 314 1042 l 240 1042 z "},"Ÿ":{"ha":933,"x_min":26,"x_max":907,"o":"m 390 0 q 365 10 375 0 q 356 35 356 19 l 356 340 l 31 928 q 28 935 29 932 q 26 943 26 939 q 35 963 26 954 q 56 972 44 972 l 204 972 q 233 963 222 972 q 249 944 244 953 l 467 563 l 685 944 q 700 963 689 953 q 731 972 711 972 l 878 972 q 899 963 890 972 q 907 943 907 954 q 906 935 907 939 q 903 928 906 932 l 578 340 l 578 35 q 568 10 578 19 q 543 0 558 0 l 390 0 m 568 1042 q 544 1050 553 1042 q 536 1074 536 1058 l 536 1188 q 544 1210 536 1201 q 568 1219 553 1219 l 682 1219 q 705 1210 696 1219 q 714 1188 714 1201 l 714 1074 q 705 1050 714 1058 q 682 1042 696 1042 l 568 1042 m 251 1042 q 229 1050 238 1042 q 221 1074 221 1058 l 221 1188 q 229 1210 221 1201 q 251 1219 238 1219 l 367 1219 q 390 1210 381 1219 q 399 1188 399 1201 l 399 1074 q 390 1050 399 1058 q 367 1042 381 1042 l 251 1042 z "},"Ỳ":{"ha":933,"x_min":26,"x_max":907,"o":"m 390 0 q 365 10 375 0 q 356 35 356 19 l 356 340 l 31 928 q 28 935 29 932 q 26 943 26 939 q 35 963 26 954 q 56 972 44 972 l 204 972 q 233 963 222 972 q 249 944 244 953 l 467 563 l 685 944 q 700 963 689 953 q 731 972 711 972 l 878 972 q 899 963 890 972 q 907 943 907 954 q 906 935 907 939 q 903 928 906 932 l 578 340 l 578 35 q 568 10 578 19 q 543 0 558 0 l 390 0 m 431 1042 q 402 1047 413 1042 q 381 1061 392 1051 l 201 1207 q 194 1224 194 1214 q 221 1251 194 1251 l 392 1251 q 420 1247 410 1251 q 443 1225 431 1242 l 561 1082 q 568 1064 568 1075 q 546 1042 568 1042 l 431 1042 z "},"Ź":{"ha":886,"x_min":53,"x_max":833,"o":"m 88 0 q 63 10 72 0 q 53 35 53 21 l 53 151 q 61 183 53 171 q 74 201 69 196 l 540 786 l 100 786 q 76 796 86 786 q 67 821 67 806 l 67 938 q 76 963 67 953 q 100 972 86 972 l 783 972 q 808 963 799 972 q 818 938 818 953 l 818 822 q 813 795 818 807 q 800 775 807 783 l 346 188 l 799 188 q 824 178 814 188 q 833 153 833 168 l 833 35 q 824 10 833 19 q 799 0 814 0 l 88 0 m 354 1042 q 332 1064 332 1042 q 339 1082 332 1075 l 457 1225 q 480 1247 469 1242 q 508 1251 490 1251 l 679 1251 q 706 1224 706 1251 q 699 1207 706 1214 l 519 1061 q 498 1047 508 1051 q 469 1042 488 1042 l 354 1042 z "},"Ž":{"ha":886,"x_min":53,"x_max":833,"o":"m 88 0 q 63 10 72 0 q 53 35 53 21 l 53 151 q 61 183 53 171 q 74 201 69 196 l 540 786 l 100 786 q 76 796 86 786 q 67 821 67 806 l 67 938 q 76 963 67 953 q 100 972 86 972 l 783 972 q 808 963 799 972 q 818 938 818 953 l 818 822 q 813 795 818 807 q 800 775 807 783 l 346 188 l 799 188 q 824 178 814 188 q 833 153 833 168 l 833 35 q 824 10 833 19 q 799 0 814 0 l 88 0 m 381 1042 q 358 1047 368 1042 q 332 1065 347 1051 l 193 1210 q 182 1232 182 1221 q 203 1251 182 1251 l 265 1251 q 288 1249 276 1251 q 310 1242 300 1247 l 431 1171 l 550 1242 q 572 1249 560 1247 q 596 1251 583 1251 l 657 1251 q 678 1232 678 1251 q 667 1210 678 1221 l 528 1065 q 503 1047 514 1051 q 481 1042 493 1042 l 381 1042 z "},"Ż":{"ha":886,"x_min":53,"x_max":833,"o":"m 88 0 q 63 10 72 0 q 53 35 53 21 l 53 151 q 61 183 53 171 q 74 201 69 196 l 540 786 l 100 786 q 76 796 86 786 q 67 821 67 806 l 67 938 q 76 963 67 953 q 100 972 86 972 l 783 972 q 808 963 799 972 q 818 938 818 953 l 818 822 q 813 795 818 807 q 800 775 807 783 l 346 188 l 799 188 q 824 178 814 188 q 833 153 833 168 l 833 35 q 824 10 833 19 q 799 0 814 0 l 88 0 m 364 1042 q 342 1050 350 1042 q 333 1074 333 1058 l 333 1203 q 342 1226 333 1217 q 364 1235 350 1235 l 494 1235 q 517 1226 508 1235 q 526 1203 526 1217 l 526 1074 q 517 1050 526 1058 q 494 1042 508 1042 l 364 1042 z "},"á":{"ha":806,"x_min":40,"x_max":725,"o":"m 300 -14 q 168 15 226 -14 q 75 92 110 43 q 40 200 40 140 q 120 356 40 299 q 331 433 200 413 l 513 460 l 513 485 q 488 568 513 539 q 400 597 463 597 q 327 579 354 597 q 285 532 300 561 q 251 514 274 514 l 119 514 q 96 523 104 514 q 89 544 88 532 q 107 600 89 568 q 163 663 125 632 q 259 715 200 694 q 401 736 318 736 q 551 715 489 736 q 652 657 614 694 q 708 570 690 619 q 725 464 725 521 l 725 35 q 715 10 725 19 q 692 0 706 0 l 554 0 q 531 10 540 0 q 521 35 521 19 l 521 86 q 472 37 503 60 q 399 0 442 14 q 300 -14 357 -14 m 356 131 q 438 150 401 131 q 494 210 474 169 q 515 311 515 250 l 515 335 l 386 314 q 278 276 313 301 q 243 215 243 251 q 259 170 243 189 q 301 141 275 151 q 356 131 326 131 m 319 826 q 297 849 297 826 q 304 867 297 860 l 422 1010 q 445 1031 435 1026 q 474 1036 456 1036 l 633 1036 q 660 1008 660 1036 q 653 992 660 999 l 475 846 q 453 831 464 836 q 424 826 442 826 l 319 826 z "},"ă":{"ha":806,"x_min":40,"x_max":725,"o":"m 300 -14 q 168 15 226 -14 q 75 92 110 43 q 40 200 40 140 q 120 356 40 299 q 331 433 200 413 l 513 460 l 513 485 q 488 568 513 539 q 400 597 463 597 q 327 579 354 597 q 285 532 300 561 q 251 514 274 514 l 119 514 q 96 523 104 514 q 89 544 88 532 q 107 600 89 568 q 163 663 125 632 q 259 715 200 694 q 401 736 318 736 q 551 715 489 736 q 652 657 614 694 q 708 570 690 619 q 725 464 725 521 l 725 35 q 715 10 725 19 q 692 0 706 0 l 554 0 q 531 10 540 0 q 521 35 521 19 l 521 86 q 472 37 503 60 q 399 0 442 14 q 300 -14 357 -14 m 356 131 q 438 150 401 131 q 494 210 474 169 q 515 311 515 250 l 515 335 l 386 314 q 278 276 313 301 q 243 215 243 251 q 259 170 243 189 q 301 141 275 151 q 356 131 326 131 m 397 819 q 284 846 328 819 q 220 915 240 872 q 200 1010 200 958 q 207 1028 200 1021 q 226 1036 214 1036 l 304 1036 q 324 1028 317 1036 q 331 1010 331 1021 q 344 951 331 978 q 397 925 358 925 q 451 951 438 925 q 464 1010 464 978 q 471 1028 464 1021 q 490 1036 478 1036 l 568 1036 q 588 1028 581 1036 q 594 1010 594 1021 q 574 915 594 958 q 510 846 554 872 q 397 819 467 819 z "},"â":{"ha":806,"x_min":40,"x_max":725,"o":"m 300 -14 q 168 15 226 -14 q 75 92 110 43 q 40 200 40 140 q 120 356 40 299 q 331 433 200 413 l 513 460 l 513 485 q 488 568 513 539 q 400 597 463 597 q 327 579 354 597 q 285 532 300 561 q 251 514 274 514 l 119 514 q 96 523 104 514 q 89 544 88 532 q 107 600 89 568 q 163 663 125 632 q 259 715 200 694 q 401 736 318 736 q 551 715 489 736 q 652 657 614 694 q 708 570 690 619 q 725 464 725 521 l 725 35 q 715 10 725 19 q 692 0 706 0 l 554 0 q 531 10 540 0 q 521 35 521 19 l 521 86 q 472 37 503 60 q 399 0 442 14 q 300 -14 357 -14 m 356 131 q 438 150 401 131 q 494 210 474 169 q 515 311 515 250 l 515 335 l 386 314 q 278 276 313 301 q 243 215 243 251 q 259 170 243 189 q 301 141 275 151 q 356 131 326 131 m 172 826 q 151 846 151 826 q 163 868 151 857 l 301 1013 q 326 1032 315 1028 q 350 1036 336 1036 l 442 1036 q 466 1032 456 1036 q 490 1013 476 1028 l 629 868 q 640 846 640 857 q 619 826 640 826 l 561 826 q 538 828 550 826 q 515 836 526 831 l 396 907 l 276 836 q 254 828 267 831 q 231 826 242 826 l 172 826 z "},"ä":{"ha":806,"x_min":40,"x_max":725,"o":"m 300 -14 q 168 15 226 -14 q 75 92 110 43 q 40 200 40 140 q 120 356 40 299 q 331 433 200 413 l 513 460 l 513 485 q 488 568 513 539 q 400 597 463 597 q 327 579 354 597 q 285 532 300 561 q 251 514 274 514 l 119 514 q 96 523 104 514 q 89 544 88 532 q 107 600 89 568 q 163 663 125 632 q 259 715 200 694 q 401 736 318 736 q 551 715 489 736 q 652 657 614 694 q 708 570 690 619 q 725 464 725 521 l 725 35 q 715 10 725 19 q 692 0 706 0 l 554 0 q 531 10 540 0 q 521 35 521 19 l 521 86 q 472 37 503 60 q 399 0 442 14 q 300 -14 357 -14 m 356 131 q 438 150 401 131 q 494 210 474 169 q 515 311 515 250 l 515 335 l 386 314 q 278 276 313 301 q 243 215 243 251 q 259 170 243 189 q 301 141 275 151 q 356 131 326 131 m 481 849 q 457 857 465 849 q 449 879 449 865 l 449 993 q 457 1016 449 1007 q 481 1025 465 1025 l 594 1025 q 617 1016 608 1025 q 626 993 626 1007 l 626 879 q 617 857 626 865 q 594 849 608 849 l 481 849 m 206 849 q 183 857 192 849 q 175 879 175 865 l 175 993 q 183 1016 175 1007 q 206 1025 192 1025 l 321 1025 q 344 1016 335 1025 q 353 993 353 1007 l 353 879 q 344 857 353 865 q 321 849 335 849 l 206 849 z "},"à":{"ha":806,"x_min":40,"x_max":725,"o":"m 300 -14 q 168 15 226 -14 q 75 92 110 43 q 40 200 40 140 q 120 356 40 299 q 331 433 200 413 l 513 460 l 513 485 q 488 568 513 539 q 400 597 463 597 q 327 579 354 597 q 285 532 300 561 q 251 514 274 514 l 119 514 q 96 523 104 514 q 89 544 88 532 q 107 600 89 568 q 163 663 125 632 q 259 715 200 694 q 401 736 318 736 q 551 715 489 736 q 652 657 614 694 q 708 570 690 619 q 725 464 725 521 l 725 35 q 715 10 725 19 q 692 0 706 0 l 554 0 q 531 10 540 0 q 521 35 521 19 l 521 86 q 472 37 503 60 q 399 0 442 14 q 300 -14 357 -14 m 356 131 q 438 150 401 131 q 494 210 474 169 q 515 311 515 250 l 515 335 l 386 314 q 278 276 313 301 q 243 215 243 251 q 259 170 243 189 q 301 141 275 151 q 356 131 326 131 m 368 826 q 338 831 349 826 q 317 846 328 836 l 138 992 q 131 1008 131 999 q 157 1036 131 1036 l 318 1036 q 346 1031 336 1036 q 369 1010 356 1026 l 488 867 q 494 849 494 860 q 472 826 494 826 l 368 826 z "},"ā":{"ha":806,"x_min":40,"x_max":725,"o":"m 300 -14 q 168 15 226 -14 q 75 92 110 43 q 40 200 40 140 q 120 356 40 299 q 331 433 200 413 l 513 460 l 513 485 q 488 568 513 539 q 400 597 463 597 q 327 579 354 597 q 285 532 300 561 q 251 514 274 514 l 119 514 q 96 523 104 514 q 89 544 88 532 q 107 600 89 568 q 163 663 125 632 q 259 715 200 694 q 401 736 318 736 q 551 715 489 736 q 652 657 614 694 q 708 570 690 619 q 725 464 725 521 l 725 35 q 715 10 725 19 q 692 0 706 0 l 554 0 q 531 10 540 0 q 521 35 521 19 l 521 86 q 472 37 503 60 q 399 0 442 14 q 300 -14 357 -14 m 356 131 q 438 150 401 131 q 494 210 474 169 q 515 311 515 250 l 515 335 l 386 314 q 278 276 313 301 q 243 215 243 251 q 259 170 243 189 q 301 141 275 151 q 356 131 326 131 m 213 844 q 190 853 199 844 q 182 876 182 861 l 182 960 q 190 983 182 974 q 213 992 199 992 l 581 992 q 603 983 594 992 q 613 960 613 974 l 613 876 q 603 853 613 861 q 581 844 594 844 l 213 844 z "},"ą":{"ha":806,"x_min":40,"x_max":725,"o":"m 675 -306 q 568 -279 613 -306 q 500 -205 524 -253 q 476 -96 476 -157 q 485 -45 476 -68 q 508 -5 494 -22 q 535 24 522 13 q 524 31 528 25 q 521 44 521 38 l 521 86 q 472 37 503 60 q 399 0 442 14 q 300 -14 357 -14 q 168 15 226 -14 q 75 92 110 43 q 40 200 40 140 q 120 356 40 299 q 331 433 200 413 l 513 460 l 513 485 q 488 568 513 539 q 400 597 463 597 q 339 585 363 597 q 299 556 315 572 q 267 528 282 540 q 258 517 263 519 q 247 514 254 514 l 119 514 q 97 523 106 514 q 89 544 88 532 q 107 600 89 568 q 163 663 125 632 q 259 715 200 694 q 401 736 318 736 q 551 715 489 736 q 652 657 614 694 q 708 570 690 619 q 725 464 725 521 l 725 35 q 717 13 725 22 q 697 0 710 4 l 685 0 q 625 -36 643 -11 q 607 -96 607 -61 q 625 -156 607 -133 q 681 -179 643 -179 l 692 -179 q 715 -190 706 -179 q 725 -214 725 -200 l 725 -271 q 715 -296 725 -286 q 692 -306 706 -306 l 675 -306 m 356 131 q 438 150 401 131 q 494 210 474 169 q 515 311 515 250 l 515 335 l 386 314 q 278 276 313 301 q 243 215 243 251 q 259 170 243 189 q 301 141 275 151 q 356 131 326 131 z "},"å":{"ha":806,"x_min":40,"x_max":725,"o":"m 300 -14 q 168 15 226 -14 q 75 92 110 43 q 40 200 40 140 q 120 356 40 299 q 331 433 200 413 l 513 460 l 513 485 q 488 568 513 539 q 400 597 463 597 q 327 579 354 597 q 285 532 300 561 q 251 514 274 514 l 119 514 q 96 523 104 514 q 89 544 88 532 q 107 600 89 568 q 163 663 125 632 q 259 715 200 694 q 401 736 318 736 q 551 715 489 736 q 652 657 614 694 q 708 570 690 619 q 725 464 725 521 l 725 35 q 715 10 725 19 q 692 0 706 0 l 554 0 q 531 10 540 0 q 521 35 521 19 l 521 86 q 472 37 503 60 q 399 0 442 14 q 300 -14 357 -14 m 356 131 q 438 150 401 131 q 494 210 474 169 q 515 311 515 250 l 515 335 l 386 314 q 278 276 313 301 q 243 215 243 251 q 259 170 243 189 q 301 141 275 151 q 356 131 326 131 m 396 819 q 308 853 344 819 q 271 938 271 886 q 308 1023 271 989 q 396 1057 344 1057 q 484 1023 447 1057 q 521 938 521 989 q 484 853 521 886 q 396 819 447 819 m 396 896 q 426 908 414 896 q 438 938 438 919 q 426 967 438 956 q 396 979 414 979 q 366 967 378 979 q 354 938 354 956 q 366 908 354 919 q 396 896 378 896 z "},"ã":{"ha":806,"x_min":40,"x_max":725,"o":"m 300 -14 q 168 15 226 -14 q 75 92 110 43 q 40 200 40 140 q 120 356 40 299 q 331 433 200 413 l 513 460 l 513 485 q 488 568 513 539 q 400 597 463 597 q 327 579 354 597 q 285 532 300 561 q 251 514 274 514 l 119 514 q 96 523 104 514 q 89 544 88 532 q 107 600 89 568 q 163 663 125 632 q 259 715 200 694 q 401 736 318 736 q 551 715 489 736 q 652 657 614 694 q 708 570 690 619 q 725 464 725 521 l 725 35 q 715 10 725 19 q 692 0 706 0 l 554 0 q 531 10 540 0 q 521 35 521 19 l 521 86 q 472 37 503 60 q 399 0 442 14 q 300 -14 357 -14 m 356 131 q 438 150 401 131 q 494 210 474 169 q 515 311 515 250 l 515 335 l 386 314 q 278 276 313 301 q 243 215 243 251 q 259 170 243 189 q 301 141 275 151 q 356 131 326 131 m 476 819 q 417 832 440 819 q 374 856 393 844 q 332 868 356 868 q 306 858 314 868 q 290 838 297 849 q 268 826 283 826 l 194 826 q 178 834 185 826 q 171 850 171 842 q 178 900 171 872 q 203 953 186 928 q 249 994 221 978 q 315 1011 276 1011 q 376 999 353 1011 q 419 975 400 988 q 461 963 439 963 q 488 974 481 963 q 503 995 496 985 q 525 1006 510 1006 l 599 1006 q 616 998 610 1006 q 622 981 622 990 q 615 932 622 960 q 590 878 607 904 q 544 836 572 853 q 476 819 517 819 z "},"æ":{"ha":1263,"x_min":42,"x_max":1210,"o":"m 315 -14 q 169 15 231 -14 q 74 92 107 43 q 42 200 42 140 q 121 357 42 299 q 331 435 200 415 l 514 463 l 514 486 q 488 569 514 540 q 400 597 463 597 q 340 585 364 597 q 299 556 315 572 q 267 528 282 540 q 258 517 263 519 q 247 514 254 514 l 119 514 q 97 523 106 514 q 89 544 89 532 q 106 600 89 568 q 161 663 124 632 q 258 715 199 694 q 401 736 318 736 q 549 713 493 736 q 633 650 604 689 q 731 713 675 689 q 861 736 786 736 q 1028 703 961 736 q 1134 617 1094 671 q 1192 498 1174 563 q 1210 368 1210 433 l 1210 336 q 1199 312 1210 322 q 1175 301 1189 301 l 728 301 l 728 292 q 748 198 729 233 q 797 146 767 163 q 860 129 826 129 q 922 143 892 129 q 974 186 951 157 q 993 204 985 200 q 1017 208 1001 208 l 1161 208 q 1190 179 1190 208 q 1170 125 1190 157 q 1109 61 1150 93 q 1006 8 1068 29 q 861 -14 944 -14 q 701 18 768 -14 q 594 104 635 50 q 469 13 542 39 q 315 -14 396 -14 m 357 131 q 438 150 401 131 q 494 210 474 169 q 515 311 515 250 l 515 335 l 386 314 q 278 276 313 301 q 243 215 243 251 q 259 170 243 189 q 301 141 275 151 q 357 131 328 131 m 728 429 l 993 429 l 993 435 q 960 553 993 508 q 861 597 928 597 q 797 580 826 597 q 748 526 767 563 q 728 435 729 490 l 728 429 z "},"ǽ":{"ha":1263,"x_min":42,"x_max":1210,"o":"m 565 826 q 543 849 543 826 q 550 867 543 860 l 668 1010 q 691 1031 681 1026 q 719 1036 701 1036 l 879 1036 q 906 1008 906 1036 q 899 992 906 999 l 721 846 q 699 831 710 836 q 669 826 688 826 l 565 826 m 315 -14 q 169 15 231 -14 q 74 92 107 43 q 42 200 42 140 q 121 357 42 299 q 331 435 200 415 l 514 463 l 514 486 q 488 569 514 540 q 400 597 463 597 q 340 585 364 597 q 299 556 315 572 q 267 528 282 540 q 258 517 263 519 q 247 514 254 514 l 119 514 q 97 523 106 514 q 89 544 89 532 q 106 600 89 568 q 161 663 124 632 q 258 715 199 694 q 401 736 318 736 q 549 713 493 736 q 633 650 604 689 q 731 713 675 689 q 861 736 786 736 q 1028 703 961 736 q 1134 617 1094 671 q 1192 498 1174 563 q 1210 368 1210 433 l 1210 336 q 1199 312 1210 322 q 1175 301 1189 301 l 728 301 l 728 292 q 748 198 729 233 q 797 146 767 163 q 860 129 826 129 q 922 143 892 129 q 974 186 951 157 q 993 204 985 200 q 1017 208 1001 208 l 1161 208 q 1190 179 1190 208 q 1170 125 1190 157 q 1109 61 1150 93 q 1006 8 1068 29 q 861 -14 944 -14 q 701 18 768 -14 q 594 104 635 50 q 469 13 542 39 q 315 -14 396 -14 m 357 131 q 438 150 401 131 q 494 210 474 169 q 515 311 515 250 l 515 335 l 386 314 q 278 276 313 301 q 243 215 243 251 q 259 170 243 189 q 301 141 275 151 q 357 131 328 131 m 728 429 l 993 429 l 993 435 q 960 553 993 508 q 861 597 928 597 q 797 580 826 597 q 748 526 767 563 q 728 435 729 490 l 728 429 z "},"ć":{"ha":806,"x_min":58,"x_max":760,"o":"m 410 -14 q 230 24 307 -14 q 108 133 153 61 q 60 304 64 204 q 58 360 58 326 q 60 417 58 394 q 108 590 64 518 q 229 699 151 661 q 410 736 307 736 q 567 710 501 736 q 674 645 632 685 q 736 564 715 606 q 758 490 757 522 q 749 465 760 475 q 724 456 738 456 l 575 456 q 552 463 560 456 q 538 485 544 469 q 489 554 519 533 q 413 575 458 575 q 315 535 350 575 q 276 410 279 494 q 276 311 274 356 q 315 186 279 225 q 413 147 350 147 q 490 168 461 147 q 538 238 519 189 q 552 260 544 253 q 575 267 560 267 l 724 267 q 749 257 738 267 q 758 232 760 247 q 744 176 757 208 q 706 111 732 144 q 640 49 681 78 q 542 3 600 21 q 410 -14 485 -14 m 336 826 q 314 849 314 826 q 321 867 314 860 l 439 1010 q 462 1031 451 1026 q 490 1036 472 1036 l 650 1036 q 676 1008 676 1036 q 669 992 676 999 l 492 846 q 469 831 481 836 q 440 826 458 826 l 336 826 z "},"č":{"ha":806,"x_min":58,"x_max":760,"o":"m 410 -14 q 230 24 307 -14 q 108 133 153 61 q 60 304 64 204 q 58 360 58 326 q 60 417 58 394 q 108 590 64 518 q 229 699 151 661 q 410 736 307 736 q 567 710 501 736 q 674 645 632 685 q 736 564 715 606 q 758 490 757 522 q 749 465 760 475 q 724 456 738 456 l 575 456 q 552 463 560 456 q 538 485 544 469 q 489 554 519 533 q 413 575 458 575 q 315 535 350 575 q 276 410 279 494 q 276 311 274 356 q 315 186 279 225 q 413 147 350 147 q 490 168 461 147 q 538 238 519 189 q 552 260 544 253 q 575 267 560 267 l 724 267 q 749 257 738 267 q 758 232 760 247 q 744 176 757 208 q 706 111 732 144 q 640 49 681 78 q 542 3 600 21 q 410 -14 485 -14 m 363 826 q 338 831 349 826 q 314 850 328 836 l 175 994 q 164 1017 164 1006 q 185 1036 164 1036 l 243 1036 q 267 1034 254 1036 q 289 1026 279 1032 l 408 956 l 528 1026 q 551 1034 539 1032 q 574 1036 563 1036 l 632 1036 q 653 1017 653 1036 q 642 994 653 1006 l 503 850 q 478 831 489 836 q 454 826 468 826 l 363 826 z "},"ç":{"ha":806,"x_min":58,"x_max":760,"o":"m 408 -306 q 340 -293 371 -306 q 297 -264 310 -281 q 297 -235 285 -247 l 322 -212 q 344 -206 335 -201 q 367 -219 353 -211 q 408 -228 381 -228 q 443 -215 429 -228 q 457 -183 457 -203 q 444 -153 457 -165 q 408 -140 431 -140 q 376 -145 390 -140 q 351 -151 363 -150 q 329 -143 339 -153 l 303 -117 q 296 -98 294 -108 q 304 -72 297 -87 l 333 -8 q 139 92 213 11 q 60 304 65 172 q 58 360 58 326 q 60 417 58 394 q 108 590 64 518 q 229 699 151 661 q 410 736 307 736 q 567 710 501 736 q 674 645 632 685 q 736 564 715 606 q 758 490 757 522 q 749 465 760 475 q 724 456 738 456 l 575 456 q 552 463 560 456 q 538 485 544 469 q 489 554 519 533 q 413 575 458 575 q 315 535 350 575 q 276 410 279 494 q 276 311 274 356 q 315 186 279 225 q 413 147 350 147 q 490 168 461 147 q 538 238 519 189 q 552 260 544 253 q 575 267 560 267 l 724 267 q 749 257 738 267 q 758 232 760 247 q 738 161 757 203 q 678 80 718 119 q 573 14 638 40 q 414 -14 508 -12 l 386 -71 q 409 -65 394 -67 q 433 -62 424 -62 q 512 -96 482 -62 q 542 -182 542 -129 q 507 -270 542 -235 q 408 -306 472 -306 z "},"ĉ":{"ha":806,"x_min":58,"x_max":760,"o":"m 410 -14 q 230 24 307 -14 q 108 133 153 61 q 60 304 64 204 q 58 360 58 326 q 60 417 58 394 q 108 590 64 518 q 229 699 151 661 q 410 736 307 736 q 567 710 501 736 q 674 645 632 685 q 736 564 715 606 q 758 490 757 522 q 749 465 760 475 q 724 456 738 456 l 575 456 q 552 463 560 456 q 538 485 544 469 q 489 554 519 533 q 413 575 458 575 q 315 535 350 575 q 276 410 279 494 q 276 311 274 356 q 315 186 279 225 q 413 147 350 147 q 490 168 461 147 q 538 238 519 189 q 552 260 544 253 q 575 267 560 267 l 724 267 q 749 257 738 267 q 758 232 760 247 q 744 176 757 208 q 706 111 732 144 q 640 49 681 78 q 542 3 600 21 q 410 -14 485 -14 m 185 833 q 164 853 164 833 q 175 875 164 864 l 314 1019 q 338 1039 328 1035 q 363 1043 349 1043 l 454 1043 q 478 1039 468 1043 q 503 1019 489 1035 l 642 875 q 653 853 653 864 q 632 833 653 833 l 574 833 q 551 835 563 833 q 528 843 539 838 l 408 914 l 289 843 q 267 835 279 838 q 243 833 254 833 l 185 833 z "},"ċ":{"ha":806,"x_min":58,"x_max":760,"o":"m 410 -14 q 230 24 307 -14 q 108 133 153 61 q 60 304 64 204 q 58 360 58 326 q 60 417 58 394 q 108 590 64 518 q 229 699 151 661 q 410 736 307 736 q 567 710 501 736 q 674 645 632 685 q 736 564 715 606 q 758 490 757 522 q 749 465 760 475 q 724 456 738 456 l 575 456 q 552 463 560 456 q 538 485 544 469 q 489 554 519 533 q 413 575 458 575 q 315 535 350 575 q 276 410 279 494 q 276 311 274 356 q 315 186 279 225 q 413 147 350 147 q 490 168 461 147 q 538 238 519 189 q 552 260 544 253 q 575 267 560 267 l 724 267 q 749 257 738 267 q 758 232 760 247 q 744 176 757 208 q 706 111 732 144 q 640 49 681 78 q 542 3 600 21 q 410 -14 485 -14 m 346 842 q 324 850 332 842 q 315 872 315 858 l 315 999 q 324 1022 315 1013 q 346 1031 332 1031 l 472 1031 q 495 1022 486 1031 q 504 999 504 1013 l 504 872 q 495 850 504 858 q 472 842 486 842 l 346 842 z "},"ð":{"ha":826,"x_min":56,"x_max":765,"o":"m 410 -14 q 219 26 299 -14 q 98 141 140 65 q 56 319 56 217 q 99 499 56 425 q 224 613 143 574 q 410 653 304 653 q 465 646 440 653 q 508 626 489 639 q 443 747 485 693 l 294 689 q 278 685 285 685 q 258 692 267 685 q 250 713 250 700 l 250 746 q 257 772 250 763 q 281 786 264 781 l 375 822 q 323 869 351 846 q 265 915 294 893 q 249 931 254 924 q 244 943 244 938 q 253 964 244 956 q 274 972 261 972 l 422 972 q 460 967 444 972 q 485 954 475 961 q 521 924 503 939 q 554 892 539 908 l 682 942 q 699 946 693 946 q 718 938 710 946 q 726 918 726 931 l 726 885 q 719 860 726 868 q 696 844 713 851 l 625 817 q 724 630 688 739 q 765 363 761 521 q 765 339 765 351 q 765 315 765 326 q 719 140 763 214 q 599 26 676 65 q 410 -14 521 -14 m 410 140 q 488 161 457 140 q 533 218 518 182 q 549 299 549 254 q 549 319 549 310 q 549 339 549 328 q 533 421 547 385 q 490 478 519 457 q 410 499 460 499 q 332 478 363 499 q 287 421 301 457 q 271 339 272 385 q 271 319 271 328 q 271 299 271 310 q 287 218 272 254 q 332 161 301 182 q 410 140 363 140 z "},"ď":{"ha":864,"x_min":58,"x_max":1079,"o":"m 356 -14 q 232 9 286 -14 q 140 76 178 32 q 83 180 103 119 q 60 314 64 240 q 58 362 58 340 q 60 408 58 383 q 83 540 63 481 q 140 644 103 600 q 231 712 176 688 q 356 736 286 736 q 479 712 428 736 q 564 650 531 688 l 564 951 q 574 976 564 967 q 599 986 583 986 l 742 986 q 767 976 757 986 q 776 951 776 967 l 776 35 q 767 10 776 19 q 742 0 757 0 l 608 0 q 585 10 594 0 q 575 35 575 19 l 575 82 q 488 13 540 40 q 356 -14 435 -14 m 419 153 q 502 176 471 153 q 548 236 533 200 q 564 314 563 272 q 567 367 567 340 q 564 418 567 393 q 547 491 563 457 q 500 547 531 525 q 419 569 469 569 q 336 547 367 569 q 292 486 306 524 q 276 404 279 449 q 276 318 274 361 q 292 236 279 274 q 336 176 306 199 q 419 153 367 153 m 875 735 q 856 744 863 735 q 850 765 849 753 l 876 940 q 890 972 879 958 q 924 986 901 986 l 1054 986 q 1073 978 1065 986 q 1081 960 1081 969 q 1076 943 1081 950 l 1010 772 q 994 747 1004 758 q 963 735 983 735 l 875 735 z "},"đ":{"ha":864,"x_min":60,"x_max":871,"o":"m 357 -14 q 226 11 281 -14 q 136 81 172 36 q 82 185 100 125 q 61 314 64 244 q 60 362 60 340 q 61 408 60 383 q 81 535 63 475 q 135 640 99 594 q 226 710 171 685 q 357 736 281 736 q 479 712 428 736 q 565 650 531 688 l 565 776 l 504 776 q 479 786 489 776 q 469 811 469 796 l 469 857 q 479 881 469 871 q 504 890 489 890 l 565 890 l 565 951 q 575 976 565 967 q 599 986 585 986 l 743 986 q 767 976 757 986 q 776 951 776 967 l 776 890 l 838 890 q 861 881 851 890 q 871 857 871 871 l 871 811 q 861 786 871 796 q 838 776 851 776 l 776 776 l 776 35 q 767 10 776 19 q 743 0 757 0 l 610 0 q 585 10 594 0 q 575 35 575 19 l 575 88 q 489 15 543 43 q 357 -14 435 -14 m 419 153 q 503 176 472 153 q 549 236 533 200 q 565 314 564 272 q 567 367 567 340 q 565 418 567 393 q 548 491 564 457 q 501 547 532 525 q 419 569 469 569 q 338 547 368 569 q 294 486 307 524 q 278 404 281 449 q 278 318 274 361 q 294 236 281 274 q 338 176 307 199 q 419 153 368 153 z "},"é":{"ha":814,"x_min":57,"x_max":761,"o":"m 410 -14 q 156 75 250 -14 q 57 333 63 164 q 57 363 57 344 q 57 392 57 382 q 106 577 63 500 q 226 695 149 654 q 408 736 304 736 q 604 688 526 736 q 722 558 682 640 q 761 368 761 475 l 761 336 q 751 312 761 322 q 726 301 742 301 l 274 301 q 274 298 274 301 q 274 292 274 294 q 290 210 275 247 q 335 151 306 174 q 408 129 365 129 q 464 140 442 129 q 501 163 486 150 q 522 186 515 176 q 542 205 535 201 q 565 208 550 208 l 713 208 q 734 200 725 208 q 742 179 743 192 q 719 123 740 156 q 656 59 697 90 q 552 7 614 28 q 410 -14 490 -14 m 274 429 l 544 429 l 544 433 q 528 519 544 482 q 482 576 513 556 q 408 597 451 597 q 335 576 365 597 q 290 519 306 556 q 274 433 274 482 l 274 429 m 340 826 q 318 849 318 826 q 325 867 318 860 l 443 1010 q 466 1031 456 1026 q 494 1036 476 1036 l 654 1036 q 681 1008 681 1036 q 674 992 681 999 l 496 846 q 474 831 485 836 q 444 826 463 826 l 340 826 z "},"ĕ":{"ha":814,"x_min":57,"x_max":761,"o":"m 410 -14 q 156 75 250 -14 q 57 333 63 164 q 57 363 57 344 q 57 392 57 382 q 106 577 63 500 q 226 695 149 654 q 408 736 304 736 q 604 688 526 736 q 722 558 682 640 q 761 368 761 475 l 761 336 q 751 312 761 322 q 726 301 742 301 l 274 301 q 274 298 274 301 q 274 292 274 294 q 290 210 275 247 q 335 151 306 174 q 408 129 365 129 q 464 140 442 129 q 501 163 486 150 q 522 186 515 176 q 542 205 535 201 q 565 208 550 208 l 713 208 q 734 200 725 208 q 742 179 743 192 q 719 123 740 156 q 656 59 697 90 q 552 7 614 28 q 410 -14 490 -14 m 274 429 l 544 429 l 544 433 q 528 519 544 482 q 482 576 513 556 q 408 597 451 597 q 335 576 365 597 q 290 519 306 556 q 274 433 274 482 l 274 429 m 408 819 q 295 846 339 819 q 231 915 251 872 q 211 1010 211 958 q 218 1028 211 1021 q 238 1036 225 1036 l 315 1036 q 335 1028 328 1036 q 342 1010 342 1021 q 356 951 342 978 q 408 925 369 925 q 462 951 449 925 q 475 1010 475 978 q 482 1028 475 1021 q 501 1036 489 1036 l 579 1036 q 599 1028 592 1036 q 606 1010 606 1021 q 585 915 606 958 q 522 846 565 872 q 408 819 478 819 z "},"ě":{"ha":814,"x_min":57,"x_max":761,"o":"m 410 -14 q 156 75 250 -14 q 57 333 63 164 q 57 363 57 344 q 57 392 57 382 q 106 577 63 500 q 226 695 149 654 q 408 736 304 736 q 604 688 526 736 q 722 558 682 640 q 761 368 761 475 l 761 336 q 751 312 761 322 q 726 301 742 301 l 274 301 q 274 298 274 301 q 274 292 274 294 q 290 210 275 247 q 335 151 306 174 q 408 129 365 129 q 464 140 442 129 q 501 163 486 150 q 522 186 515 176 q 542 205 535 201 q 565 208 550 208 l 713 208 q 734 200 725 208 q 742 179 743 192 q 719 123 740 156 q 656 59 697 90 q 552 7 614 28 q 410 -14 490 -14 m 274 429 l 544 429 l 544 433 q 528 519 544 482 q 482 576 513 556 q 408 597 451 597 q 335 576 365 597 q 290 519 306 556 q 274 433 274 482 l 274 429 m 363 826 q 338 831 349 826 q 314 850 328 836 l 175 994 q 164 1017 164 1006 q 185 1036 164 1036 l 243 1036 q 267 1034 254 1036 q 289 1026 279 1032 l 408 956 l 528 1026 q 551 1034 539 1032 q 574 1036 563 1036 l 632 1036 q 653 1017 653 1036 q 642 994 653 1006 l 503 850 q 478 831 489 836 q 454 826 468 826 l 363 826 z "},"ê":{"ha":814,"x_min":57,"x_max":761,"o":"m 410 -14 q 156 75 250 -14 q 57 333 63 164 q 57 363 57 344 q 57 392 57 382 q 106 577 63 500 q 226 695 149 654 q 408 736 304 736 q 604 688 526 736 q 722 558 682 640 q 761 368 761 475 l 761 336 q 751 312 761 322 q 726 301 742 301 l 274 301 q 274 298 274 301 q 274 292 274 294 q 290 210 275 247 q 335 151 306 174 q 408 129 365 129 q 464 140 442 129 q 501 163 486 150 q 522 186 515 176 q 542 205 535 201 q 565 208 550 208 l 713 208 q 734 200 725 208 q 742 179 743 192 q 719 123 740 156 q 656 59 697 90 q 552 7 614 28 q 410 -14 490 -14 m 274 429 l 544 429 l 544 433 q 528 519 544 482 q 482 576 513 556 q 408 597 451 597 q 335 576 365 597 q 290 519 306 556 q 274 433 274 482 l 274 429 m 185 826 q 164 846 164 826 q 175 868 164 857 l 314 1013 q 338 1032 328 1028 q 363 1036 349 1036 l 454 1036 q 478 1032 468 1036 q 503 1013 489 1028 l 642 868 q 653 846 653 857 q 632 826 653 826 l 574 826 q 551 828 563 826 q 528 836 539 831 l 408 907 l 289 836 q 267 828 279 831 q 243 826 254 826 l 185 826 z "},"ë":{"ha":814,"x_min":57,"x_max":761,"o":"m 410 -14 q 156 75 250 -14 q 57 333 63 164 q 57 363 57 344 q 57 392 57 382 q 106 577 63 500 q 226 695 149 654 q 408 736 304 736 q 604 688 526 736 q 722 558 682 640 q 761 368 761 475 l 761 336 q 751 312 761 322 q 726 301 742 301 l 274 301 q 274 298 274 301 q 274 292 274 294 q 290 210 275 247 q 335 151 306 174 q 408 129 365 129 q 464 140 442 129 q 501 163 486 150 q 522 186 515 176 q 542 205 535 201 q 565 208 550 208 l 713 208 q 734 200 725 208 q 742 179 743 192 q 719 123 740 156 q 656 59 697 90 q 552 7 614 28 q 410 -14 490 -14 m 274 429 l 544 429 l 544 433 q 528 519 544 482 q 482 576 513 556 q 408 597 451 597 q 335 576 365 597 q 290 519 306 556 q 274 433 274 482 l 274 429 m 489 849 q 465 857 474 849 q 457 879 457 865 l 457 993 q 465 1016 457 1007 q 489 1025 474 1025 l 603 1025 q 626 1016 617 1025 q 635 993 635 1007 l 635 879 q 626 857 635 865 q 603 849 617 849 l 489 849 m 214 849 q 192 857 200 849 q 183 879 183 865 l 183 993 q 192 1016 183 1007 q 214 1025 200 1025 l 329 1025 q 352 1016 343 1025 q 361 993 361 1007 l 361 879 q 352 857 361 865 q 329 849 343 849 l 214 849 z "},"ė":{"ha":814,"x_min":57,"x_max":761,"o":"m 410 -14 q 156 75 250 -14 q 57 333 63 164 q 57 363 57 344 q 57 392 57 382 q 106 577 63 500 q 226 695 149 654 q 408 736 304 736 q 604 688 526 736 q 722 558 682 640 q 761 368 761 475 l 761 336 q 751 312 761 322 q 726 301 742 301 l 274 301 q 274 298 274 301 q 274 292 274 294 q 290 210 275 247 q 335 151 306 174 q 408 129 365 129 q 464 140 442 129 q 501 163 486 150 q 522 186 515 176 q 542 205 535 201 q 565 208 550 208 l 713 208 q 734 200 725 208 q 742 179 743 192 q 719 123 740 156 q 656 59 697 90 q 552 7 614 28 q 410 -14 490 -14 m 274 429 l 544 429 l 544 433 q 528 519 544 482 q 482 576 513 556 q 408 597 451 597 q 335 576 365 597 q 290 519 306 556 q 274 433 274 482 l 274 429 m 346 842 q 324 850 332 842 q 315 872 315 858 l 315 999 q 324 1022 315 1013 q 346 1031 332 1031 l 472 1031 q 495 1022 486 1031 q 504 999 504 1013 l 504 872 q 495 850 504 858 q 472 842 486 842 l 346 842 z "},"è":{"ha":814,"x_min":57,"x_max":761,"o":"m 410 -14 q 156 75 250 -14 q 57 333 63 164 q 57 363 57 344 q 57 392 57 382 q 106 577 63 500 q 226 695 149 654 q 408 736 304 736 q 604 688 526 736 q 722 558 682 640 q 761 368 761 475 l 761 336 q 751 312 761 322 q 726 301 742 301 l 274 301 q 274 298 274 301 q 274 292 274 294 q 290 210 275 247 q 335 151 306 174 q 408 129 365 129 q 464 140 442 129 q 501 163 486 150 q 522 186 515 176 q 542 205 535 201 q 565 208 550 208 l 713 208 q 734 200 725 208 q 742 179 743 192 q 719 123 740 156 q 656 59 697 90 q 552 7 614 28 q 410 -14 490 -14 m 274 429 l 544 429 l 544 433 q 528 519 544 482 q 482 576 513 556 q 408 597 451 597 q 335 576 365 597 q 290 519 306 556 q 274 433 274 482 l 274 429 m 378 826 q 348 831 358 826 q 326 846 338 836 l 147 992 q 140 1008 140 999 q 167 1036 140 1036 l 328 1036 q 356 1031 346 1036 q 379 1010 365 1026 l 497 867 q 504 849 504 860 q 482 826 504 826 l 378 826 z "},"ē":{"ha":814,"x_min":57,"x_max":761,"o":"m 410 -14 q 156 75 250 -14 q 57 333 63 164 q 57 363 57 344 q 57 392 57 382 q 106 577 63 500 q 226 695 149 654 q 408 736 304 736 q 604 688 526 736 q 722 558 682 640 q 761 368 761 475 l 761 336 q 751 312 761 322 q 726 301 742 301 l 274 301 q 274 298 274 301 q 274 292 274 294 q 290 210 275 247 q 335 151 306 174 q 408 129 365 129 q 464 140 442 129 q 501 163 486 150 q 522 186 515 176 q 542 205 535 201 q 565 208 550 208 l 713 208 q 734 200 725 208 q 742 179 743 192 q 719 123 740 156 q 656 59 697 90 q 552 7 614 28 q 410 -14 490 -14 m 274 429 l 544 429 l 544 433 q 528 519 544 482 q 482 576 513 556 q 408 597 451 597 q 335 576 365 597 q 290 519 306 556 q 274 433 274 482 l 274 429 m 225 844 q 203 853 211 844 q 194 876 194 861 l 194 960 q 203 983 194 974 q 225 992 211 992 l 593 992 q 616 983 607 992 q 625 960 625 974 l 625 876 q 616 853 625 861 q 593 844 607 844 l 225 844 z "},"ę":{"ha":814,"x_min":57,"x_max":763,"o":"m 483 -306 q 365 -278 413 -306 q 294 -201 318 -250 q 271 -90 271 -153 q 288 1 271 -37 q 122 115 182 31 q 58 333 61 200 q 57 363 57 344 q 58 390 57 381 q 106 576 63 499 q 226 694 149 653 q 410 736 304 736 q 604 688 526 736 q 722 558 682 640 q 763 368 763 475 l 763 336 q 752 312 763 322 q 728 301 742 301 l 274 301 l 274 292 q 290 210 275 247 q 336 151 306 174 q 408 129 367 129 q 464 140 442 129 q 501 163 486 150 q 522 186 515 176 q 542 205 535 201 q 567 208 550 208 l 713 208 q 735 200 726 208 q 743 179 744 192 q 712 113 742 151 q 626 41 682 75 q 488 -7 571 7 q 423 -35 444 -15 q 401 -90 401 -56 q 424 -153 401 -128 q 489 -179 446 -179 l 506 -179 q 531 -190 521 -179 q 540 -214 540 -200 l 540 -271 q 531 -296 540 -286 q 506 -306 521 -306 l 483 -306 m 274 429 l 544 429 l 544 433 q 528 519 544 482 q 482 576 513 556 q 408 597 451 597 q 335 576 365 597 q 290 519 306 556 q 274 433 274 482 l 274 429 z "},"ğ":{"ha":868,"x_min":58,"x_max":781,"o":"m 426 -306 q 256 -278 324 -306 q 148 -213 188 -251 q 92 -137 108 -175 q 74 -78 75 -100 q 83 -53 72 -64 q 108 -43 94 -43 l 257 -43 q 279 -49 271 -43 q 293 -72 288 -56 q 314 -108 301 -89 q 351 -139 326 -126 q 419 -151 376 -151 q 500 -137 468 -151 q 548 -90 532 -124 q 564 0 564 -57 l 564 93 q 480 33 531 57 q 356 10 429 10 q 228 33 283 10 q 138 98 174 56 q 82 200 101 140 q 60 335 63 260 q 60 408 58 372 q 82 540 63 481 q 138 644 101 600 q 228 712 174 688 q 356 736 283 736 q 486 707 432 736 q 575 635 540 678 l 575 688 q 585 712 575 701 q 608 722 594 722 l 744 722 q 769 712 760 722 q 779 688 779 701 l 781 19 q 740 -157 781 -85 q 622 -267 700 -229 q 426 -306 543 -306 m 419 174 q 501 196 469 174 q 547 253 532 218 q 564 328 563 289 q 565 372 565 343 q 564 415 565 400 q 547 489 563 454 q 501 547 532 524 q 419 569 469 569 q 336 547 367 569 q 292 486 306 524 q 276 404 279 449 q 276 339 274 371 q 292 256 279 293 q 336 196 306 218 q 419 174 367 174 m 419 819 q 306 846 350 819 q 242 915 263 872 q 222 1010 222 958 q 229 1028 222 1021 q 249 1036 236 1036 l 326 1036 q 346 1028 339 1036 q 353 1010 353 1021 q 367 951 353 978 q 419 925 381 925 q 473 951 460 925 q 486 1010 486 978 q 493 1028 486 1021 q 513 1036 500 1036 l 590 1036 q 610 1028 603 1036 q 617 1010 617 1021 q 597 915 617 958 q 533 846 576 872 q 419 819 489 819 z "},"ĝ":{"ha":868,"x_min":58,"x_max":781,"o":"m 426 -306 q 256 -278 324 -306 q 148 -213 188 -251 q 92 -137 108 -175 q 74 -78 75 -100 q 83 -53 72 -64 q 108 -43 94 -43 l 257 -43 q 279 -49 271 -43 q 293 -72 288 -56 q 314 -108 301 -89 q 351 -139 326 -126 q 419 -151 376 -151 q 500 -137 468 -151 q 548 -90 532 -124 q 564 0 564 -57 l 564 93 q 480 33 531 57 q 356 10 429 10 q 228 33 283 10 q 138 98 174 56 q 82 200 101 140 q 60 335 63 260 q 60 408 58 372 q 82 540 63 481 q 138 644 101 600 q 228 712 174 688 q 356 736 283 736 q 486 707 432 736 q 575 635 540 678 l 575 688 q 585 712 575 701 q 608 722 594 722 l 744 722 q 769 712 760 722 q 779 688 779 701 l 781 19 q 740 -157 781 -85 q 622 -267 700 -229 q 426 -306 543 -306 m 419 174 q 501 196 469 174 q 547 253 532 218 q 564 328 563 289 q 565 372 565 343 q 564 415 565 400 q 547 489 563 454 q 501 547 532 524 q 419 569 469 569 q 336 547 367 569 q 292 486 306 524 q 276 404 279 449 q 276 339 274 371 q 292 256 279 293 q 336 196 306 218 q 419 174 367 174 m 196 826 q 175 846 175 826 q 186 868 175 857 l 325 1013 q 349 1032 339 1028 q 374 1036 360 1036 l 465 1036 q 490 1032 479 1036 q 514 1013 500 1028 l 653 868 q 664 846 664 857 q 643 826 664 826 l 585 826 q 562 828 574 826 q 539 836 550 831 l 419 907 l 300 836 q 278 828 290 831 q 254 826 265 826 l 196 826 z "},"ģ":{"ha":868,"x_min":58,"x_max":781,"o":"m 540 1078 q 559 1069 551 1078 q 565 1047 567 1060 l 539 872 q 525 841 536 856 q 492 826 514 826 l 361 826 q 342 835 350 826 q 335 853 335 843 q 339 869 335 863 l 404 1040 q 422 1066 411 1054 q 453 1078 432 1078 l 540 1078 m 426 -306 q 256 -278 324 -306 q 148 -213 188 -251 q 92 -137 108 -175 q 74 -78 75 -100 q 83 -53 72 -64 q 108 -43 94 -43 l 257 -43 q 279 -49 271 -43 q 293 -72 288 -56 q 314 -108 301 -89 q 351 -139 326 -126 q 419 -151 376 -151 q 500 -137 468 -151 q 548 -90 532 -124 q 564 0 564 -57 l 564 93 q 480 33 531 57 q 356 10 429 10 q 228 33 283 10 q 138 98 174 56 q 82 200 101 140 q 60 335 63 260 q 60 408 58 372 q 82 540 63 481 q 138 644 101 600 q 228 712 174 688 q 356 736 283 736 q 486 707 432 736 q 575 635 540 678 l 575 688 q 585 712 575 701 q 608 722 594 722 l 744 722 q 769 712 760 722 q 779 688 779 701 l 781 19 q 740 -157 781 -85 q 622 -267 700 -229 q 426 -306 543 -306 m 419 174 q 501 196 469 174 q 547 253 532 218 q 564 328 563 289 q 565 372 565 343 q 564 415 565 400 q 547 489 563 454 q 501 547 532 524 q 419 569 469 569 q 336 547 367 569 q 292 486 306 524 q 276 404 279 449 q 276 339 274 371 q 292 256 279 293 q 336 196 306 218 q 419 174 367 174 z "},"ġ":{"ha":868,"x_min":58,"x_max":781,"o":"m 426 -306 q 256 -278 324 -306 q 148 -213 188 -251 q 92 -137 108 -175 q 74 -78 75 -100 q 83 -53 72 -64 q 108 -43 94 -43 l 257 -43 q 279 -49 271 -43 q 293 -72 288 -56 q 314 -108 301 -89 q 351 -139 326 -126 q 419 -151 376 -151 q 500 -137 468 -151 q 548 -90 532 -124 q 564 0 564 -57 l 564 93 q 480 33 531 57 q 356 10 429 10 q 228 33 283 10 q 138 98 174 56 q 82 200 101 140 q 60 335 63 260 q 60 408 58 372 q 82 540 63 481 q 138 644 101 600 q 228 712 174 688 q 356 736 283 736 q 486 707 432 736 q 575 635 540 678 l 575 688 q 585 712 575 701 q 608 722 594 722 l 744 722 q 769 712 760 722 q 779 688 779 701 l 781 19 q 740 -157 781 -85 q 622 -267 700 -229 q 426 -306 543 -306 m 419 174 q 501 196 469 174 q 547 253 532 218 q 564 328 563 289 q 565 372 565 343 q 564 415 565 400 q 547 489 563 454 q 501 547 532 524 q 419 569 469 569 q 336 547 367 569 q 292 486 306 524 q 276 404 279 449 q 276 339 274 371 q 292 256 279 293 q 336 196 306 218 q 419 174 367 174 m 356 842 q 333 850 342 842 q 325 872 325 858 l 325 999 q 333 1022 325 1013 q 356 1031 342 1031 l 482 1031 q 505 1022 496 1031 q 514 999 514 1013 l 514 872 q 505 850 514 858 q 482 842 496 842 l 356 842 z "},"ħ":{"ha":889,"x_min":-4,"x_max":808,"o":"m 122 0 q 97 10 107 0 q 88 35 88 19 l 88 769 l 29 769 q 6 779 15 769 q -4 804 -4 789 l -4 850 q 6 874 -4 864 q 29 883 15 883 l 88 883 l 88 951 q 97 976 88 967 q 122 986 107 986 l 272 986 q 297 976 288 986 q 307 951 307 967 l 307 883 l 363 883 q 388 874 378 883 q 397 850 397 864 l 397 804 q 388 779 397 789 q 363 769 378 769 l 307 769 l 307 639 q 398 710 343 683 q 529 736 453 736 q 674 699 611 736 q 773 592 738 663 q 808 422 808 522 l 808 35 q 799 11 808 21 q 774 1 789 1 l 622 1 q 599 11 608 1 q 589 35 589 21 l 589 414 q 553 528 589 488 q 450 569 517 569 q 346 528 385 569 q 307 414 307 488 l 307 35 q 297 10 307 19 q 272 0 288 0 l 122 0 z "},"ĥ":{"ha":888,"x_min":88,"x_max":808,"o":"m 122 0 q 97 10 107 0 q 88 35 88 19 l 88 951 q 97 976 88 967 q 122 986 107 986 l 272 986 q 297 976 288 986 q 307 951 307 967 l 307 639 q 398 710 343 683 q 529 736 453 736 q 674 699 611 736 q 773 592 738 663 q 808 422 808 522 l 808 35 q 799 10 808 19 q 774 0 789 0 l 622 0 q 599 10 608 0 q 589 35 589 19 l 589 414 q 553 528 589 488 q 450 569 517 569 q 346 528 385 569 q 307 414 307 488 l 307 35 q 297 10 307 19 q 272 0 288 0 l 122 0 m 224 1042 q 203 1061 203 1042 q 214 1083 203 1072 l 353 1228 q 377 1247 367 1243 q 401 1251 388 1251 l 493 1251 q 517 1247 507 1251 q 542 1228 528 1243 l 681 1083 q 692 1061 692 1072 q 671 1042 692 1042 l 613 1042 q 590 1044 601 1042 q 567 1051 578 1046 l 447 1122 l 328 1051 q 306 1044 318 1046 q 282 1042 293 1042 l 224 1042 z "},"ı":{"ha":382,"x_min":86,"x_max":294,"o":"m 121 0 q 97 10 107 0 q 86 35 86 19 l 86 688 q 97 713 86 703 q 121 722 107 722 l 261 722 q 285 713 275 722 q 294 688 294 703 l 294 35 q 285 10 294 19 q 261 0 275 0 l 121 0 z "},"í":{"ha":382,"x_min":86,"x_max":463,"o":"m 121 0 q 97 10 107 0 q 86 35 86 19 l 86 688 q 97 713 86 703 q 121 722 107 722 l 261 722 q 285 713 275 722 q 294 688 294 703 l 294 35 q 285 10 294 19 q 261 0 275 0 l 121 0 m 122 826 q 100 849 100 826 q 107 867 100 860 l 225 1010 q 248 1031 238 1026 q 276 1036 258 1036 l 436 1036 q 463 1008 463 1036 q 456 992 463 999 l 278 846 q 256 831 267 836 q 226 826 244 826 l 122 826 z "},"ĭ":{"ha":382,"x_min":-7,"x_max":388,"o":"m 121 0 q 97 10 107 0 q 86 35 86 19 l 86 688 q 97 713 86 703 q 121 722 107 722 l 261 722 q 285 713 275 722 q 294 688 294 703 l 294 35 q 285 10 294 19 q 261 0 275 0 l 121 0 m 190 819 q 77 846 121 819 q 13 915 33 872 q -7 1010 -7 958 q 0 1028 -7 1021 q 19 1036 7 1036 l 97 1036 q 117 1028 110 1036 q 124 1010 124 1021 q 138 951 124 978 q 190 925 151 925 q 244 951 231 925 q 257 1010 257 978 q 264 1028 257 1021 q 283 1036 271 1036 l 361 1036 q 381 1028 374 1036 q 388 1010 388 1021 q 367 915 388 958 q 303 846 347 872 q 190 819 260 819 z "},"î":{"ha":382,"x_min":-54,"x_max":435,"o":"m 121 0 q 97 10 107 0 q 86 35 86 19 l 86 688 q 97 713 86 703 q 121 722 107 722 l 261 722 q 285 713 275 722 q 294 688 294 703 l 294 35 q 285 10 294 19 q 261 0 275 0 l 121 0 m -33 826 q -54 846 -54 826 q -43 868 -54 857 l 96 1013 q 120 1032 110 1028 q 144 1036 131 1036 l 236 1036 q 260 1032 250 1036 q 285 1013 271 1028 l 424 868 q 435 846 435 857 q 414 826 435 826 l 356 826 q 333 828 344 826 q 310 836 321 831 l 190 907 l 71 836 q 49 828 61 831 q 25 826 36 826 l -33 826 z "},"ï":{"ha":382,"x_min":-36,"x_max":417,"o":"m 121 0 q 97 10 107 0 q 86 35 86 19 l 86 688 q 97 713 86 703 q 121 722 107 722 l 261 722 q 285 713 275 722 q 294 688 294 703 l 294 35 q 285 10 294 19 q 261 0 275 0 l 121 0 m 271 849 q 247 857 256 849 q 239 879 239 865 l 239 993 q 247 1016 239 1007 q 271 1025 256 1025 l 385 1025 q 408 1016 399 1025 q 417 993 417 1007 l 417 879 q 408 857 417 865 q 385 849 399 849 l 271 849 m -4 849 q -26 857 -18 849 q -35 879 -35 865 l -35 993 q -26 1016 -35 1007 q -4 1025 -18 1025 l 111 1025 q 134 1016 125 1025 q 143 993 143 1007 l 143 879 q 134 857 143 865 q 111 849 125 849 l -4 849 z "},"ì":{"ha":382,"x_min":-81,"x_max":294,"o":"m 121 0 q 97 10 107 0 q 86 35 86 19 l 86 688 q 97 713 86 703 q 121 722 107 722 l 261 722 q 285 713 275 722 q 294 688 294 703 l 294 35 q 285 10 294 19 q 261 0 275 0 l 121 0 m 157 826 q 127 831 138 826 q 106 846 117 836 l -74 992 q -81 1008 -81 999 q -54 1036 -81 1036 l 107 1036 q 135 1031 125 1036 q 158 1010 144 1026 l 276 867 q 283 849 283 860 q 261 826 283 826 l 157 826 z "},"ĳ":{"ha":785,"x_min":83,"x_max":701,"o":"m 121 0 q 97 10 107 0 q 86 35 86 19 l 86 688 q 97 713 86 703 q 121 722 107 722 l 261 722 q 285 713 275 722 q 294 688 294 703 l 294 35 q 285 10 294 19 q 261 0 275 0 l 121 0 m 117 833 q 93 843 103 833 q 83 868 83 853 l 83 981 q 93 1005 83 994 q 117 1015 103 1015 l 264 1015 q 288 1005 278 1015 q 299 981 299 994 l 299 868 q 288 843 299 853 q 264 833 278 833 l 117 833 m 349 -264 q 324 -254 333 -264 q 314 -229 314 -244 l 314 -133 q 324 -110 314 -119 q 349 -100 333 -100 l 393 -100 q 451 -85 431 -100 q 478 -46 471 -71 q 485 10 485 -21 l 485 688 q 494 713 485 703 q 518 722 504 722 l 664 722 q 689 713 679 722 q 699 688 699 703 l 699 6 q 666 -140 699 -79 q 570 -232 633 -200 q 414 -264 507 -264 l 349 -264 m 514 833 q 490 843 500 833 q 481 868 481 853 l 481 981 q 490 1005 481 994 q 514 1015 500 1015 l 668 1015 q 692 1005 682 1015 q 703 981 703 994 l 703 868 q 692 843 703 853 q 668 833 682 833 l 514 833 z "},"ī":{"ha":382,"x_min":-25,"x_max":406,"o":"m 121 0 q 97 10 107 0 q 86 35 86 19 l 86 688 q 97 713 86 703 q 121 722 107 722 l 261 722 q 285 713 275 722 q 294 688 294 703 l 294 35 q 285 10 294 19 q 261 0 275 0 l 121 0 m 7 844 q -15 853 -7 844 q -24 876 -24 861 l -24 960 q -15 983 -24 974 q 7 992 -7 992 l 375 992 q 398 983 389 992 q 407 960 407 974 l 407 876 q 398 853 407 861 q 375 844 389 844 l 7 844 z "},"į":{"ha":396,"x_min":54,"x_max":315,"o":"m 258 -286 q 106 -229 158 -286 q 54 -83 54 -172 q 73 -8 54 -39 q 125 36 92 24 l 121 39 q 107 47 113 40 q 101 63 101 54 l 101 688 q 111 713 101 703 q 135 722 121 722 l 275 722 q 299 713 289 722 q 308 688 308 703 l 308 35 q 299 10 308 19 q 275 0 289 0 l 264 0 q 199 -24 221 0 q 178 -83 178 -47 q 199 -144 178 -121 q 264 -167 221 -167 l 282 -167 q 306 -176 296 -167 q 315 -201 315 -186 l 315 -251 q 306 -276 315 -265 q 282 -286 296 -286 l 258 -286 m 131 833 q 107 843 117 833 q 97 868 97 853 l 97 981 q 107 1005 97 994 q 131 1015 117 1015 l 278 1015 q 303 1005 293 1015 q 313 981 313 994 l 313 868 q 303 843 313 853 q 278 833 293 833 l 131 833 z "},"ĩ":{"ha":382,"x_min":-36,"x_max":417,"o":"m 121 0 q 97 10 107 0 q 86 35 86 19 l 86 688 q 97 713 86 703 q 121 722 107 722 l 261 722 q 285 713 275 722 q 294 688 294 703 l 294 35 q 285 10 294 19 q 261 0 275 0 l 121 0 m 271 819 q 211 832 235 819 q 169 856 188 844 q 126 868 150 868 q 100 858 108 868 q 85 838 92 849 q 63 826 78 826 l -11 826 q -28 834 -21 826 q -35 850 -35 842 q -27 900 -35 872 q -2 953 -19 928 q 43 994 15 978 q 110 1011 71 1011 q 171 999 147 1011 q 214 975 194 988 q 256 963 233 963 q 283 974 275 963 q 297 995 290 985 q 319 1006 304 1006 l 393 1006 q 410 998 404 1006 q 417 981 417 990 q 409 932 417 960 q 384 878 401 904 q 339 836 367 853 q 271 819 311 819 z "},"ȷ":{"ha":526,"x_min":22,"x_max":439,"o":"m 57 -264 q 32 -254 42 -264 q 22 -229 22 -244 l 22 -108 q 32 -85 22 -94 q 57 -75 42 -75 l 132 -75 q 190 -60 169 -75 q 217 -21 210 -46 q 224 35 224 4 l 224 553 l 65 553 q 42 563 51 553 q 32 586 32 572 l 32 688 q 42 713 32 703 q 65 722 51 722 l 404 722 q 429 713 419 722 q 439 688 439 703 l 439 35 q 406 -122 439 -56 q 310 -226 374 -189 q 154 -264 247 -264 l 57 -264 z "},"ĵ":{"ha":526,"x_min":4,"x_max":493,"o":"m 57 -264 q 32 -254 42 -264 q 22 -229 22 -244 l 22 -108 q 32 -85 22 -94 q 57 -75 42 -75 l 132 -75 q 190 -60 169 -75 q 217 -21 210 -46 q 224 35 224 4 l 224 553 l 65 553 q 42 563 51 553 q 32 586 32 572 l 32 688 q 42 713 32 703 q 65 722 51 722 l 404 722 q 429 713 419 722 q 439 688 439 703 l 439 35 q 406 -122 439 -56 q 310 -226 374 -189 q 154 -264 247 -264 l 57 -264 m 25 826 q 4 846 4 826 q 15 868 4 857 l 154 1013 q 178 1032 168 1028 q 203 1036 189 1036 l 294 1036 q 319 1032 308 1036 q 343 1013 329 1028 l 482 868 q 493 846 493 857 q 472 826 493 826 l 414 826 q 391 828 403 826 q 368 836 379 831 l 249 907 l 129 836 q 107 828 119 831 q 83 826 94 826 l 25 826 z "},"ķ":{"ha":788,"x_min":88,"x_max":776,"o":"m 122 0 q 97 10 107 0 q 88 35 88 19 l 88 951 q 97 976 88 967 q 122 986 107 986 l 258 986 q 283 976 272 986 q 293 951 293 967 l 293 482 l 506 699 q 526 715 517 708 q 554 722 535 722 l 713 722 q 734 713 725 722 q 743 692 743 704 q 740 679 743 686 q 731 668 738 672 l 463 399 l 765 53 q 776 31 776 42 q 768 9 776 18 q 746 0 760 0 l 585 0 q 555 7 564 0 q 535 24 546 14 l 293 296 l 293 35 q 283 10 293 19 q 258 0 272 0 l 122 0 m 279 -321 q 260 -312 267 -321 q 254 -290 253 -303 l 281 -115 q 294 -83 283 -97 q 328 -69 306 -69 l 458 -69 q 477 -78 469 -69 q 485 -96 485 -86 q 481 -112 485 -106 l 414 -283 q 398 -309 408 -297 q 367 -321 388 -321 l 279 -321 z "},"ĸ":{"ha":789,"x_min":86,"x_max":776,"o":"m 121 0 q 97 10 107 0 q 86 35 86 19 l 86 688 q 97 713 86 703 q 121 722 107 722 l 257 722 q 282 713 272 722 q 292 688 292 703 l 292 443 l 517 699 q 538 715 528 708 q 567 722 547 722 l 715 722 q 737 713 728 722 q 746 692 746 704 q 743 679 746 686 q 733 668 740 672 l 467 365 l 764 53 q 776 31 776 43 q 767 9 776 18 q 746 0 758 0 l 583 0 q 553 8 563 0 q 532 24 543 15 l 292 276 l 292 35 q 282 10 292 19 q 257 0 272 0 l 121 0 z "},"ĺ":{"ha":383,"x_min":88,"x_max":478,"o":"m 122 0 q 97 10 107 0 q 88 35 88 19 l 88 951 q 97 976 88 967 q 122 986 107 986 l 261 986 q 286 976 276 986 q 296 951 296 967 l 296 35 q 286 10 296 19 q 261 0 276 0 l 122 0 m 138 1042 q 115 1064 115 1042 q 122 1082 115 1075 l 240 1225 q 263 1247 253 1242 q 292 1251 274 1251 l 451 1251 q 478 1224 478 1251 q 471 1207 478 1214 l 293 1061 q 271 1047 282 1051 q 242 1042 260 1042 l 138 1042 z "},"ľ":{"ha":507,"x_min":88,"x_max":597,"o":"m 122 0 q 97 10 107 0 q 88 35 88 19 l 88 951 q 97 976 88 967 q 122 986 107 986 l 261 986 q 286 976 276 986 q 296 951 296 967 l 296 35 q 286 10 296 19 q 261 0 276 0 l 122 0 m 393 735 q 374 744 381 735 q 368 765 367 753 l 394 940 q 408 972 397 958 q 442 986 419 986 l 572 986 q 591 978 583 986 q 599 960 599 969 q 594 943 599 950 l 528 772 q 512 747 522 758 q 481 735 501 735 l 393 735 z "},"ļ":{"ha":383,"x_min":56,"x_max":296,"o":"m 122 0 q 97 10 107 0 q 88 35 88 19 l 88 951 q 97 976 88 967 q 122 986 107 986 l 261 986 q 286 976 276 986 q 296 951 296 967 l 296 35 q 286 10 296 19 q 261 0 276 0 l 122 0 m 82 -321 q 63 -312 69 -321 q 57 -290 56 -303 l 83 -115 q 97 -83 86 -97 q 131 -69 108 -69 l 261 -69 q 280 -78 272 -69 q 288 -96 288 -86 q 283 -112 288 -106 l 217 -283 q 201 -309 211 -297 q 169 -321 190 -321 l 82 -321 z "},"ŀ":{"ha":535,"x_min":88,"x_max":554,"o":"m 122 0 q 97 10 107 0 q 88 35 88 19 l 88 951 q 97 976 88 967 q 122 986 107 986 l 261 986 q 286 976 276 986 q 296 951 296 967 l 296 35 q 286 10 296 19 q 261 0 276 0 l 122 0 m 396 406 q 374 414 382 406 q 365 436 365 422 l 365 563 q 374 585 365 576 q 396 594 382 594 l 522 594 q 545 585 536 594 q 554 563 554 576 l 554 436 q 545 414 554 422 q 522 406 536 406 l 396 406 z "},"ł":{"ha":453,"x_min":33,"x_max":421,"o":"m 157 0 q 133 10 143 0 q 124 35 124 19 l 124 378 l 78 361 q 61 357 68 357 q 42 364 50 357 q 33 383 33 371 l 33 474 q 40 500 33 492 q 64 514 47 508 l 124 536 l 124 951 q 133 976 124 967 q 157 986 143 986 l 297 986 q 322 976 311 986 q 332 951 332 967 l 332 617 l 376 635 q 393 639 388 639 q 413 632 406 639 q 421 613 421 625 l 421 522 q 414 497 421 506 q 390 482 407 489 l 332 458 l 332 35 q 322 10 332 19 q 297 0 311 0 l 157 0 z "},"ń":{"ha":879,"x_min":86,"x_max":800,"o":"m 121 0 q 97 10 107 0 q 86 35 86 19 l 86 688 q 97 713 86 703 q 121 722 107 722 l 257 722 q 282 713 272 722 q 292 688 292 703 l 292 633 q 385 707 328 678 q 524 736 443 736 q 668 699 606 736 q 765 592 731 663 q 800 422 800 522 l 800 35 q 790 10 800 19 q 765 0 781 0 l 618 0 q 593 10 603 0 q 583 35 583 19 l 583 414 q 548 528 583 488 q 444 569 513 569 q 341 528 379 569 q 303 414 303 488 l 303 35 q 293 10 303 19 q 268 0 283 0 l 121 0 m 372 826 q 350 849 350 826 q 357 867 350 860 l 475 1010 q 498 1031 488 1026 q 526 1036 508 1036 l 686 1036 q 713 1008 713 1036 q 706 992 713 999 l 528 846 q 506 831 517 836 q 476 826 494 826 l 372 826 z "},"ŉ":{"ha":879,"x_min":86,"x_max":800,"o":"m 121 0 q 97 10 107 0 q 86 35 86 19 l 86 688 q 97 713 86 703 q 121 722 107 722 l 257 722 q 282 713 272 722 q 292 688 292 703 l 292 633 q 385 707 328 678 q 524 736 443 736 q 668 699 606 736 q 765 592 731 663 q 800 422 800 522 l 800 35 q 790 10 800 19 q 765 0 781 0 l 618 0 q 593 10 603 0 q 583 35 583 19 l 583 414 q 548 528 583 488 q 444 569 513 569 q 341 528 379 569 q 303 414 303 488 l 303 35 q 293 10 303 19 q 268 0 283 0 l 121 0 m 146 817 q 126 826 133 817 q 121 847 119 835 l 147 1022 q 161 1054 150 1040 q 194 1068 172 1068 l 325 1068 q 344 1060 336 1068 q 351 1042 351 1051 q 347 1025 351 1032 l 281 854 q 265 828 275 840 q 233 817 254 817 l 146 817 z "},"ň":{"ha":879,"x_min":86,"x_max":800,"o":"m 121 0 q 97 10 107 0 q 86 35 86 19 l 86 688 q 97 713 86 703 q 121 722 107 722 l 257 722 q 282 713 272 722 q 292 688 292 703 l 292 633 q 385 707 328 678 q 524 736 443 736 q 668 699 606 736 q 765 592 731 663 q 800 422 800 522 l 800 35 q 790 10 800 19 q 765 0 781 0 l 618 0 q 593 10 603 0 q 583 35 583 19 l 583 414 q 548 528 583 488 q 444 569 513 569 q 341 528 379 569 q 303 414 303 488 l 303 35 q 293 10 303 19 q 268 0 283 0 l 121 0 m 397 826 q 373 831 383 826 q 349 850 363 836 l 210 994 q 199 1017 199 1006 q 219 1036 199 1036 l 278 1036 q 301 1034 289 1036 q 324 1026 314 1032 l 443 956 l 563 1026 q 585 1034 574 1032 q 608 1036 597 1036 l 667 1036 q 688 1017 688 1036 q 676 994 688 1006 l 538 850 q 513 831 524 836 q 489 826 503 826 l 397 826 z "},"ņ":{"ha":879,"x_min":86,"x_max":800,"o":"m 121 0 q 97 10 107 0 q 86 35 86 19 l 86 688 q 97 713 86 703 q 121 722 107 722 l 257 722 q 282 713 272 722 q 292 688 292 703 l 292 633 q 385 707 328 678 q 524 736 443 736 q 668 699 606 736 q 765 592 731 663 q 800 422 800 522 l 800 35 q 790 10 800 19 q 765 0 781 0 l 618 0 q 593 10 603 0 q 583 35 583 19 l 583 414 q 548 528 583 488 q 444 569 513 569 q 341 528 379 569 q 303 414 303 488 l 303 35 q 293 10 303 19 q 268 0 283 0 l 121 0 m 342 -321 q 322 -312 329 -321 q 317 -290 315 -303 l 343 -115 q 357 -83 346 -97 q 390 -69 368 -69 l 521 -69 q 540 -78 532 -69 q 547 -96 547 -86 q 543 -112 547 -106 l 476 -283 q 460 -309 471 -297 q 429 -321 450 -321 l 342 -321 z "},"ŋ":{"ha":879,"x_min":86,"x_max":800,"o":"m 444 -312 q 419 -303 429 -312 q 410 -278 410 -293 l 410 -162 q 419 -137 410 -147 q 444 -128 429 -128 l 475 -128 q 541 -112 518 -128 q 574 -68 564 -97 q 583 4 583 -39 l 583 414 q 548 528 583 488 q 444 569 513 569 q 341 528 379 569 q 303 414 303 488 l 303 35 q 293 10 303 19 q 268 0 283 0 l 121 0 q 97 10 107 0 q 86 35 86 19 l 86 688 q 97 713 86 703 q 121 722 107 722 l 257 722 q 282 713 272 722 q 292 688 292 703 l 292 633 q 385 707 328 678 q 524 736 443 736 q 668 699 606 736 q 765 592 731 663 q 800 422 800 522 l 800 -4 q 761 -173 800 -104 q 648 -277 722 -242 q 468 -312 574 -312 l 444 -312 z "},"ñ":{"ha":879,"x_min":86,"x_max":800,"o":"m 121 0 q 97 10 107 0 q 86 35 86 19 l 86 688 q 97 713 86 703 q 121 722 107 722 l 257 722 q 282 713 272 722 q 292 688 292 703 l 292 633 q 385 707 328 678 q 524 736 443 736 q 668 699 606 736 q 765 592 731 663 q 800 422 800 522 l 800 35 q 790 10 800 19 q 765 0 781 0 l 618 0 q 593 10 603 0 q 583 35 583 19 l 583 414 q 548 528 583 488 q 444 569 513 569 q 341 528 379 569 q 303 414 303 488 l 303 35 q 293 10 303 19 q 268 0 283 0 l 121 0 m 524 819 q 464 832 488 819 q 422 856 440 844 q 379 868 403 868 q 353 858 361 868 q 338 838 344 849 q 315 826 331 826 l 242 826 q 225 834 232 826 q 218 850 218 842 q 226 900 218 872 q 251 953 233 928 q 296 994 268 978 q 363 1011 324 1011 q 424 999 400 1011 q 467 975 447 988 q 508 963 486 963 q 535 974 528 963 q 550 995 543 985 q 572 1006 557 1006 l 646 1006 q 663 998 657 1006 q 669 981 669 990 q 662 932 669 960 q 637 878 654 904 q 592 836 619 853 q 524 819 564 819 z "},"ó":{"ha":835,"x_min":60,"x_max":776,"o":"m 418 -14 q 225 24 303 -14 q 106 133 147 63 q 61 299 65 204 q 60 362 60 326 q 61 424 60 397 q 108 590 65 519 q 229 698 151 660 q 418 736 307 736 q 606 698 528 736 q 726 590 683 660 q 775 424 769 519 q 776 362 776 397 q 775 299 776 326 q 728 133 769 204 q 610 24 688 63 q 418 -14 532 -14 m 418 140 q 520 182 486 140 q 558 306 554 224 q 560 361 560 326 q 558 417 560 396 q 520 540 554 497 q 418 582 486 582 q 315 540 350 582 q 276 417 281 497 q 275 361 275 396 q 276 306 275 326 q 315 182 281 224 q 418 140 350 140 m 346 826 q 324 849 324 826 q 331 867 324 860 l 449 1010 q 472 1031 461 1026 q 500 1036 482 1036 l 660 1036 q 686 1008 686 1036 q 679 992 686 999 l 501 846 q 479 831 490 836 q 450 826 468 826 l 346 826 z "},"ŏ":{"ha":835,"x_min":60,"x_max":776,"o":"m 418 -14 q 225 24 303 -14 q 106 133 147 63 q 61 299 65 204 q 60 362 60 326 q 61 424 60 397 q 108 590 65 519 q 229 698 151 660 q 418 736 307 736 q 606 698 528 736 q 726 590 683 660 q 775 424 769 519 q 776 362 776 397 q 775 299 776 326 q 728 133 769 204 q 610 24 688 63 q 418 -14 532 -14 m 418 140 q 520 182 486 140 q 558 306 554 224 q 560 361 560 326 q 558 417 560 396 q 520 540 554 497 q 418 582 486 582 q 315 540 350 582 q 276 417 281 497 q 275 361 275 396 q 276 306 275 326 q 315 182 281 224 q 418 140 350 140 m 418 819 q 305 846 349 819 q 241 915 261 872 q 221 1010 221 958 q 228 1028 221 1021 q 247 1036 235 1036 l 325 1036 q 344 1028 338 1036 q 351 1010 351 1021 q 365 951 351 978 q 418 925 379 925 q 472 951 458 925 q 485 1010 485 978 q 492 1028 485 1021 q 511 1036 499 1036 l 589 1036 q 608 1028 601 1036 q 615 1010 615 1021 q 595 915 615 958 q 531 846 575 872 q 418 819 488 819 z "},"ô":{"ha":835,"x_min":60,"x_max":776,"o":"m 418 -14 q 225 24 303 -14 q 106 133 147 63 q 61 299 65 204 q 60 362 60 326 q 61 424 60 397 q 108 590 65 519 q 229 698 151 660 q 418 736 307 736 q 606 698 528 736 q 726 590 683 660 q 775 424 769 519 q 776 362 776 397 q 775 299 776 326 q 728 133 769 204 q 610 24 688 63 q 418 -14 532 -14 m 418 140 q 520 182 486 140 q 558 306 554 224 q 560 361 560 326 q 558 417 560 396 q 520 540 554 497 q 418 582 486 582 q 315 540 350 582 q 276 417 281 497 q 275 361 275 396 q 276 306 275 326 q 315 182 281 224 q 418 140 350 140 m 194 826 q 174 846 174 826 q 185 868 174 857 l 324 1013 q 348 1032 338 1028 q 372 1036 358 1036 l 464 1036 q 488 1032 478 1036 q 513 1013 499 1028 l 651 868 q 663 846 663 857 q 642 826 663 826 l 583 826 q 560 828 572 826 q 538 836 549 831 l 418 907 l 299 836 q 276 828 289 831 q 253 826 264 826 l 194 826 z "},"ö":{"ha":835,"x_min":60,"x_max":776,"o":"m 418 -14 q 225 24 303 -14 q 106 133 147 63 q 61 299 65 204 q 60 362 60 326 q 61 424 60 397 q 108 590 65 519 q 229 698 151 660 q 418 736 307 736 q 606 698 528 736 q 726 590 683 660 q 775 424 769 519 q 776 362 776 397 q 775 299 776 326 q 728 133 769 204 q 610 24 688 63 q 418 -14 532 -14 m 418 140 q 520 182 486 140 q 558 306 554 224 q 560 361 560 326 q 558 417 560 396 q 520 540 554 497 q 418 582 486 582 q 315 540 350 582 q 276 417 281 497 q 275 361 275 396 q 276 306 275 326 q 315 182 281 224 q 418 140 350 140 m 499 849 q 475 857 483 849 q 467 879 467 865 l 467 993 q 475 1016 467 1007 q 499 1025 483 1025 l 613 1025 q 635 1016 626 1025 q 644 993 644 1007 l 644 879 q 635 857 644 865 q 613 849 626 849 l 499 849 m 224 849 q 201 857 210 849 q 193 879 193 865 l 193 993 q 201 1016 193 1007 q 224 1025 210 1025 l 339 1025 q 362 1016 353 1025 q 371 993 371 1007 l 371 879 q 362 857 371 865 q 339 849 353 849 l 224 849 z "},"ò":{"ha":835,"x_min":60,"x_max":776,"o":"m 418 -14 q 225 24 303 -14 q 106 133 147 63 q 61 299 65 204 q 60 362 60 326 q 61 424 60 397 q 108 590 65 519 q 229 698 151 660 q 418 736 307 736 q 606 698 528 736 q 726 590 683 660 q 775 424 769 519 q 776 362 776 397 q 775 299 776 326 q 728 133 769 204 q 610 24 688 63 q 418 -14 532 -14 m 418 140 q 520 182 486 140 q 558 306 554 224 q 560 361 560 326 q 558 417 560 396 q 520 540 554 497 q 418 582 486 582 q 315 540 350 582 q 276 417 281 497 q 275 361 275 396 q 276 306 275 326 q 315 182 281 224 q 418 140 350 140 m 385 826 q 355 831 365 826 q 333 846 344 836 l 154 992 q 147 1008 147 999 q 174 1036 147 1036 l 335 1036 q 363 1031 353 1036 q 386 1010 372 1026 l 504 867 q 511 849 511 860 q 489 826 511 826 l 385 826 z "},"ő":{"ha":835,"x_min":60,"x_max":776,"o":"m 418 -14 q 225 24 303 -14 q 106 133 147 63 q 61 299 65 204 q 60 362 60 326 q 61 424 60 397 q 108 590 65 519 q 229 698 151 660 q 418 736 307 736 q 606 698 528 736 q 726 590 683 660 q 775 424 769 519 q 776 362 776 397 q 775 299 776 326 q 728 133 769 204 q 610 24 688 63 q 418 -14 532 -14 m 418 140 q 520 182 486 140 q 558 306 554 224 q 560 361 560 326 q 558 417 560 396 q 520 540 554 497 q 418 582 486 582 q 315 540 350 582 q 276 417 281 497 q 275 361 275 396 q 276 306 275 326 q 315 182 281 224 q 418 140 350 140 m 499 826 q 476 849 476 826 q 479 860 476 854 q 483 869 482 865 l 546 1010 q 597 1036 558 1036 l 726 1036 q 754 1010 754 1036 q 746 992 754 1000 l 617 846 q 572 826 600 826 l 499 826 m 219 826 q 197 849 197 826 q 200 860 197 854 q 204 869 203 865 l 267 1010 q 318 1036 279 1036 l 447 1036 q 475 1010 475 1036 q 467 992 475 1000 l 338 846 q 293 826 321 826 l 219 826 z "},"ō":{"ha":835,"x_min":60,"x_max":776,"o":"m 418 -14 q 225 24 303 -14 q 106 133 147 63 q 61 299 65 204 q 60 362 60 326 q 61 424 60 397 q 108 590 65 519 q 229 698 151 660 q 418 736 307 736 q 606 698 528 736 q 726 590 683 660 q 775 424 769 519 q 776 362 776 397 q 775 299 776 326 q 728 133 769 204 q 610 24 688 63 q 418 -14 532 -14 m 418 140 q 520 182 486 140 q 558 306 554 224 q 560 361 560 326 q 558 417 560 396 q 520 540 554 497 q 418 582 486 582 q 315 540 350 582 q 276 417 281 497 q 275 361 275 396 q 276 306 275 326 q 315 182 281 224 q 418 140 350 140 m 233 844 q 211 853 219 844 q 203 876 203 861 l 203 960 q 211 983 203 974 q 233 992 219 992 l 601 992 q 624 983 615 992 q 633 960 633 974 l 633 876 q 624 853 633 861 q 601 844 615 844 l 233 844 z "},"ø":{"ha":878,"x_min":15,"x_max":861,"o":"m 440 -14 q 285 9 351 -14 q 177 74 219 32 q 111 171 135 117 l 60 151 q 43 147 50 147 q 24 154 32 147 q 15 174 15 161 l 15 236 q 22 262 15 253 q 46 276 29 271 l 83 290 q 82 358 82 324 q 83 424 82 392 q 109 547 86 490 q 176 647 132 604 q 287 713 221 689 q 440 736 353 736 q 592 713 528 736 q 698 649 656 690 q 764 554 740 608 l 817 575 q 833 579 828 579 q 853 572 844 579 q 861 551 861 564 l 861 490 q 854 465 861 474 q 831 450 847 457 l 796 436 q 799 368 799 408 q 797 299 799 328 q 771 175 793 232 q 706 76 749 118 q 597 10 663 33 q 440 -14 531 -14 m 440 140 q 512 156 482 140 q 560 208 542 172 q 581 303 578 244 q 581 326 581 311 q 581 353 581 342 l 306 246 q 353 165 318 190 q 440 140 389 140 m 299 374 l 572 479 q 524 558 560 535 q 440 582 489 582 q 369 567 399 582 q 320 517 339 551 q 299 429 301 483 q 299 403 299 419 q 299 374 299 386 z "},"ǿ":{"ha":878,"x_min":15,"x_max":861,"o":"m 364 826 q 342 849 342 826 q 349 867 342 860 l 467 1010 q 490 1031 479 1026 q 518 1036 500 1036 l 678 1036 q 704 1008 704 1036 q 697 992 704 999 l 519 846 q 497 831 508 836 q 468 826 486 826 l 364 826 m 440 -14 q 285 9 351 -14 q 177 74 219 32 q 111 171 135 117 l 60 151 q 43 147 50 147 q 24 154 32 147 q 15 174 15 161 l 15 236 q 22 262 15 253 q 46 276 29 271 l 83 290 q 82 358 82 324 q 83 424 82 392 q 109 547 86 490 q 176 647 132 604 q 287 713 221 689 q 440 736 353 736 q 592 713 528 736 q 698 649 656 690 q 764 554 740 608 l 817 575 q 833 579 828 579 q 853 572 844 579 q 861 551 861 564 l 861 490 q 854 465 861 474 q 831 450 847 457 l 796 436 q 799 368 799 408 q 797 299 799 328 q 771 175 793 232 q 706 76 749 118 q 597 10 663 33 q 440 -14 531 -14 m 440 140 q 512 156 482 140 q 560 208 542 172 q 581 303 578 244 q 581 326 581 311 q 581 353 581 342 l 306 246 q 353 165 318 190 q 440 140 389 140 m 299 374 l 572 479 q 524 558 560 535 q 440 582 489 582 q 369 567 399 582 q 320 517 339 551 q 299 429 301 483 q 299 403 299 419 q 299 374 299 386 z "},"õ":{"ha":835,"x_min":60,"x_max":776,"o":"m 418 -14 q 225 24 303 -14 q 106 133 147 63 q 61 299 65 204 q 60 362 60 326 q 61 424 60 397 q 108 590 65 519 q 229 698 151 660 q 418 736 307 736 q 606 698 528 736 q 726 590 683 660 q 775 424 769 519 q 776 362 776 397 q 775 299 776 326 q 728 133 769 204 q 610 24 688 63 q 418 -14 532 -14 m 418 140 q 520 182 486 140 q 558 306 554 224 q 560 361 560 326 q 558 417 560 396 q 520 540 554 497 q 418 582 486 582 q 315 540 350 582 q 276 417 281 497 q 275 361 275 396 q 276 306 275 326 q 315 182 281 224 q 418 140 350 140 m 499 819 q 439 832 463 819 q 397 856 415 844 q 354 868 378 868 q 328 858 336 868 q 313 838 319 849 q 290 826 306 826 l 217 826 q 200 834 207 826 q 193 850 193 842 q 201 900 193 872 q 226 953 208 928 q 271 994 243 978 q 338 1011 299 1011 q 399 999 375 1011 q 442 975 422 988 q 483 963 461 963 q 510 974 503 963 q 525 995 518 985 q 547 1006 532 1006 l 621 1006 q 638 998 632 1006 q 644 981 644 990 q 637 932 644 960 q 612 878 629 904 q 567 836 594 853 q 499 819 539 819 z "},"œ":{"ha":1317,"x_min":60,"x_max":1265,"o":"m 418 -14 q 226 24 304 -14 q 108 133 149 63 q 61 299 67 204 q 60 362 60 326 q 61 424 60 397 q 109 590 67 519 q 229 698 151 660 q 418 736 307 736 q 567 709 503 736 q 672 635 632 682 q 775 710 714 683 q 913 736 836 736 q 1108 688 1031 736 q 1226 558 1186 640 q 1265 368 1265 475 l 1265 336 q 1256 312 1265 322 q 1231 301 1246 301 l 778 301 l 778 292 q 794 210 779 247 q 840 151 810 174 q 913 129 869 129 q 965 140 943 129 q 1002 163 988 150 q 1024 186 1017 176 q 1044 205 1036 201 q 1067 208 1051 208 l 1213 208 q 1235 200 1226 208 q 1243 179 1244 192 q 1220 123 1242 156 q 1158 59 1199 90 q 1055 7 1117 28 q 914 -14 993 -14 q 774 12 836 -14 q 671 83 713 38 q 567 12 631 38 q 418 -14 504 -14 m 418 140 q 521 182 486 140 q 558 306 556 224 q 560 361 560 326 q 558 417 560 396 q 521 540 556 497 q 418 582 486 582 q 316 540 351 582 q 278 417 281 497 q 276 361 276 396 q 278 306 276 326 q 316 182 281 224 q 418 140 351 140 m 778 429 l 1049 429 l 1049 433 q 1033 519 1049 482 q 986 576 1017 556 q 913 597 956 597 q 840 576 869 597 q 794 519 810 556 q 778 433 778 482 l 778 429 z "},"þ":{"ha":865,"x_min":88,"x_max":806,"o":"m 122 -264 q 98 -254 108 -264 q 88 -229 88 -244 l 88 951 q 98 976 88 967 q 122 986 108 986 l 267 986 q 290 976 281 986 q 300 951 300 967 l 300 642 q 381 711 333 686 q 508 736 429 736 q 633 713 579 736 q 724 648 686 690 q 781 546 761 606 q 804 411 801 486 q 806 361 806 385 q 804 310 806 338 q 782 179 803 239 q 724 76 761 119 q 633 10 688 33 q 508 -14 579 -14 q 385 12 436 -14 q 300 82 333 38 l 300 -229 q 290 -254 300 -244 q 267 -264 281 -264 l 122 -264 m 444 153 q 528 176 499 153 q 572 236 558 199 q 588 318 585 274 q 588 404 590 361 q 572 486 585 449 q 528 547 558 524 q 444 569 499 569 q 363 546 394 569 q 317 486 331 522 q 300 408 303 450 q 299 357 299 383 q 300 304 299 331 q 317 231 301 265 q 365 175 333 197 q 444 153 396 153 z "},"ŕ":{"ha":606,"x_min":86,"x_max":597,"o":"m 121 0 q 97 10 107 0 q 86 35 86 19 l 86 688 q 97 712 86 701 q 121 722 107 722 l 257 722 q 282 712 272 722 q 292 688 292 701 l 292 632 q 378 699 326 675 q 494 722 429 722 l 554 722 q 579 713 569 722 q 589 688 589 703 l 589 567 q 579 543 589 553 q 554 533 569 533 l 433 533 q 337 499 371 533 q 303 403 303 464 l 303 35 q 292 10 303 19 q 268 0 282 0 l 121 0 m 257 826 q 235 849 235 826 q 242 867 235 860 l 360 1010 q 383 1031 372 1026 q 411 1036 393 1036 l 571 1036 q 597 1008 597 1036 q 590 992 597 999 l 413 846 q 390 831 401 836 q 361 826 379 826 l 257 826 z "},"ř":{"ha":606,"x_min":78,"x_max":589,"o":"m 121 0 q 97 10 107 0 q 86 35 86 19 l 86 688 q 97 712 86 701 q 121 722 107 722 l 257 722 q 282 712 272 722 q 292 688 292 701 l 292 632 q 378 699 326 675 q 494 722 429 722 l 554 722 q 579 713 569 722 q 589 688 589 703 l 589 567 q 579 543 589 553 q 554 533 569 533 l 433 533 q 337 499 371 533 q 303 403 303 464 l 303 35 q 292 10 303 19 q 268 0 282 0 l 121 0 m 276 826 q 252 831 263 826 q 228 850 242 836 l 89 994 q 78 1017 78 1006 q 99 1036 78 1036 l 157 1036 q 181 1034 168 1036 q 203 1026 193 1032 l 322 956 l 442 1026 q 465 1034 453 1032 q 488 1036 476 1036 l 546 1036 q 567 1017 567 1036 q 556 994 567 1006 l 417 850 q 392 831 403 836 q 368 826 382 826 l 276 826 z "},"ŗ":{"ha":606,"x_min":53,"x_max":589,"o":"m 121 0 q 97 10 107 0 q 86 35 86 19 l 86 688 q 97 712 86 701 q 121 722 107 722 l 257 722 q 282 712 272 722 q 292 688 292 701 l 292 632 q 378 699 326 675 q 494 722 429 722 l 554 722 q 579 713 569 722 q 589 688 589 703 l 589 567 q 579 543 589 553 q 554 533 569 533 l 433 533 q 337 499 371 533 q 303 403 303 464 l 303 35 q 292 10 303 19 q 268 0 282 0 l 121 0 m 79 -321 q 60 -312 67 -321 q 54 -290 53 -303 l 81 -115 q 94 -83 83 -97 q 128 -69 106 -69 l 258 -69 q 277 -78 269 -69 q 285 -96 285 -86 q 281 -112 285 -106 l 214 -283 q 198 -309 208 -297 q 167 -321 188 -321 l 79 -321 z "},"ś":{"ha":754,"x_min":46,"x_max":707,"o":"m 372 -14 q 224 6 286 -14 q 124 56 163 26 q 67 115 86 85 q 47 165 49 144 q 57 190 46 181 q 79 200 68 200 l 214 200 q 223 199 219 200 q 232 192 226 197 q 269 163 250 179 q 314 136 288 147 q 378 125 340 125 q 455 144 424 125 q 486 197 486 163 q 472 239 486 222 q 418 269 458 256 q 299 300 378 283 q 171 344 224 317 q 92 415 118 372 q 65 517 65 457 q 99 621 65 571 q 200 703 133 671 q 367 736 267 736 q 501 717 443 736 q 597 670 558 699 q 656 612 636 642 q 678 560 676 582 q 669 535 679 544 q 647 525 660 525 l 524 525 q 511 528 517 525 q 501 535 506 531 q 467 560 485 544 q 426 586 450 575 q 365 597 403 597 q 297 577 321 597 q 272 526 272 557 q 285 490 272 507 q 335 460 297 474 q 454 431 374 446 q 604 381 549 414 q 683 303 660 347 q 707 210 707 260 q 669 94 707 144 q 556 15 631 43 q 372 -14 481 -14 m 290 826 q 268 849 268 826 q 275 867 268 860 l 393 1010 q 416 1031 406 1026 q 444 1036 426 1036 l 604 1036 q 631 1008 631 1036 q 624 992 631 999 l 446 846 q 424 831 435 836 q 394 826 413 826 l 290 826 z "},"š":{"ha":754,"x_min":46,"x_max":707,"o":"m 372 -14 q 224 6 286 -14 q 124 56 163 26 q 67 115 86 85 q 47 165 49 144 q 57 190 46 181 q 79 200 68 200 l 214 200 q 223 199 219 200 q 232 192 226 197 q 269 163 250 179 q 314 136 288 147 q 378 125 340 125 q 455 144 424 125 q 486 197 486 163 q 472 239 486 222 q 418 269 458 256 q 299 300 378 283 q 171 344 224 317 q 92 415 118 372 q 65 517 65 457 q 99 621 65 571 q 200 703 133 671 q 367 736 267 736 q 501 717 443 736 q 597 670 558 699 q 656 612 636 642 q 678 560 676 582 q 669 535 679 544 q 647 525 660 525 l 524 525 q 511 528 517 525 q 501 535 506 531 q 467 560 485 544 q 426 586 450 575 q 365 597 403 597 q 297 577 321 597 q 272 526 272 557 q 285 490 272 507 q 335 460 297 474 q 454 431 374 446 q 604 381 549 414 q 683 303 660 347 q 707 210 707 260 q 669 94 707 144 q 556 15 631 43 q 372 -14 481 -14 m 331 826 q 306 831 317 826 q 282 850 296 836 l 143 994 q 132 1017 132 1006 q 153 1036 132 1036 l 211 1036 q 235 1034 222 1036 q 257 1026 247 1032 l 376 956 l 496 1026 q 519 1034 507 1032 q 542 1036 531 1036 l 600 1036 q 621 1017 621 1036 q 610 994 621 1006 l 471 850 q 447 831 457 836 q 422 826 436 826 l 331 826 z "},"ş":{"ha":754,"x_min":46,"x_max":707,"o":"m 371 -306 q 303 -293 333 -306 q 260 -264 272 -281 q 260 -235 247 -247 l 285 -212 q 306 -206 297 -201 q 329 -219 315 -211 q 371 -228 343 -228 q 406 -215 392 -228 q 419 -183 419 -203 q 406 -153 419 -165 q 371 -140 393 -140 q 339 -145 353 -140 q 313 -151 325 -150 q 292 -143 301 -153 l 265 -117 q 259 -98 257 -108 q 268 -72 261 -87 l 296 -8 q 153 35 208 3 q 74 104 99 68 q 47 165 49 140 q 57 190 46 181 q 79 200 68 200 l 208 200 q 218 199 214 200 q 229 192 222 197 q 267 164 249 179 q 313 137 286 149 q 378 125 339 125 q 455 144 424 125 q 486 197 486 163 q 472 239 486 222 q 418 269 458 256 q 299 300 378 283 q 171 344 224 317 q 92 415 118 372 q 65 517 65 457 q 99 621 65 571 q 200 703 133 671 q 367 736 267 736 q 501 717 443 736 q 597 670 558 699 q 656 612 636 642 q 678 560 676 582 q 669 535 679 544 q 647 525 660 525 l 522 525 q 510 528 515 525 q 501 535 506 531 q 467 560 485 544 q 426 586 450 575 q 365 597 403 597 q 297 577 321 597 q 272 526 272 557 q 285 490 272 507 q 335 460 297 474 q 454 431 374 446 q 604 381 549 414 q 683 303 660 347 q 707 210 707 260 q 669 94 707 144 q 557 16 631 44 q 376 -14 483 -12 l 349 -71 q 372 -65 357 -67 q 396 -62 386 -62 q 474 -96 444 -62 q 504 -182 504 -129 q 469 -270 504 -235 q 371 -306 435 -306 z "},"ŝ":{"ha":754,"x_min":46,"x_max":707,"o":"m 372 -14 q 224 6 286 -14 q 124 56 163 26 q 67 115 86 85 q 47 165 49 144 q 57 190 46 181 q 79 200 68 200 l 214 200 q 223 199 219 200 q 232 192 226 197 q 269 163 250 179 q 314 136 288 147 q 378 125 340 125 q 455 144 424 125 q 486 197 486 163 q 472 239 486 222 q 418 269 458 256 q 299 300 378 283 q 171 344 224 317 q 92 415 118 372 q 65 517 65 457 q 99 621 65 571 q 200 703 133 671 q 367 736 267 736 q 501 717 443 736 q 597 670 558 699 q 656 612 636 642 q 678 560 676 582 q 669 535 679 544 q 647 525 660 525 l 524 525 q 511 528 517 525 q 501 535 506 531 q 467 560 485 544 q 426 586 450 575 q 365 597 403 597 q 297 577 321 597 q 272 526 272 557 q 285 490 272 507 q 335 460 297 474 q 454 431 374 446 q 604 381 549 414 q 683 303 660 347 q 707 210 707 260 q 669 94 707 144 q 556 15 631 43 q 372 -14 481 -14 m 153 826 q 132 846 132 826 q 143 868 132 857 l 282 1013 q 306 1032 296 1028 q 331 1036 317 1036 l 422 1036 q 447 1032 436 1036 q 471 1013 457 1028 l 610 868 q 621 846 621 857 q 600 826 621 826 l 542 826 q 519 828 531 826 q 496 836 507 831 l 376 907 l 257 836 q 235 828 247 831 q 211 826 222 826 l 153 826 z "},"ș":{"ha":754,"x_min":46,"x_max":707,"o":"m 372 -14 q 224 6 286 -14 q 124 56 163 26 q 67 115 86 85 q 47 165 49 144 q 57 190 46 181 q 79 200 68 200 l 214 200 q 223 199 219 200 q 232 192 226 197 q 269 163 250 179 q 314 136 288 147 q 378 125 340 125 q 455 144 424 125 q 486 197 486 163 q 472 239 486 222 q 418 269 458 256 q 299 300 378 283 q 171 344 224 317 q 92 415 118 372 q 65 517 65 457 q 99 621 65 571 q 200 703 133 671 q 367 736 267 736 q 501 717 443 736 q 597 670 558 699 q 656 612 636 642 q 678 560 676 582 q 669 535 679 544 q 647 525 660 525 l 524 525 q 511 528 517 525 q 501 535 506 531 q 467 560 485 544 q 426 586 450 575 q 365 597 403 597 q 297 577 321 597 q 272 526 272 557 q 285 490 272 507 q 335 460 297 474 q 454 431 374 446 q 604 381 549 414 q 683 303 660 347 q 707 210 707 260 q 669 94 707 144 q 556 15 631 43 q 372 -14 481 -14 m 269 -321 q 250 -312 257 -321 q 244 -290 243 -303 l 271 -115 q 285 -83 274 -97 q 318 -69 296 -69 l 449 -69 q 467 -78 460 -69 q 475 -96 475 -86 q 471 -112 475 -106 l 404 -283 q 388 -309 399 -297 q 357 -321 378 -321 l 269 -321 z "},"ß":{"ha":871,"x_min":88,"x_max":817,"o":"m 122 0 q 97 10 107 0 q 88 35 88 19 l 88 661 q 124 824 88 751 q 236 942 160 897 q 435 986 313 986 q 632 946 557 986 q 741 844 707 906 q 775 715 775 782 q 761 630 775 667 q 724 567 747 593 q 672 522 701 540 q 756 469 724 503 q 802 390 788 435 q 817 290 817 346 q 797 190 817 240 q 735 96 776 139 q 628 26 693 53 q 471 0 563 0 l 394 0 q 367 10 376 0 q 357 35 357 19 l 357 125 q 367 150 357 140 q 394 160 376 160 l 440 160 q 557 199 515 160 q 599 299 599 239 q 558 399 599 358 q 438 439 518 439 l 392 439 q 365 449 374 439 q 357 472 357 458 l 357 551 q 365 576 357 567 q 392 586 372 586 l 431 586 q 538 619 501 588 q 575 706 575 650 q 537 792 575 757 q 435 826 499 826 q 333 787 371 826 q 294 663 294 747 l 294 35 q 285 10 294 19 q 261 0 275 0 l 122 0 z "},"ſ":{"ha":460,"x_min":24,"x_max":592,"o":"m 201 0 q 178 10 188 0 q 168 35 168 19 l 168 558 l 58 558 q 34 568 44 558 q 24 592 24 578 l 24 688 q 34 713 24 703 q 58 722 44 722 l 168 722 l 168 769 q 201 917 168 860 q 299 1001 235 974 q 456 1028 363 1028 l 557 1028 q 582 1018 572 1028 q 592 993 592 1008 l 592 897 q 582 874 592 883 q 557 864 572 864 l 464 864 q 406 851 426 864 q 379 816 386 838 q 372 765 372 794 l 372 35 q 363 10 372 19 q 339 0 353 0 l 201 0 z "},"ŧ":{"ha":629,"x_min":25,"x_max":594,"o":"m 439 0 q 292 28 353 0 q 200 117 232 57 q 168 267 168 176 l 168 394 l 60 394 q 35 404 44 394 q 25 428 25 414 l 25 475 q 35 499 25 489 q 60 508 44 508 l 168 508 l 168 608 l 60 608 q 35 618 44 608 q 25 642 25 628 l 25 688 q 35 713 25 703 q 60 722 44 722 l 168 722 l 168 951 q 178 976 168 967 q 203 986 188 986 l 339 986 q 364 976 354 986 q 374 951 374 967 l 374 722 l 547 722 q 572 713 563 722 q 582 688 582 703 l 582 642 q 572 618 582 628 q 547 608 563 608 l 374 608 l 374 508 l 547 508 q 572 499 563 508 q 582 475 582 489 l 582 428 q 572 404 582 414 q 547 394 563 394 l 374 394 l 374 283 q 393 201 374 231 q 458 171 413 171 l 560 171 q 585 161 575 171 q 594 138 594 151 l 594 35 q 585 10 594 19 q 560 0 575 0 l 439 0 z "},"ť":{"ha":594,"x_min":21,"x_max":700,"o":"m 435 0 q 288 28 349 0 q 196 117 228 57 q 164 267 164 176 l 164 558 l 56 558 q 31 568 40 558 q 21 592 21 578 l 21 688 q 31 713 21 703 q 56 722 40 722 l 164 722 l 164 951 q 174 976 164 967 q 199 986 185 986 l 336 986 q 360 976 350 986 q 369 951 369 967 l 369 722 l 543 722 q 568 713 558 722 q 578 688 578 703 l 578 592 q 568 568 578 578 q 543 558 558 558 l 369 558 l 369 283 q 389 201 369 231 q 454 171 408 171 l 556 171 q 581 161 571 171 q 590 138 590 151 l 590 35 q 581 10 590 19 q 556 0 571 0 l 435 0 m 494 847 q 475 856 482 847 q 469 878 468 865 l 496 1053 q 510 1085 499 1071 q 543 1099 521 1099 l 674 1099 q 692 1090 685 1099 q 700 1072 700 1082 q 696 1056 700 1063 l 629 885 q 613 859 624 871 q 582 847 603 847 l 494 847 z "},"ț":{"ha":622,"x_min":21,"x_max":590,"o":"m 435 0 q 288 28 349 0 q 196 117 228 57 q 164 267 164 176 l 164 558 l 56 558 q 31 568 40 558 q 21 592 21 578 l 21 688 q 31 713 21 703 q 56 722 40 722 l 164 722 l 164 951 q 174 976 164 967 q 199 986 185 986 l 336 986 q 360 976 350 986 q 369 951 369 967 l 369 722 l 543 722 q 568 713 558 722 q 578 688 578 703 l 578 592 q 568 568 578 578 q 543 558 558 558 l 369 558 l 369 283 q 389 201 369 231 q 454 171 408 171 l 556 171 q 581 161 571 171 q 590 138 590 151 l 590 35 q 581 10 590 19 q 556 0 571 0 l 435 0 m 207 -321 q 188 -312 194 -321 q 182 -290 181 -303 l 208 -115 q 222 -83 211 -97 q 256 -69 233 -69 l 386 -69 q 405 -78 397 -69 q 413 -96 413 -86 q 408 -112 413 -106 l 342 -283 q 326 -309 336 -297 q 294 -321 315 -321 l 207 -321 z "},"ú":{"ha":876,"x_min":79,"x_max":789,"o":"m 353 -14 q 210 23 272 -14 q 114 130 149 60 q 79 300 79 200 l 79 688 q 90 713 79 703 q 114 722 100 722 l 263 722 q 286 713 276 722 q 296 688 296 703 l 296 308 q 432 153 296 153 q 535 194 497 153 q 574 308 574 235 l 574 688 q 583 713 574 703 q 608 722 593 722 l 756 722 q 779 713 769 722 q 789 688 789 703 l 789 35 q 779 10 789 19 q 756 0 769 0 l 618 0 q 594 10 604 0 q 585 35 585 19 l 585 89 q 492 13 549 39 q 353 -14 435 -14 m 365 826 q 343 849 343 826 q 350 867 343 860 l 468 1010 q 491 1031 481 1026 q 519 1036 501 1036 l 679 1036 q 706 1008 706 1036 q 699 992 706 999 l 521 846 q 499 831 510 836 q 469 826 488 826 l 365 826 z "},"ŭ":{"ha":876,"x_min":79,"x_max":789,"o":"m 353 -14 q 210 23 272 -14 q 114 130 149 60 q 79 300 79 200 l 79 688 q 90 713 79 703 q 114 722 100 722 l 263 722 q 286 713 276 722 q 296 688 296 703 l 296 308 q 432 153 296 153 q 535 194 497 153 q 574 308 574 235 l 574 688 q 583 713 574 703 q 608 722 593 722 l 756 722 q 779 713 769 722 q 789 688 789 703 l 789 35 q 779 10 789 19 q 756 0 769 0 l 618 0 q 594 10 604 0 q 585 35 585 19 l 585 89 q 492 13 549 39 q 353 -14 435 -14 m 435 819 q 322 846 365 819 q 258 915 278 872 q 238 1010 238 958 q 244 1028 238 1021 q 264 1036 251 1036 l 342 1036 q 361 1028 354 1036 q 368 1010 368 1021 q 382 951 368 978 q 435 925 396 925 q 488 951 475 925 q 501 1010 501 978 q 508 1028 501 1021 q 528 1036 515 1036 l 606 1036 q 625 1028 618 1036 q 632 1010 632 1021 q 612 915 632 958 q 548 846 592 872 q 435 819 504 819 z "},"û":{"ha":876,"x_min":79,"x_max":789,"o":"m 353 -14 q 210 23 272 -14 q 114 130 149 60 q 79 300 79 200 l 79 688 q 90 713 79 703 q 114 722 100 722 l 263 722 q 286 713 276 722 q 296 688 296 703 l 296 308 q 432 153 296 153 q 535 194 497 153 q 574 308 574 235 l 574 688 q 583 713 574 703 q 608 722 593 722 l 756 722 q 779 713 769 722 q 789 688 789 703 l 789 35 q 779 10 789 19 q 756 0 769 0 l 618 0 q 594 10 604 0 q 585 35 585 19 l 585 89 q 492 13 549 39 q 353 -14 435 -14 m 211 826 q 190 846 190 826 q 201 868 190 857 l 340 1013 q 365 1032 354 1028 q 389 1036 375 1036 l 481 1036 q 505 1032 494 1036 q 529 1013 515 1028 l 668 868 q 679 846 679 857 q 658 826 679 826 l 600 826 q 577 828 589 826 q 554 836 565 831 l 435 907 l 315 836 q 293 828 306 831 q 269 826 281 826 l 211 826 z "},"ü":{"ha":876,"x_min":79,"x_max":789,"o":"m 353 -14 q 210 23 272 -14 q 114 130 149 60 q 79 300 79 200 l 79 688 q 90 713 79 703 q 114 722 100 722 l 263 722 q 286 713 276 722 q 296 688 296 703 l 296 308 q 432 153 296 153 q 535 194 497 153 q 574 308 574 235 l 574 688 q 583 713 574 703 q 608 722 593 722 l 756 722 q 779 713 769 722 q 789 688 789 703 l 789 35 q 779 10 789 19 q 756 0 769 0 l 618 0 q 594 10 604 0 q 585 35 585 19 l 585 89 q 492 13 549 39 q 353 -14 435 -14 m 515 849 q 492 857 500 849 q 483 879 483 865 l 483 993 q 492 1016 483 1007 q 515 1025 500 1025 l 629 1025 q 652 1016 643 1025 q 661 993 661 1007 l 661 879 q 652 857 661 865 q 629 849 643 849 l 515 849 m 240 849 q 218 857 226 849 q 210 879 210 865 l 210 993 q 218 1016 210 1007 q 240 1025 226 1025 l 356 1025 q 378 1016 369 1025 q 388 993 388 1007 l 388 879 q 378 857 388 865 q 356 849 369 849 l 240 849 z "},"ù":{"ha":876,"x_min":79,"x_max":789,"o":"m 353 -14 q 210 23 272 -14 q 114 130 149 60 q 79 300 79 200 l 79 688 q 90 713 79 703 q 114 722 100 722 l 263 722 q 286 713 276 722 q 296 688 296 703 l 296 308 q 432 153 296 153 q 535 194 497 153 q 574 308 574 235 l 574 688 q 583 713 574 703 q 608 722 593 722 l 756 722 q 779 713 769 722 q 789 688 789 703 l 789 35 q 779 10 789 19 q 756 0 769 0 l 618 0 q 594 10 604 0 q 585 35 585 19 l 585 89 q 492 13 549 39 q 353 -14 435 -14 m 400 826 q 370 831 381 826 q 349 846 360 836 l 169 992 q 163 1008 163 999 q 189 1036 163 1036 l 350 1036 q 378 1031 368 1036 q 401 1010 388 1026 l 519 867 q 526 849 526 860 q 504 826 526 826 l 400 826 z "},"ű":{"ha":876,"x_min":79,"x_max":789,"o":"m 353 -14 q 210 23 272 -14 q 114 130 149 60 q 79 300 79 200 l 79 688 q 90 713 79 703 q 114 722 100 722 l 263 722 q 286 713 276 722 q 296 688 296 703 l 296 308 q 432 153 296 153 q 535 194 497 153 q 574 308 574 235 l 574 688 q 583 713 574 703 q 608 722 593 722 l 756 722 q 779 713 769 722 q 789 688 789 703 l 789 35 q 779 10 789 19 q 756 0 769 0 l 618 0 q 594 10 604 0 q 585 35 585 19 l 585 89 q 492 13 549 39 q 353 -14 435 -14 m 513 826 q 490 849 490 826 q 493 860 490 854 q 497 869 496 865 l 560 1010 q 611 1036 572 1036 l 740 1036 q 768 1010 768 1036 q 760 992 768 1000 l 631 846 q 586 826 614 826 l 513 826 m 233 826 q 211 849 211 826 q 214 860 211 854 q 218 869 217 865 l 281 1010 q 332 1036 293 1036 l 461 1036 q 489 1010 489 1036 q 481 992 489 1000 l 351 846 q 307 826 335 826 l 233 826 z "},"ū":{"ha":876,"x_min":79,"x_max":789,"o":"m 353 -14 q 210 23 272 -14 q 114 130 149 60 q 79 300 79 200 l 79 688 q 90 713 79 703 q 114 722 100 722 l 263 722 q 286 713 276 722 q 296 688 296 703 l 296 308 q 432 153 296 153 q 535 194 497 153 q 574 308 574 235 l 574 688 q 583 713 574 703 q 608 722 593 722 l 756 722 q 779 713 769 722 q 789 688 789 703 l 789 35 q 779 10 789 19 q 756 0 769 0 l 618 0 q 594 10 604 0 q 585 35 585 19 l 585 89 q 492 13 549 39 q 353 -14 435 -14 m 250 844 q 228 853 236 844 q 219 876 219 861 l 219 960 q 228 983 219 974 q 250 992 236 992 l 618 992 q 641 983 632 992 q 650 960 650 974 l 650 876 q 641 853 650 861 q 618 844 632 844 l 250 844 z "}}}
